<?xml version="1.0"?>
<svg xmlns="http://www.w3.org/2000/svg" width="65" height="73" viewBox="0 0 65 73" fill="none">
<g clip-path="url(#clip0)">
<path d="M26.968 7.49545C26.7112 7.49555 26.4636 7.3994 26.2739 7.22589C26.069 7.04064 25.9459 6.78143 25.9316 6.50522C25.9173 6.22902 26.0129 5.95842 26.1976 5.75288L31.0596 0.347793C31.1556 0.241089 31.2726 0.15541 31.4032 0.0961263C31.5338 0.0368422 31.6752 0.00523005 31.8185 0.00327084C31.9619 0.00131163 32.1041 0.0290475 32.2362 0.0847406C32.3684 0.140434 32.4877 0.222883 32.5865 0.326923L37.5943 5.60158C37.7004 5.69786 37.7856 5.81504 37.8446 5.94581C37.9035 6.07658 37.9349 6.21812 37.9367 6.36159C37.9386 6.50506 37.9109 6.64738 37.8555 6.77966C37.8 6.91193 37.7179 7.03131 37.6143 7.13035C37.5107 7.22938 37.3878 7.30593 37.2534 7.35523C37.1189 7.40452 36.9758 7.42549 36.8329 7.41683C36.69 7.40817 36.5504 7.37007 36.4228 7.3049C36.2953 7.23973 36.1825 7.14889 36.0916 7.03807L31.8578 2.57904L27.7419 7.15111C27.6442 7.25964 27.5248 7.34637 27.3915 7.40569C27.2581 7.46501 27.1139 7.49559 26.968 7.49545Z" fill="#4FBA6D"/>
<path d="M40.4956 16.3475C40.3281 16.3471 40.1644 16.2982 40.024 16.2066C39.8837 16.1151 39.7728 15.9847 39.7048 15.8314C39.6367 15.678 39.6144 15.5082 39.6405 15.3425C39.6666 15.1767 39.74 15.022 39.8518 14.8971L42.8884 11.5233C42.9685 11.4343 43.0662 11.3628 43.1752 11.3135C43.2842 11.2641 43.4022 11.2378 43.5218 11.2363H43.5339C43.6514 11.2363 43.7676 11.2602 43.8756 11.3065C43.9835 11.3529 44.081 11.4207 44.162 11.5059L47.2836 14.7823C47.3666 14.8641 47.4323 14.9618 47.4769 15.0695C47.5214 15.1772 47.5439 15.2928 47.5429 15.4095C47.542 15.5261 47.5176 15.6413 47.4713 15.7483C47.4251 15.8553 47.3578 15.9519 47.2735 16.0323C47.1892 16.1127 47.0896 16.1752 46.9807 16.2163C46.8718 16.2573 46.7557 16.276 46.6395 16.2712C46.5232 16.2663 46.4091 16.2381 46.304 16.1882C46.1988 16.1383 46.1047 16.0677 46.0274 15.9806L43.553 13.3789L41.1411 16.0536C41.0602 16.1454 40.9609 16.219 40.8497 16.2697C40.7384 16.3203 40.6178 16.3468 40.4956 16.3475Z" fill="#4FBA6D"/>
<path d="M18.9654 23.1298C18.7976 23.1298 18.6335 23.0809 18.4928 22.9893C18.3521 22.8976 18.241 22.767 18.1729 22.6133C18.1048 22.4597 18.0826 22.2895 18.109 22.1234C18.1354 21.9574 18.2093 21.8025 18.3217 21.6777L21.3582 18.3038C21.4382 18.2151 21.5355 18.1437 21.6442 18.0944C21.7529 18.045 21.8705 18.0186 21.9899 18.0169C22.1096 18.0145 22.2285 18.0374 22.3389 18.0841C22.4492 18.1309 22.5484 18.2004 22.6301 18.2882L25.7535 21.5768C25.9122 21.7438 25.9983 21.9671 25.9928 22.1977C25.9873 22.4283 25.8906 22.6472 25.724 22.8064C25.5574 22.9655 25.3345 23.0518 25.1045 23.0462C24.8744 23.0407 24.656 22.9438 24.4972 22.7768L22.0193 20.1734L19.6074 22.8481C19.5259 22.9372 19.4266 23.0083 19.3161 23.0568C19.2055 23.1053 19.0861 23.1302 18.9654 23.1298Z" fill="#4FBA6D"/>
<path d="M43.475 27.2097C43.2449 27.2097 43.0242 27.1181 42.8615 26.955C42.6988 26.792 42.6074 26.5708 42.6074 26.3402V12.7196C42.6074 12.489 42.6988 12.2679 42.8615 12.1048C43.0242 11.9417 43.2449 11.8501 43.475 11.8501C43.7051 11.8501 43.9258 11.9417 44.0885 12.1048C44.2512 12.2679 44.3426 12.489 44.3426 12.7196V26.3402C44.3426 26.4544 44.3202 26.5674 44.2766 26.6729C44.233 26.7784 44.1691 26.8743 44.0885 26.955C44.0079 27.0358 43.9123 27.0998 43.807 27.1435C43.7018 27.1872 43.5889 27.2097 43.475 27.2097Z" fill="#4FBA6D"/>
<path d="M22.0107 27.2429C21.7806 27.2429 21.5599 27.1513 21.3972 26.9882C21.2345 26.8252 21.1431 26.604 21.1431 26.3734V19.3127C21.1431 19.082 21.2345 18.8609 21.3972 18.6978C21.5599 18.5347 21.7806 18.4431 22.0107 18.4431C22.2408 18.4431 22.4614 18.5347 22.6241 18.6978C22.7868 18.8609 22.8783 19.082 22.8783 19.3127V26.3734C22.8783 26.604 22.7868 26.8252 22.6241 26.9882C22.4614 27.1513 22.2408 27.2429 22.0107 27.2429Z" fill="#4FBA6D"/>
<path d="M31.8126 27.0846C31.5365 27.0846 31.2717 26.9746 31.0764 26.7789C30.8812 26.5833 30.7715 26.3179 30.7715 26.0411V3.32861C30.7715 3.05187 30.8812 2.78646 31.0764 2.59078C31.2717 2.39509 31.5365 2.28516 31.8126 2.28516C32.0887 2.28516 32.3535 2.39509 32.5488 2.59078C32.744 2.78646 32.8537 3.05187 32.8537 3.32861V26.0411C32.8537 26.3179 32.744 26.5833 32.5488 26.7789C32.3535 26.9746 32.0887 27.0846 31.8126 27.0846Z" fill="#4FBA6D"/>
<path d="M32.5 73C14.5756 73 3.99145e-06 58.3865 3.99145e-06 40.4269C-0.00233213 35.7047 1.02083 31.0386 2.99845 26.7525C4.97606 22.4664 7.86075 18.6631 11.4522 15.6066C11.5383 15.5284 11.6392 15.4682 11.7489 15.4298C11.8586 15.3914 11.9749 15.3755 12.0909 15.383C12.2069 15.3905 12.3202 15.4213 12.424 15.4735C12.5279 15.5257 12.6203 15.5983 12.6956 15.687C12.7709 15.7757 12.8277 15.8786 12.8626 15.9897C12.8975 16.1008 12.9098 16.2178 12.8987 16.3338C12.8876 16.4497 12.8533 16.5622 12.798 16.6647C12.7427 16.7671 12.6674 16.8573 12.5766 16.9301C9.17665 19.8236 6.44578 23.4241 4.57364 27.4816C2.70149 31.5392 1.73292 35.9565 1.73519 40.4269C1.73519 57.4282 15.5368 71.2609 32.5 71.2609C49.4632 71.2609 63.2648 57.4282 63.2648 40.4269C63.2774 35.7452 62.2206 31.1228 60.1754 26.9138C58.1302 22.7047 55.1508 19.0207 51.4656 16.144C51.3632 16.0789 51.2756 15.9931 51.2084 15.892C51.1411 15.7909 51.0958 15.6768 51.0752 15.557C51.0547 15.4373 51.0594 15.3146 51.0891 15.1968C51.1188 15.079 51.1728 14.9687 51.2476 14.8731C51.3224 14.7775 51.4163 14.6987 51.5234 14.6417C51.6305 14.5847 51.7482 14.5509 51.8692 14.5423C51.9901 14.5338 52.1114 14.5507 52.2254 14.592C52.3394 14.6334 52.4435 14.6982 52.531 14.7823C56.4251 17.8204 59.5736 21.7118 61.7349 26.1581C63.8963 30.6045 65.0132 35.4879 65 40.4338C65 58.3865 50.4192 73 32.5 73Z" fill="#2EA0DA"/>
<path d="M51.6389 66.4715C51.4088 66.4715 51.1881 66.3799 51.0254 66.2168C50.8627 66.0537 50.7713 65.8325 50.7713 65.6019V27.4428H14.2283V65.2037C14.2283 65.4343 14.1369 65.6555 13.9742 65.8185C13.8115 65.9816 13.5909 66.0732 13.3608 66.0732C13.1307 66.0732 12.91 65.9816 12.7473 65.8185C12.5846 65.6555 12.4932 65.4343 12.4932 65.2037V26.5733C12.4932 26.3427 12.5846 26.1215 12.7473 25.9584C12.91 25.7953 13.1307 25.7037 13.3608 25.7037H51.6389C51.869 25.7037 52.0897 25.7953 52.2524 25.9584C52.4151 26.1215 52.5065 26.3427 52.5065 26.5733V65.6019C52.5065 65.8325 52.4151 66.0537 52.2524 66.2168C52.0897 66.3799 51.869 66.4715 51.6389 66.4715Z" fill="#2EA0DA"/>
<path d="M43.9626 47.6893H20.8378C20.6077 47.6893 20.387 47.5977 20.2243 47.4346C20.0616 47.2716 19.9702 47.0504 19.9702 46.8198V34.0323C19.9702 33.8016 20.0616 33.5805 20.2243 33.4174C20.387 33.2543 20.6077 33.1627 20.8378 33.1627H43.9626C44.1927 33.1627 44.4134 33.2543 44.5761 33.4174C44.7388 33.5805 44.8302 33.8016 44.8302 34.0323V46.8198C44.8302 47.0504 44.7388 47.2716 44.5761 47.4346C44.4134 47.5977 44.1927 47.6893 43.9626 47.6893ZM21.7054 45.9502H43.095V34.9018H21.7054V45.9502Z" fill="#2EA0DA"/>
<path d="M43.9626 54.2978H20.8378C20.6077 54.2978 20.387 54.2062 20.2243 54.0431C20.0616 53.88 19.9702 53.6589 19.9702 53.4283C19.9702 53.1976 20.0616 52.9765 20.2243 52.8134C20.387 52.6503 20.6077 52.5587 20.8378 52.5587H43.9626C44.1927 52.5587 44.4134 52.6503 44.5761 52.8134C44.7388 52.9765 44.8302 53.1976 44.8302 53.4283C44.8302 53.6589 44.7388 53.88 44.5761 54.0431C44.4134 54.2062 44.1927 54.2978 43.9626 54.2978Z" fill="#2EA0DA"/>
<path d="M43.9626 60.3464H20.8378C20.6077 60.3464 20.387 60.2548 20.2243 60.0917C20.0616 59.9286 19.9702 59.7075 19.9702 59.4768C19.9702 59.2462 20.0616 59.0251 20.2243 58.862C20.387 58.6989 20.6077 58.6073 20.8378 58.6073H43.9626C44.1927 58.6073 44.4134 58.6989 44.5761 58.862C44.7388 59.0251 44.8302 59.2462 44.8302 59.4768C44.8302 59.7075 44.7388 59.9286 44.5761 60.0917C44.4134 60.2548 44.1927 60.3464 43.9626 60.3464Z" fill="#2EA0DA"/>
<path d="M29.6092 66.3758H20.8378C20.6077 66.3758 20.387 66.2842 20.2243 66.1211C20.0616 65.9581 19.9702 65.7369 19.9702 65.5063C19.9702 65.2756 20.0616 65.0545 20.2243 64.8914C20.387 64.7283 20.6077 64.6367 20.8378 64.6367H29.6092C29.8393 64.6367 30.0599 64.7283 30.2226 64.8914C30.3853 65.0545 30.4768 65.2756 30.4768 65.5063C30.4768 65.7369 30.3853 65.9581 30.2226 66.1211C30.0599 66.2842 29.8393 66.3758 29.6092 66.3758Z" fill="#2EA0DA"/>
</g>
<defs>
<clipPath id="clip0">
<rect width="65" height="73" fill="white"/>
</clipPath>
</defs>
</svg>
