<?xml version="1.0"?>
<svg xmlns="http://www.w3.org/2000/svg" width="53" height="53" viewBox="0 0 53 53" fill="none">
<rect width="53" height="53" rx="6" fill="#4F93BA" fill-opacity="0.26"/>
<path d="M41.5458 25.4148C41.8939 27.6447 41.446 29.926 40.2806 31.8588C39.1151 33.7915 37.3065 35.2523 35.1718 35.985C33.0371 36.7177 30.7126 36.6757 28.6059 35.8661C26.4991 35.0566 24.7446 33.5312 23.6498 31.5576C22.5551 29.5839 22.1901 27.2879 22.6188 25.072C23.0475 22.8562 24.2425 20.8619 25.9943 19.439C27.7461 18.016 29.943 17.2551 32.1997 17.2897C34.4563 17.3243 36.6288 18.1522 38.3362 19.6282" stroke="#3BA1DA" stroke-width="1.5" stroke-linecap="round" stroke-linejoin="round"/>
<path d="M28.4482 25.5309L31.8333 29.57L43.8982 18.8706" stroke="#3BA1DA" stroke-width="1.5" stroke-linecap="round" stroke-linejoin="round"/>
<path d="M17.4001 14H11V20.4001H17.4001V14Z" stroke="#3BA1DA" stroke-width="1.5" stroke-linecap="round" stroke-linejoin="round"/>
<path d="M17.4001 23.3008H11V29.7009H17.4001V23.3008Z" stroke="#3BA1DA" stroke-width="1.5" stroke-linecap="round" stroke-linejoin="round"/>
<path d="M17.4001 32.6001H11V39.0002H17.4001V32.6001Z" stroke="#3BA1DA" stroke-width="1.5" stroke-linecap="round" stroke-linejoin="round"/>
<path d="M14.1597 20.6099V23.2382" stroke="#3BA1DA" stroke-width="1.5" stroke-linecap="round" stroke-linejoin="round"/>
<path d="M14.1597 29.7305V32.3588" stroke="#3BA1DA" stroke-width="1.5" stroke-linecap="round" stroke-linejoin="round"/>
<path d="M22.2353 26.5522H17.5767" stroke="#3BA1DA" stroke-width="1.5" stroke-linecap="round" stroke-linejoin="round"/>
</svg>
