<?xml version="1.0"?>
<svg xmlns="http://www.w3.org/2000/svg" width="64" height="64" viewBox="0 0 64 64" fill="none">
<path d="M32.0881 62.1345C48.8771 62.1345 62.4873 48.5243 62.4873 31.7353C62.4873 14.9464 48.8771 1.33618 32.0881 1.33618C15.2991 1.33618 1.68896 14.9464 1.68896 31.7353C1.68896 48.5243 15.2991 62.1345 32.0881 62.1345Z" fill="white"/>
<path d="M32.0002 6.41821C17.8939 6.41821 6.41846 17.9003 6.41846 31.9999C6.41846 46.0995 17.8939 57.5766 32.0002 57.5766C46.1064 57.5766 57.5769 46.1045 57.5769 31.9999C57.5769 17.8953 46.1048 6.41821 32.0002 6.41821Z" fill="#3BA1DA"/>
<path d="M24.8229 49.6308C24.3301 49.6283 23.8482 49.4858 23.4334 49.2197C22.9091 48.8986 22.52 48.3972 22.3389 47.8096C22.1579 47.222 22.1973 46.5886 22.4499 46.0281L26.675 36.2766L20.884 35.7092L20.8141 35.6992C20.4313 35.6344 20.0727 35.4688 19.7753 35.2192C19.4778 34.9697 19.2523 34.6454 19.1219 34.2797C18.9915 33.914 18.961 33.5201 19.0335 33.1387C19.1061 32.7573 19.279 32.4021 19.5345 32.1098C19.5544 32.0865 19.5761 32.0649 19.5977 32.0432L37.2901 15.2362C37.7025 14.7825 38.2636 14.4913 38.8719 14.4152C39.4803 14.339 40.0958 14.4829 40.6074 14.8208C41.1189 15.1588 41.4928 15.6685 41.6614 16.258C41.83 16.8475 41.7822 17.4778 41.5268 18.0351L37.0654 27.7766L43.1193 28.3873L43.1859 28.3956C43.569 28.4605 43.9279 28.6265 44.2254 28.8764C44.523 29.1263 44.7485 29.4512 44.8785 29.8173C45.0086 30.1835 45.0386 30.5778 44.9654 30.9594C44.8922 31.3411 44.7185 31.6963 44.4622 31.9883C44.4423 32.0121 44.4206 32.0344 44.3973 32.0549L26.7049 48.7821C26.4682 49.0475 26.1783 49.2603 25.8541 49.4065C25.5299 49.5527 25.1785 49.6291 24.8229 49.6308ZM21.1336 33.7173L28.2392 34.4145C28.3956 34.43 28.5462 34.4821 28.6787 34.5667C28.8111 34.6512 28.9218 34.7659 29.0015 34.9013C29.0813 35.0367 29.128 35.1891 29.1378 35.3459C29.1476 35.5028 29.1202 35.6597 29.0579 35.804L24.2887 46.8202C24.2331 46.9456 24.2245 47.0869 24.2644 47.2183C24.3043 47.3496 24.39 47.4622 24.5059 47.5356C24.6219 47.609 24.7604 47.6383 24.8961 47.6182C25.0319 47.598 25.1559 47.5298 25.2456 47.4259C25.2659 47.4025 25.2876 47.3802 25.3105 47.3593L42.9778 30.6354C42.9935 30.6109 43.0032 30.5831 43.0061 30.5542C43.0091 30.5253 43.0052 30.4961 42.9949 30.4689C42.9845 30.4417 42.968 30.4174 42.9465 30.3977C42.9251 30.3781 42.8993 30.3638 42.8713 30.3559L35.4762 29.6104C35.3182 29.5944 35.1663 29.5409 35.0331 29.4545C34.8999 29.368 34.7892 29.251 34.7103 29.1132C34.6314 28.9753 34.5865 28.8207 34.5793 28.662C34.5722 28.5034 34.603 28.3453 34.6692 28.2009L39.7113 17.1898C39.7682 17.0647 39.7782 16.9234 39.7395 16.7915C39.7009 16.6597 39.616 16.5461 39.5006 16.4717C39.3851 16.3972 39.2467 16.3667 39.1106 16.3858C38.9746 16.4049 38.8499 16.4723 38.7594 16.5757C38.7378 16.599 38.7178 16.6207 38.6945 16.6423L21.0205 33.4377C21.0049 33.4622 20.9952 33.4901 20.9922 33.519C20.9893 33.5479 20.9931 33.5771 21.0035 33.6043C21.0138 33.6315 21.0304 33.6558 21.0518 33.6754C21.0733 33.6951 21.099 33.7094 21.127 33.7173H21.1336Z" fill="white"/>
<path d="M32.0002 62.8351C14.9968 62.8351 1.16504 49.0017 1.16504 31.9999C1.16504 14.9982 14.9968 1.16479 32.0002 1.16479C49.0036 1.16479 62.8353 14.9965 62.8353 31.9999C62.8353 49.0034 49.002 62.8351 32.0002 62.8351ZM32.0002 2.16323C15.5476 2.16323 2.16348 15.5473 2.16348 31.9999C2.16348 48.4526 15.5476 61.8367 32.0002 61.8367C48.4528 61.8367 61.8369 48.4509 61.8369 31.9999C61.8369 15.549 48.4512 2.16323 32.0002 2.16323Z" fill="#A9A9AC"/>
</svg>
