<?xml version="1.0"?>
<svg xmlns="http://www.w3.org/2000/svg" width="68" height="65" viewBox="0 0 68 65" fill="none">
<g clip-path="url(#clip0)">
<path d="M5.83644 40.6901H4.25892C4.17959 40.6896 4.10093 40.6755 4.02637 40.6484C4.70364 43.2575 5.70466 45.7717 7.00613 48.1323C7.07902 47.99 7.15191 47.8495 7.22827 47.7107C7.42871 47.0505 7.58924 46.379 7.70898 45.6996C6.94045 44.0873 6.3139 42.4111 5.83644 40.6901Z" fill="#2EA0DA"/>
<path d="M35.4966 0C17.5729 0 2.9917 14.5755 2.9917 32.5C2.99197 34.23 3.1295 35.9573 3.403 37.6656C3.84499 37.0029 4.34816 36.383 4.9059 35.8142C4.78935 34.7133 4.73142 33.607 4.73235 32.5C4.72715 15.5368 18.5291 1.73518 35.4966 1.73518C52.4641 1.73518 66.2643 15.5368 66.2643 32.5C66.2643 49.4632 52.4623 63.2648 35.4966 63.2648C30.7987 63.2657 26.1632 62.1892 21.9466 60.1181C17.7301 58.047 14.0448 55.0364 11.1743 51.3181C11.0528 51.4742 10.921 51.6235 10.7839 51.7675C10.8221 51.8989 10.8089 52.04 10.7471 52.1621C10.6852 52.2842 10.5792 52.3782 10.4506 52.4251C10.2945 52.4945 10.1469 52.5674 9.99249 52.6247C13.0309 56.4832 16.9057 59.6018 21.3247 61.7455C25.7438 63.8892 30.5918 65.002 35.5035 65C53.4255 65 68.0067 50.4245 68.0067 32.5C68.0067 14.5755 53.4186 0 35.4966 0Z" fill="#2EA0DA"/>
<path d="M41.8245 15.7728C39.8051 15.008 37.6633 14.6175 35.504 14.6206C31.3341 14.6329 27.2985 16.0961 24.0899 18.759C24.1107 20.1871 23.3541 21.5197 22.5957 22.8159C24.1035 20.817 26.0533 19.1938 28.2925 18.0731C30.5318 16.9524 32.9999 16.3647 35.504 16.3558C37.4529 16.3534 39.386 16.7062 41.2084 17.3969C41.4238 17.4786 41.6628 17.4714 41.8729 17.3769C42.083 17.2823 42.2469 17.1082 42.3286 16.8928C42.4103 16.6775 42.4031 16.4385 42.3085 16.2284C42.214 16.0184 42.0399 15.8545 41.8245 15.7728Z" fill="#2EA0DA"/>
<path d="M29.2058 10.5587C28.9929 10.5619 28.7862 10.4868 28.6251 10.3476C28.464 10.2085 28.3597 10.0149 28.3321 9.80382C28.3044 9.59274 28.3553 9.37887 28.4752 9.2029C28.595 9.02693 28.7753 8.90115 28.9819 8.8495C29.981 8.57429 30.9965 8.36275 32.0224 8.21615C32.2497 8.18479 32.4802 8.24474 32.6634 8.38289C32.8467 8.52103 32.9677 8.72612 33.0001 8.95327C33.0324 9.18042 32.9735 9.41114 32.8361 9.59494C32.6987 9.77874 32.4941 9.90064 32.2671 9.93399C31.3144 10.0701 30.3713 10.2665 29.4435 10.5222C29.3663 10.5452 29.2863 10.5574 29.2058 10.5587Z" fill="#2EA0DA"/>
<path d="M51.7685 16.2084C51.5454 16.2066 51.3316 16.1189 51.1715 15.9637C47.5935 12.5437 42.9902 10.3945 38.0706 9.84718C37.8418 9.82141 37.6327 9.70583 37.4892 9.52588C37.3456 9.34593 37.2795 9.11634 37.3053 8.88762C37.331 8.6589 37.4466 8.44979 37.6266 8.30628C37.8066 8.16278 38.0362 8.09663 38.265 8.1224C43.5597 8.71127 48.5141 11.0238 52.3655 14.704C52.4915 14.8234 52.5789 14.9778 52.6162 15.1474C52.6535 15.3169 52.6391 15.4938 52.5748 15.6551C52.5105 15.8164 52.3993 15.9546 52.2555 16.052C52.1118 16.1494 51.9421 16.2015 51.7685 16.2014V16.2084Z" fill="#2EA0DA"/>
<path d="M35.4969 39.2152C34.1686 39.2152 32.8701 38.8214 31.7656 38.0835C30.6612 37.3457 29.8003 36.2969 29.292 35.0699C28.7837 33.8428 28.6507 32.4926 28.9098 31.19C29.169 29.8874 29.8086 28.6909 30.7479 27.7517C31.6872 26.8126 32.8839 26.1731 34.1867 25.9139C35.4895 25.6548 36.8399 25.7878 38.0671 26.2961C39.2943 26.8043 40.3433 27.665 41.0812 28.7693C41.8192 29.8736 42.2131 31.1719 42.2131 32.5001C42.2108 34.2803 41.5025 35.987 40.2435 37.2459C38.9844 38.5047 37.2775 39.2129 35.4969 39.2152ZM35.4969 27.5201C34.5118 27.5201 33.5489 27.8122 32.7298 28.3594C31.9107 28.9066 31.2723 29.6843 30.8953 30.5943C30.5184 31.5043 30.4197 32.5056 30.6119 33.4716C30.8041 34.4376 31.2785 35.325 31.975 36.0215C32.6716 36.7179 33.5591 37.1922 34.5252 37.3844C35.4914 37.5765 36.4929 37.4779 37.403 37.101C38.3131 36.7241 39.091 36.0858 39.6383 35.2668C40.1856 34.4479 40.4777 33.485 40.4777 32.5001C40.4763 31.1797 39.9511 29.9138 39.0173 28.9802C38.0836 28.0466 36.8175 27.5215 35.4969 27.5201Z" fill="#2EA0DA"/>
<path d="M2.10879 61.9582C1.70828 61.9561 1.31655 61.8406 0.979017 61.625C0.551449 61.3631 0.234224 60.9541 0.0869138 60.4749C-0.0603969 59.9956 -0.0276602 59.4791 0.178977 59.0223L7.38282 42.3853L2.04805 41.7242C1.61814 41.6514 1.21541 41.4653 0.881374 41.1851C0.547336 40.9049 0.29407 40.5407 0.147672 40.13C0.00127487 39.7193 -0.0329581 39.2771 0.0485009 38.8488C0.12996 38.4205 0.324165 38.0216 0.611103 37.6934L0.63887 37.6639L23.6023 13.373C23.9317 12.9911 24.3884 12.7418 24.8878 12.6712C25.3872 12.6005 25.8952 12.7135 26.3175 12.9891C26.7399 13.2647 27.0479 13.6842 27.1843 14.1696C27.3207 14.6551 27.2763 15.1736 27.0593 15.6288L19.2915 32.5902L24.9317 33.3155C25.3621 33.3882 25.7653 33.5744 26.0996 33.8549C26.434 34.1355 26.6874 34.5002 26.8337 34.9114C26.98 35.3226 27.0138 35.7654 26.9318 36.194C26.8497 36.6227 26.6547 37.0217 26.3669 37.3498L26.3391 37.3793L3.64466 61.252C3.4529 61.4713 3.21693 61.6475 2.95224 61.7692C2.68755 61.891 2.40012 61.9553 2.10879 61.9582ZM2.08276 59.8638H2.09144L2.11921 59.8326L24.8171 35.9651C24.8567 35.916 24.8831 35.8576 24.8938 35.7954C24.9044 35.7331 24.899 35.6692 24.8779 35.6098C24.8569 35.5503 24.8209 35.4971 24.7735 35.4555C24.7261 35.4138 24.6688 35.385 24.6071 35.3717L16.218 34.3028L25.1642 14.7681H25.1538L25.126 14.7993L2.16953 39.0746C2.1299 39.1237 2.1035 39.1821 2.09285 39.2443C2.08221 39.3065 2.08767 39.3704 2.10873 39.4299C2.12978 39.4894 2.16572 39.5425 2.21312 39.5842C2.26053 39.6259 2.31781 39.6547 2.37952 39.668L10.3973 40.6709L2.09144 59.8638H2.08276Z" fill="#4FBA6D"/>
<path d="M39.485 29.1146C39.3132 29.115 39.1451 29.0642 39.0021 28.9689C38.8591 28.8736 38.7477 28.738 38.6819 28.5793C38.6161 28.4206 38.5989 28.2459 38.6325 28.0774C38.6661 27.9089 38.749 27.7541 38.8706 27.6328L52.8288 13.6784C52.9089 13.5956 53.0046 13.5295 53.1105 13.484C53.2164 13.4385 53.3302 13.4146 53.4454 13.4136C53.5606 13.4126 53.6749 13.4346 53.7816 13.4782C53.8882 13.5218 53.9851 13.5862 54.0665 13.6677C54.148 13.7491 54.2124 13.846 54.2561 13.9526C54.2997 14.0593 54.3217 14.1735 54.3207 14.2887C54.3197 14.4039 54.2957 14.5177 54.2502 14.6236C54.2048 14.7294 54.1387 14.8252 54.0558 14.9052L40.0976 28.8596C39.9353 29.0224 39.7149 29.1141 39.485 29.1146Z" fill="#2EA0DA"/>
</g>
<defs>
<clipPath id="clip0">
<rect width="68" height="65" fill="white"/>
</clipPath>
</defs>
</svg>
