<?xml version="1.0"?>
<svg xmlns="http://www.w3.org/2000/svg" width="22" height="23" viewBox="0 0 22 23" fill="none">
<path d="M16.4515 11.402C16.4117 11.2797 16.3483 11.1665 16.2647 11.0687C16.1811 10.971 16.0791 10.8906 15.9645 10.8323C15.8499 10.774 15.7249 10.7388 15.5967 10.7288C15.4685 10.7188 15.3396 10.7341 15.2173 10.7739L14.2295 11.094C14.0117 10.4208 13.7785 9.70474 13.5585 9.03154L14.5463 8.71144C14.6687 8.67171 14.7821 8.60826 14.88 8.52471C14.9779 8.44116 15.0584 8.33914 15.1169 8.22449C15.1754 8.10983 15.2107 7.98478 15.2209 7.85647C15.231 7.72816 15.2158 7.59911 15.1761 7.47669C15.1363 7.35426 15.0729 7.24086 14.9893 7.14296C14.9058 7.04505 14.8038 6.96456 14.6891 6.90609C14.5745 6.84761 14.4494 6.81229 14.3211 6.80214C14.1928 6.79199 14.0637 6.80721 13.9413 6.84694L12.9535 7.16814L12.6323 6.18144C12.5926 6.05916 12.5292 5.9459 12.4457 5.84813C12.3622 5.75036 12.2602 5.66999 12.1457 5.61161C12.0311 5.55324 11.9062 5.518 11.778 5.5079C11.6498 5.49781 11.5209 5.51306 11.3987 5.55279C11.2764 5.59251 11.1631 5.65593 11.0653 5.73943C10.9676 5.82292 10.8872 5.92486 10.8288 6.03941C10.7705 6.15397 10.7352 6.2789 10.7251 6.40707C10.715 6.53525 10.7303 6.66416 10.77 6.78644L11.0912 7.77424L9.02871 8.44524L8.70751 7.45744C8.62728 7.21033 8.45218 7.00522 8.22072 6.88723C7.98926 6.76923 7.72041 6.74801 7.47331 6.82824C7.2262 6.90847 7.02109 7.08357 6.9031 7.31503C6.7851 7.54648 6.76388 7.81533 6.84411 8.06244L7.16531 9.05024L6.14671 9.38134C5.91287 9.46571 5.71989 9.63589 5.60693 9.85733C5.49396 10.0788 5.46946 10.3349 5.53841 10.5737C5.68801 11.0929 6.24021 11.4097 6.75171 11.2447L7.77031 10.9125L8.44131 12.975L7.42161 13.3072C7.18818 13.3918 6.99555 13.5619 6.88264 13.783C6.76973 14.0041 6.74495 14.2598 6.81331 14.4985C6.96401 15.0188 7.51621 15.3367 8.02661 15.1695C8.03101 15.1695 8.43141 15.0386 9.04631 14.8395L9.37741 15.857C9.462 16.0907 9.63221 16.2835 9.85359 16.3965C10.075 16.5094 10.331 16.534 10.5698 16.4653C11.089 16.3157 11.4069 15.7635 11.2408 15.252C11.2397 15.2487 11.1088 14.8483 10.9108 14.2334C11.584 14.0145 12.3001 13.7824 12.9722 13.5624L13.3033 14.5821C13.3879 14.8158 13.5581 15.0086 13.7795 15.1216C14.0009 15.2345 14.2569 15.2591 14.4957 15.1904C15.016 15.0397 15.3328 14.4875 15.1667 13.9771L14.8356 12.9585L15.8223 12.6373C15.9447 12.5976 16.0581 12.534 16.156 12.4504C16.2539 12.3668 16.3344 12.2647 16.3928 12.15C16.4512 12.0353 16.4865 11.9102 16.4966 11.7819C16.5066 11.6535 16.4913 11.5245 16.4515 11.402ZM10.3047 12.37L9.63371 10.3075C10.308 10.0897 11.0241 9.85654 11.6962 9.63764L12.3672 11.7001L10.3047 12.3711V12.37Z" fill="white"/>
<path d="M11 19.8039C13.3339 19.8039 15.5722 18.8768 17.2225 17.2264C18.8729 15.5761 19.8 13.3378 19.8 11.0039C19.8 8.67 18.8729 6.43169 17.2225 4.78137C15.5722 3.13105 13.3339 2.20391 11 2.20391C8.66609 2.20391 6.42778 3.13105 4.77746 4.78137C3.12714 6.43169 2.2 8.67 2.2 11.0039C2.2 13.3378 3.12714 15.5761 4.77746 17.2264C6.42778 18.8768 8.66609 19.8039 11 19.8039ZM11 22.0039C4.9247 22.0039 0 17.0792 0 11.0039C0 4.92861 4.9247 0.00390625 11 0.00390625C17.0753 0.00390625 22 4.92861 22 11.0039C22 17.0792 17.0753 22.0039 11 22.0039Z" fill="white"/>
</svg>
