<?xml version="1.0"?>
<svg xmlns="http://www.w3.org/2000/svg" width="62" height="47" viewBox="0 0 62 47" fill="none">
<path d="M27.4483 41.2898H1.67383V1.25488H61.0001V41.2898H35.1961" stroke="#3BA1DA" stroke-width="2" stroke-miterlimit="10" stroke-linecap="round"/>
<path d="M43.4029 15.2979H19.6707C17.5313 15.2979 15.7969 17.0322 15.7969 19.1717V24.1774C15.7969 26.3169 17.5313 28.0513 19.6707 28.0513H43.4029C45.5424 28.0513 47.2768 26.3169 47.2768 24.1774V19.1717C47.2768 17.0322 45.5424 15.2979 43.4029 15.2979Z" stroke="#56BB6D" stroke-width="2" stroke-miterlimit="10" stroke-linecap="round"/>
<path d="M7.56504 8.68038C8.72441 8.68038 9.66427 7.74053 9.66427 6.58116C9.66427 5.42179 8.72441 4.48193 7.56504 4.48193C6.40567 4.48193 5.46582 5.42179 5.46582 6.58116C5.46582 7.74053 6.40567 8.68038 7.56504 8.68038Z" stroke="#3BA1DA" stroke-width="2" stroke-miterlimit="10" stroke-linecap="round"/>
<path d="M14.6676 8.68038C15.827 8.68038 16.7668 7.74053 16.7668 6.58116C16.7668 5.42179 15.827 4.48193 14.6676 4.48193C13.5082 4.48193 12.5684 5.42179 12.5684 6.58116C12.5684 7.74053 13.5082 8.68038 14.6676 8.68038Z" stroke="#3BA1DA" stroke-width="2" stroke-miterlimit="10" stroke-linecap="round"/>
<path d="M21.7696 8.68038C22.929 8.68038 23.8689 7.74053 23.8689 6.58116C23.8689 5.42179 22.929 4.48193 21.7696 4.48193C20.6103 4.48193 19.6704 5.42179 19.6704 6.58116C19.6704 7.74053 20.6103 8.68038 21.7696 8.68038Z" stroke="#3BA1DA" stroke-width="2" stroke-miterlimit="10" stroke-linecap="round"/>
<path d="M47.269 21.2715H50.578C51.4131 21.2715 52.214 21.6032 52.8045 22.1938C53.395 22.7843 53.7268 23.5852 53.7268 24.4203V30.5009C53.7268 31.336 53.395 32.1369 52.8045 32.7275C52.214 33.318 51.4131 33.6497 50.578 33.6497H34.309C33.4742 33.6497 32.6736 33.9812 32.0832 34.5713C31.4927 35.1613 31.1607 35.9617 31.1602 36.7965V45.7561" stroke="#56BB6D" stroke-width="2" stroke-miterlimit="10" stroke-linecap="round"/>
<path d="M15.635 21.4336H12.5684" stroke="#56BB6D" stroke-width="2" stroke-miterlimit="10" stroke-linecap="round"/>
</svg>
