<?xml version="1.0"?>
<svg xmlns="http://www.w3.org/2000/svg" width="64" height="64" viewBox="0 0 64 64" fill="none">
<path d="M32.739 62.6387C49.528 62.6387 63.1382 49.0285 63.1382 32.2395C63.1382 15.4505 49.528 1.84033 32.739 1.84033C15.95 1.84033 2.33984 15.4505 2.33984 32.2395C2.33984 49.0285 15.95 62.6387 32.739 62.6387Z" fill="white"/>
<path d="M32.0002 62.8351C14.9968 62.8351 1.16504 49.0017 1.16504 31.9999C1.16504 14.9982 14.9968 1.16479 32.0002 1.16479C49.0036 1.16479 62.8353 14.9965 62.8353 31.9999C62.8353 49.0034 49.002 62.8351 32.0002 62.8351ZM32.0002 2.16323C15.5476 2.16323 2.16348 15.5473 2.16348 31.9999C2.16348 48.4526 15.5476 61.8367 32.0002 61.8367C48.4528 61.8367 61.8369 48.4509 61.8369 31.9999C61.8369 15.549 48.4512 2.16323 32.0002 2.16323Z" fill="#A9A9AC"/>
<path d="M32.0002 6.41821C17.8939 6.41821 6.41846 17.9003 6.41846 31.9999C6.41846 46.0995 17.8939 57.5766 32.0002 57.5766C46.1064 57.5766 57.5768 46.1045 57.5768 31.9999C57.5768 17.8953 46.1048 6.41821 32.0002 6.41821Z" fill="#3BA1DA"/>
<path d="M31.6556 38.0905L13.8218 27.0677L31.6556 16.0466L49.491 27.0677L31.6556 38.0905Z" fill="white"/>
<path d="M31.6557 39.0888C31.4705 39.0884 31.289 39.0366 31.1316 38.939L13.2961 27.9179C13.1512 27.8284 13.0317 27.7034 12.9487 27.5547C12.8658 27.4061 12.8223 27.2386 12.8223 27.0684C12.8223 26.8981 12.8658 26.7307 12.9487 26.582C13.0317 26.4333 13.1512 26.3083 13.2961 26.2189L31.1316 15.1978C31.2893 15.1002 31.4711 15.0486 31.6566 15.0486C31.842 15.0486 32.0238 15.1002 32.1816 15.1978L50.0154 26.2189C50.1602 26.3083 50.2798 26.4333 50.3627 26.582C50.4457 26.7307 50.4892 26.8981 50.4892 27.0684C50.4892 27.2386 50.4457 27.4061 50.3627 27.5547C50.2798 27.7034 50.1602 27.8284 50.0154 27.9179L32.1816 38.939C32.0236 39.0369 31.8415 39.0887 31.6557 39.0888ZM15.7206 27.0675L31.6557 36.9155L47.5925 27.0675L31.6557 17.2196L15.7206 27.0675Z" fill="white"/>
<path d="M31.6557 44.6187C31.4705 44.6184 31.289 44.5666 31.1316 44.469L13.2961 33.4479C13.1512 33.3584 13.0317 33.2334 12.9487 33.0847C12.8658 32.936 12.8223 32.7686 12.8223 32.5984C12.8223 32.4281 12.8658 32.2607 12.9487 32.112C13.0317 31.9633 13.1512 31.8383 13.2961 31.7489L17.611 29.0863C17.8361 28.954 18.1041 28.9151 18.3575 28.978C18.6109 29.0409 18.8296 29.2006 18.9667 29.4228C19.1038 29.645 19.1484 29.912 19.091 30.1668C19.0335 30.4215 18.8786 30.6435 18.6594 30.7854L15.7206 32.5975L31.6557 42.4455L47.5925 32.5975L44.494 30.6838C44.2687 30.5446 44.1079 30.3216 44.0471 30.0638C43.9862 29.806 44.0303 29.5346 44.1695 29.3093C44.3088 29.084 44.5318 28.9233 44.7896 28.8624C45.0473 28.8016 45.3187 28.8456 45.544 28.9848L50.0154 31.7489C50.1602 31.8383 50.2798 31.9633 50.3627 32.112C50.4457 32.2607 50.4892 32.4281 50.4892 32.5984C50.4892 32.7686 50.4457 32.936 50.3627 33.0847C50.2798 33.2334 50.1602 33.3584 50.0154 33.4479L32.1816 44.469C32.0236 44.5668 31.8415 44.6187 31.6557 44.6187Z" fill="white"/>
<path d="M31.6557 50.1483C31.4705 50.1479 31.289 50.0961 31.1316 49.9985L13.2961 38.9774C13.1512 38.8879 13.0317 38.7629 12.9487 38.6142C12.8658 38.4656 12.8223 38.2981 12.8223 38.1279C12.8223 37.9576 12.8658 37.7902 12.9487 37.6415C13.0317 37.4928 13.1512 37.3678 13.2961 37.2784L17.4113 34.7357C17.5234 34.6667 17.648 34.6205 17.778 34.5997C17.9079 34.579 18.0407 34.584 18.1687 34.6145C18.2968 34.645 18.4175 34.7004 18.5241 34.7776C18.6307 34.8548 18.7211 34.9522 18.79 35.0643C18.859 35.1764 18.9051 35.301 18.9259 35.431C18.9467 35.5609 18.9417 35.6937 18.9112 35.8217C18.8807 35.9498 18.8253 36.0705 18.7481 36.1771C18.6709 36.2837 18.5735 36.3741 18.4614 36.443L15.7206 38.1271L31.6557 47.975L47.5925 38.1271L44.8518 36.443C44.6265 36.3038 44.4657 36.0807 44.4049 35.823C44.344 35.5652 44.388 35.2938 44.5273 35.0685C44.6665 34.8432 44.8896 34.6824 45.1473 34.6216C45.4051 34.5607 45.6765 34.6048 45.9018 34.744L50.0154 37.275C50.1602 37.3645 50.2798 37.4895 50.3627 37.6382C50.4457 37.7869 50.4892 37.9543 50.4892 38.1246C50.4892 38.2948 50.4457 38.4622 50.3627 38.6109C50.2798 38.7596 50.1602 38.8846 50.0154 38.9741L32.1816 49.9985C32.0236 50.0964 31.8415 50.1482 31.6557 50.1483Z" fill="white"/>
</svg>
