<?xml version="1.0"?>
<svg xmlns="http://www.w3.org/2000/svg" width="72" height="65" viewBox="0 0 72 65" fill="none">
<g clip-path="url(#clip0)">
<path d="M39.8396 65C32.3746 64.9964 25.1427 62.3724 19.3805 57.5769C19.2049 57.4303 19.0942 57.2193 19.0726 56.9902C19.051 56.7611 19.1204 56.5327 19.2655 56.3553C19.4105 56.1779 19.6194 56.066 19.8461 56.0442C20.0728 56.0224 20.2988 56.0925 20.4744 56.2391C25.9287 60.7778 32.7738 63.2613 39.8396 63.2648C56.6272 63.2648 70.2861 49.4632 70.2861 32.5C70.2861 15.5368 56.6238 1.73518 39.8396 1.73518C24.7537 1.73518 12.1063 12.6426 9.76232 27.6727C9.71271 27.8859 9.58514 28.0723 9.4052 28.1944C9.22526 28.3165 9.00627 28.3654 8.79218 28.3311C8.57809 28.2968 8.38475 28.182 8.25095 28.0097C8.11716 27.8374 8.05282 27.6203 8.07085 27.402C9.27316 19.7619 13.1326 12.8055 18.9556 7.78286C24.7787 2.76023 32.1835 0.000640511 39.8396 0C57.5751 0 72.0033 14.5755 72.0033 32.5C72.0033 50.4245 57.5717 65 39.8396 65Z" fill="#2EA0DA"/>
<path d="M55.6383 35.9582H31.6846C31.4114 35.9582 31.1493 35.8485 30.9561 35.6533C30.7628 35.458 30.6543 35.1932 30.6543 34.9171C30.6543 34.641 30.7628 34.3762 30.9561 34.1809C31.1493 33.9857 31.4114 33.876 31.6846 33.876H54.917L59.3543 21.9206H29.399C29.1257 21.9206 28.8637 21.8109 28.6704 21.6157C28.4772 21.4204 28.3687 21.1556 28.3687 20.8795C28.3687 20.6034 28.4772 20.3386 28.6704 20.1433C28.8637 19.9481 29.1257 19.8384 29.399 19.8384H60.8415C61.0077 19.8387 61.1714 19.8796 61.3186 19.9577C61.4657 20.0357 61.592 20.1486 61.6867 20.2867C61.7813 20.4248 61.8415 20.584 61.8621 20.7506C61.8826 20.9173 61.863 21.0865 61.8048 21.2439L56.5965 35.2832C56.5231 35.4805 56.3923 35.6507 56.2212 35.7712C56.0501 35.8917 55.8468 35.9569 55.6383 35.9582Z" fill="#4FBA6D"/>
<path d="M57.0016 43.5306H32.8728C32.6292 43.5307 32.3934 43.4437 32.2073 43.2848C32.0212 43.126 31.8968 42.9057 31.8562 42.663L27.3416 16.1008H20.9879C20.7146 16.1008 20.4525 15.9911 20.2593 15.7958C20.0661 15.6006 19.9575 15.3358 19.9575 15.0597C19.9575 14.7835 20.0661 14.5187 20.2593 14.3235C20.4525 14.1282 20.7146 14.0186 20.9879 14.0186H28.2088C28.4524 14.0184 28.6882 14.1055 28.8743 14.2643C29.0604 14.4231 29.1848 14.6434 29.2254 14.8861L33.7383 41.4501H57.0016C57.2749 41.4501 57.5369 41.5598 57.7302 41.755C57.9234 41.9503 58.0319 42.2151 58.0319 42.4912C58.0319 42.7673 57.9234 43.0321 57.7302 43.2274C57.5369 43.4226 57.2749 43.5323 57.0016 43.5323V43.5306Z" fill="#4FBA6D"/>
<path d="M36.4825 53.9643C35.6547 53.9646 34.8455 53.7169 34.157 53.2524C33.4686 52.788 32.932 52.1277 32.6149 51.355C32.2979 50.5824 32.2148 49.7321 32.3761 48.9117C32.5374 48.0913 32.9358 47.3377 33.521 46.7461C34.1062 46.1546 34.8519 45.7516 35.6637 45.5883C36.4756 45.425 37.3171 45.5087 38.0819 45.8287C38.8467 46.1487 39.5004 46.6907 39.9603 47.3861C40.4202 48.0816 40.6657 48.8992 40.6657 49.7356C40.6648 50.8565 40.2238 51.9313 39.4396 52.7241C38.6553 53.5169 37.5918 53.9629 36.4825 53.9643ZM36.4825 47.5909C36.0622 47.5906 35.6513 47.7162 35.3017 47.9519C34.9521 48.1877 34.6796 48.5229 34.5186 48.9151C34.3576 49.3074 34.3154 49.7391 34.3973 50.1557C34.4792 50.5722 34.6816 50.9548 34.9787 51.2551C35.2759 51.5554 35.6546 51.7598 36.0668 51.8426C36.479 51.9254 36.9063 51.8827 37.2945 51.72C37.6827 51.5574 38.0144 51.282 38.2477 50.9287C38.481 50.5755 38.6053 50.1603 38.605 49.7356C38.6036 49.1675 38.3795 48.6232 37.9816 48.2218C37.5838 47.8205 37.0447 47.5948 36.4825 47.5944V47.5909Z" fill="#4FBA6D"/>
<path d="M50.9244 53.9643C50.0966 53.9646 49.2874 53.7169 48.5989 53.2524C47.9105 52.788 47.3738 52.1277 47.0568 51.355C46.7398 50.5824 46.6567 49.7321 46.818 48.9117C46.9793 48.0913 47.3777 47.3377 47.9629 46.7461C48.5481 46.1546 49.2938 45.7516 50.1056 45.5883C50.9175 45.425 51.759 45.5087 52.5238 45.8287C53.2886 46.1487 53.9423 46.6907 54.4022 47.3861C54.8621 48.0816 55.1076 48.8992 55.1076 49.7356C55.1067 50.8565 54.6657 51.9313 53.8814 52.7241C53.0972 53.5169 52.0337 53.9629 50.9244 53.9643ZM50.9244 47.5909C50.5041 47.5906 50.0932 47.7162 49.7436 47.9519C49.394 48.1877 49.1215 48.5229 48.9605 48.9151C48.7995 49.3074 48.7573 49.7391 48.8392 50.1557C48.9211 50.5722 49.1235 50.9548 49.4206 51.2551C49.7178 51.5554 50.0965 51.7598 50.5087 51.8426C50.9209 51.9254 51.3482 51.8827 51.7364 51.72C52.1246 51.5574 52.4563 51.282 52.6896 50.9287C52.9229 50.5755 53.0472 50.1603 53.0469 49.7356C53.0451 49.1677 52.8208 48.6236 52.423 48.2223C52.0253 47.8211 51.4864 47.5953 50.9244 47.5944V47.5909Z" fill="#4FBA6D"/>
<path d="M16.3034 57.8788C11.9795 57.8788 7.83262 56.1432 4.77515 53.0538C1.71767 49.9643 0 45.7741 0 41.405C0 37.0359 1.71767 32.8457 4.77515 29.7562C7.83262 26.6668 11.9795 24.9312 16.3034 24.9312C16.5311 24.9312 16.7495 25.0226 16.9105 25.1853C17.0715 25.348 17.162 25.5686 17.162 25.7987C17.162 26.0288 17.0715 26.2495 16.9105 26.4122C16.7495 26.5749 16.5311 26.6663 16.3034 26.6663C13.8608 26.6664 11.4573 27.2862 9.31341 28.469C7.16955 29.6518 5.35398 31.3597 4.03329 33.436C2.71259 35.5122 1.92906 37.8904 1.75459 40.3522C1.58012 42.8141 2.02029 45.2808 3.03472 47.526C4.04914 49.7713 5.60534 51.7231 7.56053 53.2025C9.51571 54.6819 11.8073 55.6415 14.225 55.9932C16.6426 56.3449 19.109 56.0775 21.3978 55.2155C23.6866 54.3535 25.7245 52.9245 27.3246 51.0596C27.3985 50.9735 27.4885 50.9031 27.5894 50.8522C27.6904 50.8013 27.8002 50.7711 27.9127 50.7631C28.0252 50.7551 28.1382 50.7696 28.2451 50.8057C28.3521 50.8419 28.4509 50.8989 28.5361 50.9737C28.6212 51.0484 28.6909 51.1394 28.7413 51.2413C28.7916 51.3433 28.8216 51.4543 28.8295 51.568C28.8374 51.6816 28.823 51.7958 28.7873 51.9038C28.7515 52.0119 28.695 52.1118 28.6211 52.1978C27.0901 53.9807 25.1981 55.4105 23.0731 56.3906C20.948 57.3707 18.6394 57.8782 16.3034 57.8788Z" fill="#2EA0DA"/>
<path d="M16.6898 32.7689V34.1727C17.9434 34.3115 19.0373 34.7366 19.7122 35.2902C19.8099 35.374 19.8885 35.4782 19.9428 35.5956C19.997 35.713 20.0255 35.8408 20.0264 35.9704C20.0282 36.0833 20.0078 36.1956 19.9664 36.3005C19.925 36.4055 19.8633 36.5011 19.7851 36.5818C19.7068 36.6625 19.6134 36.7267 19.5104 36.7707C19.4074 36.8146 19.2968 36.8375 19.185 36.8379C18.9608 36.8238 18.7452 36.7456 18.5633 36.6124C17.7618 36.0833 16.8263 35.799 15.869 35.7934C13.4271 35.7934 12.7951 36.9421 12.7951 38.0265C12.7951 39.5257 13.944 39.8554 16.2588 40.3552C19.4374 41.0492 21.0276 42.0782 21.0276 44.5196C21.0276 46.6574 19.1953 48.2624 16.6898 48.3908V49.7946C16.6942 49.9005 16.6774 50.0063 16.6402 50.1055C16.6031 50.2047 16.5465 50.2953 16.4738 50.3718C16.4012 50.4483 16.3139 50.5092 16.2173 50.5508C16.1208 50.5923 16.0169 50.6137 15.9119 50.6136C15.7036 50.6046 15.5069 50.5141 15.3633 50.3613C15.2198 50.2085 15.1406 50.0053 15.1426 49.7946V48.3474C13.5215 48.1739 12.2491 47.6152 11.3115 46.902C11.1819 46.8212 11.0745 46.7087 10.9992 46.575C10.9239 46.4413 10.8831 46.2906 10.8804 46.1368C10.8791 46.0239 10.8998 45.9119 10.9414 45.8072C10.983 45.7024 11.0446 45.607 11.1228 45.5264C11.201 45.4458 11.2942 45.3816 11.397 45.3374C11.4998 45.2933 11.6102 45.2701 11.7219 45.2692C11.9651 45.2759 12.1988 45.3658 12.3847 45.5243C13.3962 46.2479 14.4591 46.7389 15.9634 46.7389C18.0911 46.7389 19.2794 45.9945 19.2794 44.5474C19.2794 43.1002 18.4586 42.5797 15.4912 41.9446C12.3847 41.2627 11.0487 40.1886 11.0487 38.0196C11.0487 35.8506 12.7007 34.3757 15.1426 34.1692V32.7811C15.1388 32.5689 15.217 32.3635 15.3607 32.2086C15.5043 32.0537 15.7021 31.9616 15.9119 31.9517C16.0161 31.9537 16.1189 31.9764 16.2144 32.0186C16.3099 32.0608 16.3962 32.1216 16.4684 32.1975C16.5407 32.2734 16.5974 32.3629 16.6354 32.4609C16.6734 32.559 16.6919 32.6637 16.6898 32.7689Z" fill="#2EA0DA"/>
</g>
<defs>
<clipPath id="clip0">
<rect width="72" height="65" fill="white"/>
</clipPath>
</defs>
</svg>
