<?xml version="1.0"?>
<svg xmlns="http://www.w3.org/2000/svg" width="283" height="43" viewBox="0 0 283 43" fill="none">
<g clip-path="url(#clip0)">
<path d="M72.0822 23.0248C71.1239 24.3429 69.7957 25.2755 68.0975 25.8227L71.4044 31.922H66.7721L63.7875 26.3854H60.0486L58.9898 31.9197H54.5708L58.3661 12.1528H66.0944C68.4437 12.1528 70.2692 12.6893 71.5706 13.7623C72.872 14.8354 73.5225 16.3416 73.522 18.2809C73.5199 20.1259 73.04 21.7072 72.0822 23.0248ZM67.8672 21.6974C68.671 21.001 69.0731 20.0034 69.0736 18.7045C69.0736 17.7635 68.7663 17.0576 68.1516 16.5866C67.537 16.1157 66.6611 15.8802 65.524 15.8802H62.054L60.7256 22.7427H64.4668C65.9295 22.7427 67.063 22.3943 67.8672 21.6974Z" fill="#3BA1DA"/>
<path d="M89.8098 25.5095H78.6418C78.786 27.582 80.0419 28.6182 82.4093 28.6182C83.1345 28.6211 83.8547 28.497 84.5376 28.2514C85.1914 28.0214 85.7949 27.6667 86.3151 27.2069L88.0771 30.1151C87.2525 30.799 86.3044 31.3168 85.2849 31.6399C84.2158 31.982 83.1 32.1535 81.978 32.1482C80.4777 32.1482 79.1639 31.8705 78.0366 31.3151C76.9094 30.7596 76.0397 29.9635 75.4276 28.9268C74.8227 27.8905 74.52 26.695 74.5195 25.3401C74.5195 23.6655 74.8856 22.1549 75.6177 20.8083C76.3227 19.4898 77.3786 18.3946 78.6673 17.6452C79.9677 16.8825 81.4494 16.5014 83.1125 16.502C84.5222 16.502 85.7466 16.7747 86.7858 17.3203C87.8028 17.8444 88.6428 18.6594 89.2 19.6628C89.7668 20.6793 90.0501 21.856 90.0501 23.1927C90.0429 23.9709 89.9624 24.7466 89.8098 25.5095ZM80.4038 20.6389C79.7165 21.1938 79.2286 21.9609 78.9401 22.9401H86.1775C86.1775 21.9614 85.8839 21.1943 85.2965 20.6389C84.7092 20.0835 83.9183 19.8058 82.924 19.8058C81.9301 19.8058 81.0901 20.0835 80.4038 20.6389Z" fill="#3BA1DA"/>
<path d="M108.947 16.7273L106.047 31.9197H102.035L102.306 30.4236C101.094 31.5718 99.6035 32.1458 97.8332 32.1458C96.7316 32.1558 95.6469 31.8732 94.6886 31.3267C93.7212 30.7711 92.9277 29.9543 92.398 28.9687C91.8312 27.9428 91.5479 26.7333 91.5479 25.34C91.5479 23.6655 91.9049 22.1549 92.619 20.8083C93.3331 19.4617 94.3045 18.4073 95.5333 17.6451C96.7538 16.885 98.1636 16.4886 99.5991 16.5019C101.839 16.5019 103.42 17.2643 104.343 18.7892L104.722 16.7273H108.947ZM101.357 27.8674C102.017 27.4333 102.543 26.8218 102.875 26.1025C103.236 25.3501 103.416 24.4844 103.416 23.5051C103.416 22.4689 103.122 21.65 102.535 21.0484C101.948 20.4469 101.13 20.1456 100.081 20.1446C99.2937 20.1317 98.5206 20.3525 97.858 20.7795C97.1981 21.2138 96.6723 21.8252 96.3401 22.5445C95.9795 23.2979 95.7991 24.1639 95.7991 25.1426C95.7991 26.1789 96.0928 26.9978 96.6802 27.5993C97.2675 28.2009 98.0854 28.5021 99.1339 28.5032C99.9211 28.5159 100.694 28.2947 101.357 27.8674Z" fill="#3BA1DA"/>
<path d="M113.718 31.2987C112.597 30.7335 111.734 29.9381 111.129 28.9128C110.523 27.8874 110.221 26.6957 110.221 25.3377C110.221 23.6632 110.6 22.1572 111.359 20.82C112.107 19.4937 113.203 18.3995 114.528 17.6568C115.883 16.8848 117.41 16.4991 119.109 16.4996C120.663 16.4996 122.004 16.8335 123.134 17.5014C124.253 18.1582 125.139 19.1507 125.669 20.3397L122.09 22.2049C121.458 20.8308 120.374 20.1438 118.838 20.1438C118.047 20.1322 117.269 20.3529 116.601 20.7788C115.933 21.2115 115.398 21.8227 115.055 22.5438C114.685 23.2971 114.499 24.1538 114.5 25.1139C114.5 26.1502 114.798 26.9737 115.394 27.5846C115.99 28.1954 116.821 28.5014 117.888 28.5024C119.442 28.5024 120.634 27.8247 121.466 26.4693L124.584 28.5024C123.884 29.6459 122.886 30.574 121.697 31.1853C120.477 31.8251 119.126 32.1451 117.644 32.1451C116.146 32.1456 114.837 31.8635 113.718 31.2987Z" fill="#3BA1DA"/>
<path d="M131.933 26.5548C131.892 26.7594 131.874 26.9679 131.879 27.1766C131.879 28.1558 132.394 28.6455 133.425 28.6455C133.985 28.6455 134.555 28.4664 135.133 28.1084L135.756 31.2428C134.816 31.8459 133.605 32.1472 132.124 32.1467C130.751 32.1467 129.649 31.7703 128.817 31.0174C127.986 30.2646 127.57 29.2283 127.571 27.9087C127.577 27.4631 127.623 27.0189 127.706 26.5813L128.871 20.4532H126.622L127.272 17.0646H129.522L130.227 13.3652H134.456L133.751 17.0646H137.383L136.732 20.4532H133.1L131.933 26.5548Z" fill="#3BA1DA"/>
<path d="M140.553 31.6376C139.18 31.2231 138.078 30.6959 137.247 30.056L139.036 26.526C139.92 27.1949 140.91 27.7103 141.963 28.0509C143.039 28.4076 144.164 28.5889 145.297 28.5879C146.508 28.5879 147.466 28.3806 148.17 27.9661C148.875 27.5517 149.227 26.9869 149.228 26.2719C149.228 25.689 148.948 25.2421 148.388 24.9312C147.828 24.6204 146.933 24.2862 145.704 23.9287C144.475 23.552 143.472 23.1893 142.695 22.8406C141.908 22.4855 141.216 21.9484 140.676 21.273C140.106 20.5767 139.823 19.6542 139.825 18.5055C139.825 17.1698 140.182 15.9934 140.896 14.9763C141.609 13.9592 142.622 13.1779 143.932 12.6323C145.24 12.0862 146.761 11.8132 148.496 11.8132C149.72 11.8061 150.94 11.9531 152.128 12.2507C153.267 12.5429 154.243 12.9618 155.056 13.5074L153.406 17.0102C152.682 16.4928 151.875 16.1057 151.02 15.8662C150.12 15.6102 149.19 15.482 148.255 15.4854C147.008 15.4854 146.024 15.7113 145.3 16.1631C144.577 16.6149 144.216 17.1983 144.218 17.9133C144.214 18.1174 144.253 18.32 144.333 18.5076C144.413 18.6953 144.532 18.8636 144.682 19.0013C145.02 19.3125 145.417 19.5527 145.848 19.7078C146.317 19.8865 146.977 20.0982 147.827 20.3428C149.037 20.6816 150.031 21.0251 150.808 21.3733C151.581 21.7191 152.264 22.2412 152.801 22.8981C153.352 23.5675 153.628 24.4484 153.627 25.5406C153.627 26.896 153.267 28.0773 152.545 29.0845C151.824 30.0917 150.803 30.8731 149.483 31.4285C148.163 31.9834 146.627 32.2609 144.874 32.2609C143.411 32.2672 141.956 32.0572 140.553 31.6376Z" fill="#56BB6D"/>
<path d="M161.018 26.5548C160.977 26.7593 160.959 26.9679 160.964 27.1766C160.964 28.1558 161.48 28.6454 162.51 28.6454C163.07 28.6454 163.639 28.4664 164.217 28.1084L164.843 31.2428C163.903 31.8459 162.693 32.1472 161.211 32.1466C159.837 32.1466 158.735 31.7702 157.904 31.0174C157.073 30.2646 156.657 29.2283 156.657 27.9087C156.662 27.4626 156.707 27.0179 156.79 26.5797L157.956 20.4516H155.706L156.356 17.0631H158.606L159.311 13.3637H163.539L162.835 17.0631H166.467L165.816 20.4516H162.184L161.018 26.5548Z" fill="#56BB6D"/>
<path d="M170.357 31.2987C169.285 30.7718 168.39 29.9421 167.78 28.9112C167.174 27.8853 166.871 26.6937 166.872 25.3362C166.872 23.6616 167.251 22.1557 168.01 20.8184C168.754 19.497 169.841 18.4036 171.155 17.6553C172.494 16.8833 174.003 16.4975 175.681 16.498C177.163 16.498 178.455 16.7804 179.557 17.3452C180.623 17.8752 181.512 18.7038 182.119 19.7311C182.724 20.757 183.027 21.9487 183.027 23.3062C183.027 24.9828 182.652 26.489 181.902 27.8247C181.164 29.15 180.075 30.2443 178.758 30.9871C177.411 31.7596 175.898 32.1456 174.217 32.1451C172.755 32.1456 171.468 31.8635 170.357 31.2987ZM176.686 27.8675C177.346 27.4333 177.872 26.8219 178.204 26.1025C178.565 25.3502 178.745 24.4844 178.745 23.5051C178.745 22.4689 178.456 21.65 177.877 21.0485C177.299 20.4469 176.486 20.1456 175.438 20.1446C174.651 20.1317 173.878 20.3525 173.215 20.7796C172.555 21.2143 172.03 21.8256 171.697 22.5445C171.336 23.2979 171.156 24.1639 171.156 25.1427C171.156 26.1789 171.45 26.9978 172.037 27.5993C172.624 28.2009 173.442 28.5022 174.49 28.5032C175.268 28.5134 176.033 28.2922 176.686 27.8675Z" fill="#56BB6D"/>
<path d="M193.181 16.9815C194.076 16.6618 195.129 16.502 196.339 16.502L195.58 20.5682C195.074 20.5309 194.749 20.512 194.604 20.5114C193.321 20.5114 192.295 20.841 191.528 21.5C190.761 22.1591 190.241 23.185 189.969 24.5777L188.559 31.9197H184.331L187.231 16.7273H191.243L190.887 18.5351C191.507 17.8288 192.297 17.2939 193.181 16.9815Z" fill="#56BB6D"/>
<path d="M211.357 25.5095H200.189C200.333 27.582 201.589 28.6182 203.956 28.6182C204.682 28.6211 205.402 28.497 206.085 28.2514C206.738 28.0212 207.342 27.6665 207.862 27.2069L209.624 30.1151C208.8 30.799 207.851 31.3167 206.832 31.6399C205.763 31.982 204.647 32.1535 203.525 32.1482C202.025 32.1482 200.711 31.8705 199.584 31.315C198.456 30.7596 197.588 29.9643 196.981 28.9291C196.376 27.8929 196.073 26.6973 196.073 25.3424C196.073 23.6678 196.439 22.1572 197.171 20.8106C197.876 19.4922 198.932 18.3969 200.22 17.6475C201.521 16.8848 203.003 16.5038 204.666 16.5043C206.075 16.5043 207.3 16.7771 208.339 17.3226C209.354 17.8468 210.192 18.661 210.749 19.6627C211.315 20.6793 211.599 21.856 211.599 23.1927C211.591 23.9709 211.51 24.7466 211.357 25.5095ZM201.951 20.6389C201.264 21.1938 200.775 21.9609 200.486 22.9401H207.725C207.725 21.9614 207.431 21.1943 206.844 20.6389C206.256 20.0835 205.466 19.8057 204.472 19.8057C203.477 19.8057 202.637 20.0835 201.951 20.6389Z" fill="#56BB6D"/>
<path d="M221.156 14.7665C220.786 15.1333 220.528 15.7123 220.383 16.5035L220.274 17.0677H223.988L223.337 20.4562H219.732L217.537 31.9213H213.308L215.503 20.4562H213.227L213.877 17.0677H216.159L216.321 16.1926C216.664 14.4984 217.374 13.1665 218.449 12.1971C219.525 11.2277 220.93 10.7427 222.664 10.7422C223.289 10.7394 223.913 10.8154 224.519 10.9684C225.049 11.0958 225.557 11.3055 226.023 11.5901L224.37 14.7533C223.918 14.3958 223.357 14.2168 222.689 14.2162C222.037 14.2147 221.526 14.3981 221.156 14.7665Z" fill="#56BB6D"/>
<path d="M232.756 16.9815C233.651 16.6618 234.704 16.502 235.915 16.502L235.155 20.5682C234.65 20.5309 234.325 20.512 234.18 20.5114C232.896 20.5114 231.87 20.841 231.103 21.5C230.336 22.1591 229.816 23.185 229.544 24.5777L228.137 31.9197H223.908L226.809 16.7273H230.82L230.468 18.5351C231.087 17.8295 231.874 17.2947 232.756 16.9815Z" fill="#56BB6D"/>
<path d="M239.1 31.2987C238.029 30.7718 237.134 29.9427 236.525 28.9128C235.919 27.8869 235.616 26.6952 235.617 25.3377C235.617 23.6632 235.996 22.1572 236.755 20.82C237.499 19.4985 238.586 18.4052 239.9 17.6568C241.239 16.8848 242.748 16.4991 244.427 16.4996C245.908 16.4996 247.2 16.782 248.303 17.3467C249.368 17.8765 250.258 18.7052 250.865 19.7327C251.469 20.7586 251.772 21.9502 251.773 23.3077C251.773 24.9844 251.398 26.4906 250.647 27.8263C249.909 29.1513 248.821 30.2456 247.504 30.9886C246.156 31.7612 244.643 32.1472 242.963 32.1466C241.499 32.1461 240.211 31.8635 239.1 31.2987ZM245.429 27.8675C246.089 27.4334 246.616 26.8219 246.948 26.1025C247.308 25.3502 247.489 24.4844 247.489 23.5051C247.489 22.4689 247.2 21.65 246.622 21.0485C246.044 20.4469 245.23 20.1456 244.182 20.1446C243.395 20.1317 242.622 20.3526 241.959 20.7796C241.299 21.2139 240.774 21.8253 240.441 22.5445C240.081 23.2979 239.9 24.1639 239.9 25.1427C239.9 26.1789 240.194 26.9978 240.781 27.5993C241.369 28.2009 242.186 28.5022 243.234 28.5032C244.012 28.5133 244.776 28.2921 245.429 27.8675Z" fill="#56BB6D"/>
<path d="M268.335 17.8426C269.293 18.7369 269.771 20.0125 269.771 21.6694C269.772 22.2863 269.708 22.9016 269.581 23.5051L267.958 31.9197H263.73L265.302 23.7873C265.377 23.4442 265.413 23.0939 265.41 22.7427C265.41 21.9515 265.203 21.349 264.787 20.935C264.371 20.521 263.748 20.3138 262.917 20.3132C261.835 20.3132 260.936 20.6378 260.219 21.2871C259.503 21.9363 259.02 22.9106 258.769 24.21L257.305 31.9189H253.076L255.977 16.7265H259.989L259.664 18.3648C260.964 17.1214 262.563 16.4996 264.461 16.4996C266.086 16.5012 267.378 16.9488 268.335 17.8426Z" fill="#56BB6D"/>
<path d="M277.551 26.5548C277.509 26.7594 277.491 26.9679 277.497 27.1766C277.497 28.1558 278.012 28.6455 279.042 28.6455C279.602 28.6455 280.171 28.4664 280.749 28.1084L281.373 31.2428C280.433 31.8459 279.223 32.1472 277.741 32.1467C276.367 32.1467 275.265 31.7703 274.434 31.0174C273.603 30.2646 273.187 29.2283 273.187 27.9087C273.193 27.4631 273.239 27.0189 273.323 26.5813L274.488 20.4532H272.238L272.888 17.0646H275.139L275.844 13.3652H280.071L279.366 17.0646H282.998L282.348 20.4532H278.715L277.551 26.5548Z" fill="#56BB6D"/>
<path d="M12.7268 13.5548C14.7009 13.1106 16.7019 12.7975 18.7169 12.6176C19.8793 10.9529 21.1492 9.36687 22.5184 7.86974C21.9058 7.26976 21.2927 6.71899 20.6791 6.21745C17.7014 3.78409 15.1326 2.88878 13.6317 3.76C12.1309 4.63122 11.617 7.31717 12.2237 11.1269C12.3481 11.9095 12.5196 12.7209 12.7268 13.5548Z" fill="#3BA1DA"/>
<path d="M32.9485 23.6956C32.5435 24.4836 32.1154 25.2706 31.664 26.0566C31.2127 26.8426 30.749 27.6089 30.2729 28.3555C31.7119 28.1776 33.0938 27.939 34.3975 27.6436C34.0041 26.3605 33.5142 25.0378 32.9485 23.6956Z" fill="#3BA1DA"/>
<path d="M17.3592 14.6437C15.9202 14.8224 14.5384 15.061 13.2339 15.3564C13.6319 16.6395 14.118 17.9622 14.6837 19.3044C15.0887 18.5164 15.5165 17.7294 15.9674 16.9434C16.4182 16.1574 16.8821 15.3908 17.3592 14.6437Z" fill="#3BA1DA"/>
<path d="M17.3589 28.3555C16.8829 27.6084 16.4192 26.8421 15.9678 26.0566C15.5165 25.2712 15.0884 24.4841 14.6834 23.6956C14.1177 25.0378 13.6316 26.3605 13.2344 27.6436C14.5381 27.939 15.9199 28.1776 17.3589 28.3555Z" fill="#3BA1DA"/>
<path d="M30.2725 14.6437C30.7496 15.3908 31.2132 16.1574 31.6635 16.9434C32.1138 17.7294 32.542 18.5164 32.948 19.3044C33.5137 17.9622 33.9998 16.6395 34.397 15.3564C33.094 15.061 31.7122 14.8224 30.2725 14.6437Z" fill="#3BA1DA"/>
<path d="M39.8599 13.5141C39.4008 13.3377 38.9248 13.1706 38.4356 13.0113C38.5433 12.5056 38.6362 12.0085 38.7146 11.5199C39.5647 6.19229 38.5013 2.37011 35.7237 0.758229C34.8356 0.248993 33.8286 -0.012848 32.8063 -0.000301851C30.4701 -0.000301851 27.8309 1.18879 24.9622 3.53433C24.5804 3.8452 24.1986 4.17706 23.8169 4.5229C23.4351 4.17706 23.0533 3.84598 22.6715 3.53433C19.8013 1.18879 17.1621 -0.000301851 14.8258 -0.000301851C13.8034 -0.0127235 12.7961 0.249104 11.9077 0.758229C9.1309 2.37011 8.06904 6.19229 8.9176 11.5199C8.99489 12.008 9.08917 12.5054 9.19659 13.0113C8.7074 13.1706 8.23134 13.3377 7.77228 13.5141C2.76052 15.4392 0 18.2752 0 21.4997C0 24.7242 2.76052 27.5617 7.77228 29.4853C8.23134 29.6609 8.7074 29.8288 9.19659 29.9881C9.08917 30.4933 8.99489 30.9914 8.9176 31.4795C8.0675 36.8071 9.1309 40.6293 11.9077 42.2412C12.796 42.7504 13.8034 43.0122 14.8258 42.9997C17.1621 42.9997 19.8013 41.8106 22.6708 39.4651C23.0525 39.1542 23.4343 38.8223 23.8161 38.4765C24.1979 38.8223 24.5796 39.1534 24.9614 39.4651C27.8309 41.8106 30.4701 42.9997 32.8063 42.9997C33.8286 43.0122 34.8356 42.7504 35.7237 42.2412C38.5013 40.6293 39.5631 36.8071 38.7146 31.4795C38.6373 30.9914 38.543 30.4933 38.4356 29.9881C38.9248 29.8288 39.4008 29.6609 39.8599 29.4853C44.8716 27.5602 47.6322 24.7242 47.6322 21.4997C47.6322 18.2752 44.8716 15.4392 39.8599 13.5141ZM39.2084 28.1563C38.4217 28.4586 37.5855 28.7353 36.7068 28.984C36.9309 29.8741 37.1112 30.7383 37.2477 31.5767C37.9912 36.2631 37.1728 39.5583 34.9316 40.8593C34.2534 41.2455 33.4851 41.4429 32.7059 41.4313C30.7429 41.4313 28.3641 40.3433 25.7806 38.2332C25.1268 37.6993 24.4707 37.1087 23.8169 36.469C23.163 37.1087 22.5069 37.6993 21.8531 38.2332C19.2696 40.3456 16.8908 41.4313 14.9278 41.4313C14.1485 41.4433 13.3802 41.2458 12.7021 40.8593C10.4609 39.5591 9.64174 36.2631 10.3883 31.5767C10.5212 30.7394 10.7015 29.8751 10.9293 28.984C10.0521 28.7353 9.21514 28.4586 8.42841 28.1563C4.02332 26.4636 1.59124 24.0994 1.59124 21.4997C1.59124 18.9 4.01868 16.5358 8.42377 14.8439C9.2105 14.5416 10.0467 14.2649 10.9246 14.0162C10.7005 13.1263 10.5204 12.2598 10.3836 11.4235C9.6371 6.7371 10.4609 3.44107 12.6975 2.14084C14.934 0.840611 18.1845 1.77323 21.8485 4.76616C22.5061 5.30009 23.1623 5.89075 23.8161 6.52804C24.4699 5.88842 25.126 5.29776 25.7798 4.76305C29.4445 1.77245 32.6904 0.839833 34.9316 2.14006C37.1728 3.44029 37.9912 6.73632 37.2447 11.4243C37.1117 12.2605 36.9309 13.1271 36.7037 14.017C37.5816 14.2657 38.4186 14.5424 39.2053 14.8447C43.6143 16.5374 46.0425 18.9016 46.0425 21.5013C46.0425 24.1009 43.6174 26.4636 39.2084 28.1563Z" fill="#A9A9AC"/>
<path d="M34.9053 29.4452C32.9311 29.8893 30.9301 30.2024 28.9151 30.3824C27.7537 32.0465 26.4848 33.632 25.1167 35.1287C25.7298 35.7287 26.3429 36.2795 26.956 36.781C29.9329 39.2144 32.5018 40.1097 34.0034 39.2385C35.505 38.3672 36.0181 35.6813 35.4115 31.8715C35.2832 31.0873 35.1147 30.2791 34.9053 29.4452Z" fill="#3BA1DA"/>
<path d="M11.4293 15.8149C10.6063 16.0481 9.82342 16.3076 9.08692 16.5921C5.50257 17.9685 3.44531 19.7576 3.44531 21.5016C3.44531 23.2456 5.50102 25.0346 9.08692 26.411C9.82342 26.6939 10.6063 26.9551 11.4293 27.1882C12.0338 25.247 12.7647 23.3478 13.6172 21.5031C12.7646 19.6574 12.0337 17.7572 11.4293 15.8149Z" fill="#3BA1DA"/>
<path d="M38.5454 16.5905C37.8089 16.3076 37.0253 16.0465 36.203 15.8134C35.5985 17.7546 34.8677 19.6537 34.0151 21.4984C34.8677 23.3432 35.5985 25.2423 36.203 27.1835C37.0253 26.9504 37.8089 26.6908 38.5454 26.4064C42.1298 25.03 44.187 23.2401 44.187 21.4969C44.187 19.7537 42.1298 17.9669 38.5454 16.5905Z" fill="#3BA1DA"/>
<path d="M34.004 3.76002C33.6004 3.53583 33.1449 3.42345 32.684 3.43438C31.1893 3.43438 29.1877 4.3942 26.9566 6.21748C26.3445 6.71798 25.7314 7.26875 25.1173 7.86977L23.8259 9.22362C23.8259 9.21973 23.8259 9.22362 23.8259 9.22362C22.9194 10.2114 22.0136 11.2839 21.1403 12.4482C22.0213 12.4062 22.9178 12.3852 23.8158 12.3852C24.1783 12.3852 24.5392 12.3899 24.8978 12.3969L23.2795 14.2582C22.0801 14.2699 20.8977 14.3196 19.7431 14.4067C18.9942 15.5118 18.2693 16.6729 17.5792 17.8776C16.889 19.0822 16.2499 20.2946 15.6726 21.4992C16.2499 22.7039 16.8875 23.9155 17.5792 25.1209C17.8852 25.6541 18.1977 26.1784 18.5166 26.6939L17.0104 30.1912C15.5188 30.0024 14.0829 29.7521 12.7274 29.442C12.5172 30.276 12.3487 31.0873 12.2243 31.87C11.6176 35.6782 12.1308 38.3649 13.6324 39.2369C15.1339 40.1089 17.702 39.2128 20.6797 36.7794C21.2918 36.2789 21.9049 35.7282 22.519 35.1271L23.8166 33.7849C24.7224 32.7964 25.6188 31.7122 26.4921 30.548C25.6111 30.5892 24.7146 30.6109 23.8166 30.6109C23.5283 30.6109 23.2416 30.6109 22.9549 30.6032L24.5863 28.734C25.7054 28.7185 26.809 28.6703 27.8886 28.5895C28.6375 27.4843 29.3624 26.3232 30.0525 25.1186C30.7427 23.9139 31.3818 22.7015 31.9591 21.4969C31.3818 20.2923 30.7442 19.0806 30.0525 17.8752C29.7434 17.339 29.4294 16.8123 29.1104 16.2952L30.6963 12.8119C32.1646 13 33.5712 13.2463 34.9043 13.5518C35.1137 12.7178 35.2822 11.9065 35.4074 11.1238C36.0133 7.31719 35.5017 4.63202 34.004 3.76002ZM25.9774 19.5765L28.7101 20.0428C28.8377 20.065 28.9571 20.121 29.056 20.2049C29.155 20.2889 29.2299 20.3978 29.2732 20.5205C29.3165 20.6432 29.3265 20.7753 29.3022 20.9031C29.278 21.031 29.2203 21.1501 29.1352 21.2482L16.0134 36.2851L21.3946 23.7818L18.8443 23.3481C18.7163 23.3263 18.5964 23.2706 18.497 23.1867C18.3976 23.1028 18.3222 22.9938 18.2785 22.8708C18.2349 22.7479 18.2247 22.6155 18.2489 22.4872C18.2731 22.359 18.3308 22.2395 18.4161 22.1412L31.8632 6.67057L25.9774 19.5765Z" fill="#3BA1DA"/>
</g>
<defs>
<clipPath id="clip0">
<rect width="283" height="43" fill="white"/>
</clipPath>
</defs>
</svg>
