<?xml version="1.0"?>
<svg xmlns="http://www.w3.org/2000/svg" width="74" height="60" viewBox="0 0 74 60" fill="none">
<path d="M49.2083 45.8777H1.8877V1H68.3903V32.6069" stroke="#3BA1DA" stroke-width="2" stroke-miterlimit="10" stroke-linecap="round"/>
<path d="M32.4742 35.9594L25.7148 40.335C25.1652 40.6906 24.551 40.9344 23.9072 41.0525C23.2633 41.1706 22.6025 41.1607 21.9625 41.0234C21.3225 40.886 20.7158 40.6239 20.1772 40.252C19.6385 39.8801 19.1784 39.4058 18.8231 38.856C18.1053 37.7468 17.8573 36.398 18.1338 35.1061C18.4102 33.8141 19.1885 32.6849 20.2974 31.9666L32.5829 24.0117C33.6924 23.2938 35.0416 23.0458 36.334 23.3222C37.6263 23.5987 38.7559 24.377 39.4746 25.486C39.8941 26.1326 40.1577 26.8678 40.2448 27.6336" stroke="#56BB6D" stroke-width="2" stroke-miterlimit="10" stroke-linecap="round"/>
<path d="M37.8582 20.6001L44.2987 16.4301C44.8479 16.0743 45.462 15.8302 46.1056 15.7117C46.7492 15.5932 47.4099 15.6027 48.0499 15.7396C48.6899 15.8765 49.2966 16.1382 49.8355 16.5096C50.3743 16.881 50.8347 17.355 51.1904 17.9044V17.9044C51.5461 18.4535 51.7902 19.0673 51.9086 19.7108C52.0271 20.3542 52.0176 21.0147 51.8807 21.6545C51.7438 22.2943 51.4821 22.9008 51.1107 23.4395C50.7393 23.9781 50.2654 24.4383 49.7161 24.7937L37.4306 32.7486C36.3222 33.4621 34.9763 33.7075 33.6875 33.4313C32.3986 33.155 31.2716 32.3795 30.553 31.2744C30.1099 30.5898 29.8414 29.8069 29.771 28.9944" stroke="#56BB6D" stroke-width="2" stroke-miterlimit="10" stroke-linecap="round"/>
<path d="M7.85823 8.05727C8.75856 8.05727 9.48842 7.32741 9.48842 6.42707C9.48842 5.52674 8.75856 4.79688 7.85823 4.79688C6.95789 4.79688 6.22803 5.52674 6.22803 6.42707C6.22803 7.32741 6.95789 8.05727 7.85823 8.05727Z" fill="#3BA1DA"/>
<path d="M13.3773 8.05727C14.2776 8.05727 15.0075 7.32741 15.0075 6.42707C15.0075 5.52674 14.2776 4.79688 13.3773 4.79688C12.4769 4.79688 11.7471 5.52674 11.7471 6.42707C11.7471 7.32741 12.4769 8.05727 13.3773 8.05727Z" fill="#3BA1DA"/>
<path d="M18.8939 8.05727C19.7942 8.05727 20.5241 7.32741 20.5241 6.42707C20.5241 5.52674 19.7942 4.79688 18.8939 4.79688C17.9935 4.79688 17.2637 5.52674 17.2637 6.42707C17.2637 7.32741 17.9935 8.05727 18.8939 8.05727Z" fill="#3BA1DA"/>
<path d="M72.9998 58.1229L63.0462 45.4569L57.6169 53.9009L51.8262 29.8921L72.8179 41.776L63.0533 45.4569" stroke="#56BB6D" stroke-width="2" stroke-linecap="round" stroke-linejoin="round"/>
<path d="M2.32227 11.8726H41.8439" stroke="#3BA1DA" stroke-width="2" stroke-miterlimit="10" stroke-linecap="round"/>
</svg>
