<?xml version="1.0"?>
<svg xmlns="http://www.w3.org/2000/svg" width="79" height="63" viewBox="0 0 79 63" fill="none">
<path d="M74.5158 38.3268C73.5821 38.3268 72.1341 39.2012 72.1341 39.2012C71.9789 39.3082 71.8006 39.377 71.6138 39.4021C71.427 39.4273 71.2369 39.408 71.0589 39.3459C70.8809 39.2838 70.7201 39.1806 70.5894 39.0447C70.4588 38.9088 70.362 38.7441 70.307 38.5638V28.35H60.1856C59.9098 28.2979 59.6608 28.1509 59.482 27.9345C59.3033 27.718 59.2059 27.4458 59.2069 27.1651C59.2073 26.9829 59.2486 26.8031 59.3278 26.639C59.3868 26.5147 59.4669 26.4016 59.5647 26.3048C60.0662 25.6814 60.3358 24.9033 60.3278 24.1033C60.3278 22.3236 59.0671 20.8804 57.5101 20.8804C55.9532 20.8804 54.6924 22.3236 54.6924 24.1033C54.6924 25.0394 55.5669 26.4873 55.5669 26.4873C55.6807 26.6523 55.7512 26.8434 55.772 27.0428C55.7928 27.2422 55.7631 27.4436 55.6857 27.6286C55.6083 27.8135 55.4857 27.9761 55.3291 28.1013C55.1726 28.2265 54.987 28.3104 54.7896 28.3452H44.7251V38.8007C44.8054 38.9468 44.9156 39.0743 45.0485 39.1748C45.1814 39.2754 45.334 39.3468 45.4963 39.3844C45.6587 39.422 45.8272 39.4249 45.9907 39.3929C46.1543 39.3609 46.3093 39.2948 46.4456 39.1989C46.4456 39.1989 47.8935 38.3244 48.8296 38.3244C50.6093 38.3244 52.0501 39.5851 52.0501 41.1421C52.0501 42.6991 50.6093 43.9598 48.8296 43.9598C48.0297 43.9666 47.2521 43.6971 46.628 43.1967C46.5835 43.1525 46.536 43.1113 46.4859 43.0735C46.4265 43.027 46.3621 42.9872 46.2939 42.955C46.0217 42.8166 45.7066 42.7887 45.4143 42.877C45.1221 42.9653 44.8752 43.163 44.7251 43.4289V53.9129H54.7872C54.987 53.9438 55.1755 54.0253 55.3349 54.1496C55.4942 54.2738 55.6192 54.4368 55.6978 54.623C55.7764 54.8092 55.8061 55.0124 55.784 55.2133C55.7619 55.4142 55.6888 55.6061 55.5716 55.7708C55.5716 55.7708 54.6972 57.2211 54.6972 58.1548C54.6972 59.9346 55.9603 61.3778 57.5149 61.3778C59.0695 61.3778 60.3326 59.9346 60.3326 58.1548C60.3402 57.3549 60.0705 56.577 59.5695 55.9533C59.4717 55.8565 59.3915 55.7435 59.3325 55.6192C59.2533 55.4551 59.212 55.2753 59.2116 55.0931C59.2105 54.8112 59.3087 54.5379 59.489 54.3212C59.6692 54.1046 59.9201 53.9583 60.1975 53.9082H70.307V43.6896C70.3821 43.444 70.5341 43.229 70.7406 43.0763C70.9471 42.9236 71.1972 42.8412 71.454 42.8412C71.6365 42.8413 71.8165 42.8834 71.9801 42.9645C72.0491 42.9965 72.1143 43.0363 72.1744 43.083C72.2243 43.1202 72.271 43.1614 72.3142 43.2062C72.9384 43.7062 73.716 43.9757 74.5158 43.9693C76.2955 43.9693 77.7387 42.7062 77.7387 41.1516C77.7387 39.597 76.2955 38.3268 74.5158 38.3268Z" stroke="#56BB6D" stroke-width="2" stroke-miterlimit="10" stroke-linecap="round"/>
<path d="M1 42.0235H32.0988V31.5466C32.2043 31.3633 32.3563 31.211 32.5393 31.1049C32.7223 30.9989 32.93 30.9428 33.1415 30.9423C33.324 30.9423 33.5041 30.9845 33.6676 31.0656C33.7366 31.0976 33.8018 31.1374 33.8619 31.184C33.9123 31.2198 33.9591 31.2602 34.0017 31.3049C34.6254 31.806 35.4033 32.0756 36.2033 32.068C37.983 32.068 39.4262 30.8073 39.4262 29.2527C39.4262 27.6981 37.983 26.435 36.2033 26.435C35.2696 26.435 33.8193 27.3094 33.8193 27.3094C33.6822 27.4028 33.5272 27.4669 33.3642 27.4974C33.2011 27.528 33.0335 27.5245 32.8719 27.4871C32.7102 27.4497 32.5581 27.3792 32.4251 27.2801C32.292 27.181 32.1809 27.0555 32.0988 26.9113V16.451H42.168C42.3651 16.415 42.55 16.3304 42.7061 16.2049C42.8622 16.0794 42.9845 15.9169 43.0619 15.7321C43.1393 15.5474 43.1694 15.3463 43.1495 15.147C43.1295 14.9477 43.0602 14.7565 42.9477 14.5908C42.9477 14.5908 42.0732 13.1428 42.0732 12.221C42.0732 10.4413 43.334 8.99805 44.8909 8.99805C46.4479 8.99805 47.7086 10.4413 47.7086 12.221C47.7151 13.0207 47.4456 13.7983 46.9455 14.4225C46.9008 14.4657 46.8596 14.5125 46.8223 14.5623C46.7756 14.6224 46.7359 14.6876 46.7038 14.7566C46.6228 14.9202 46.5806 15.1002 46.5806 15.2827C46.5801 15.5634 46.6776 15.8353 46.8563 16.0517C47.035 16.268 47.2837 16.4152 47.5593 16.4676H57.6333V1" stroke="#3BA1DA" stroke-width="2" stroke-miterlimit="10" stroke-linecap="round"/>
</svg>
