<?xml version="1.0"?>
<svg xmlns="http://www.w3.org/2000/svg" width="64" height="64" viewBox="0 0 64 64" fill="none">
<path d="M32.5124 62.1746C49.3014 62.1746 62.9116 48.5644 62.9116 31.7754C62.9116 14.9864 49.3014 1.37622 32.5124 1.37622C15.7234 1.37622 2.11328 14.9864 2.11328 31.7754C2.11328 48.5644 15.7234 62.1746 32.5124 62.1746Z" fill="white"/>
<path d="M32.0002 62.8351C14.9968 62.8351 1.16504 49.0017 1.16504 31.9999C1.16504 14.9982 14.9968 1.16479 32.0002 1.16479C49.0036 1.16479 62.8353 14.9965 62.8353 31.9999C62.8353 49.0034 49.002 62.8351 32.0002 62.8351ZM32.0002 2.16323C15.5476 2.16323 2.16348 15.5473 2.16348 31.9999C2.16348 48.4526 15.5476 61.8367 32.0002 61.8367C48.4528 61.8367 61.8369 48.4509 61.8369 31.9999C61.8369 15.549 48.4512 2.16323 32.0002 2.16323Z" fill="#A9A9AC"/>
<path d="M32.0002 6.41821C17.8939 6.41821 6.41846 17.9003 6.41846 31.9999C6.41846 46.0995 17.8939 57.5766 32.0002 57.5766C46.1064 57.5766 57.5768 46.1045 57.5768 31.9999C57.5768 17.8953 46.1048 6.41821 32.0002 6.41821Z" fill="#3BA1DA"/>
<path d="M31.9999 38.9491C35.8378 38.9491 38.9491 35.8378 38.9491 31.9999C38.9491 28.162 35.8378 25.0508 31.9999 25.0508C28.162 25.0508 25.0508 28.162 25.0508 31.9999C25.0508 35.8378 28.162 38.9491 31.9999 38.9491Z" fill="white"/>
<path d="M32.0001 43.4138C28.3085 43.4255 24.687 42.4051 21.5446 40.4676C18.4021 38.5302 15.8638 35.7529 14.2162 32.4493C14.1463 32.3101 14.1099 32.1565 14.1099 32.0008C14.1099 31.8451 14.1463 31.6915 14.2162 31.5523C15.8728 28.2559 18.413 25.4848 21.5532 23.5485C24.6934 21.6121 28.3101 20.5867 31.9993 20.5867C35.6885 20.5867 39.3052 21.6121 42.4454 23.5485C45.5856 25.4848 48.1258 28.2559 49.7824 31.5523C49.8523 31.6915 49.8887 31.8451 49.8887 32.0008C49.8887 32.1565 49.8523 32.3101 49.7824 32.4493C48.1349 35.7526 45.5969 38.5298 42.4547 40.4672C39.3126 42.4046 35.6915 43.4252 32.0001 43.4138ZM16.2348 32C17.7676 34.8467 20.0426 37.2254 22.8183 38.8834C25.594 40.5413 28.7669 41.4168 32.0001 41.4168C35.2333 41.4168 38.4062 40.5413 41.182 38.8834C43.9577 37.2254 46.2327 34.8467 47.7655 32C46.2331 29.1527 43.9582 26.7736 41.1824 25.1153C38.4066 23.4569 35.2336 22.5813 32.0001 22.5813C28.7667 22.5813 25.5936 23.4569 22.8178 25.1153C20.042 26.7736 17.7672 29.1527 16.2348 32Z" fill="white"/>
</svg>
