<?xml version="1.0"?>
<svg xmlns="http://www.w3.org/2000/svg" width="22" height="22" viewBox="0 0 22 22" fill="none">
<path fill-rule="evenodd" clip-rule="evenodd" d="M10.9994 0.00390625C4.9249 0.00390625 0 4.82426 0 10.7703C0 15.5269 3.15108 19.5622 7.52259 20.985C8.07315 21.0846 8.27341 20.7531 8.27341 20.4668C8.27341 20.2118 8.26382 19.5352 8.25903 18.6358C5.19905 19.287 4.55344 17.1923 4.55344 17.1923C4.05308 15.9487 3.33187 15.618 3.33187 15.618C2.33313 14.9505 3.40774 14.9635 3.40774 14.9635C4.51169 15.04 5.09272 16.0727 5.09272 16.0727C6.07369 17.7179 7.66756 17.2418 8.294 16.9679C8.39356 16.2709 8.67844 15.7975 8.99236 15.5278C6.55008 15.2561 3.98228 14.3325 3.98228 10.2072C3.98228 9.03152 4.41072 8.07032 5.11415 7.31753C5.00162 7.04645 4.62338 5.95192 5.22218 4.46899C5.22218 4.46899 6.14562 4.17969 8.24746 5.57346C9.12436 5.33357 10.0656 5.21377 11.0011 5.21018C11.9353 5.21405 12.8768 5.33357 13.7548 5.57346C15.8552 4.17969 16.7773 4.46899 16.7773 4.46899C17.3775 5.95192 16.9995 7.04645 16.8867 7.31753C17.5918 8.07032 18.0172 9.03152 18.0172 10.2072C18.0172 14.3421 15.4457 15.2531 12.9952 15.5187C13.3895 15.8513 13.7415 16.5097 13.7415 17.5142C13.7415 18.9527 13.7283 20.1135 13.7283 20.4665C13.7283 20.755 13.926 21.0904 14.4845 20.9836C18.8512 19.5578 22 15.5256 22 10.7703C22 4.82426 17.0751 0.00390625 10.9994 0.00390625Z" fill="white"/>
</svg>
