<?xml version="1.0"?>
<svg xmlns="http://www.w3.org/2000/svg" width="278" height="43" viewBox="0 0 278 43" fill="none">
<g clip-path="url(#clip0)">
<path d="M70.8085 22.4932C69.8671 23.7807 68.5623 24.6916 66.8942 25.226L70.1427 31.1835H65.5922L62.6603 25.7756H58.9874L57.9474 31.1812H53.6064L57.3347 11.874H64.9264C67.2343 11.874 69.0274 12.3981 70.3059 13.4461C71.5843 14.4942 72.2233 15.9654 72.2228 17.8596C72.2208 19.6617 71.7493 21.2063 70.8085 22.4932ZM66.6679 21.1966C67.4575 20.5165 67.8525 19.542 67.853 18.2733C67.853 17.3543 67.5511 16.6648 66.9473 16.2047C66.3435 15.7447 65.4831 15.5147 64.3661 15.5147H60.9575L59.6525 22.2176H63.3276C64.7645 22.2176 65.8779 21.8773 66.6679 21.1966Z" fill="white"/>
<path d="M88.2228 24.9202H77.252C77.3937 26.9444 78.6274 27.9566 80.953 27.9566C81.6654 27.9594 82.3729 27.8382 83.0437 27.5983C83.6859 27.3736 84.2788 27.0272 84.7898 26.578L86.5207 29.4186C85.7106 30.0867 84.7793 30.5924 83.7778 30.908C82.7276 31.2421 81.6315 31.4096 80.5294 31.4045C79.0556 31.4045 77.765 31.1332 76.6576 30.5907C75.5502 30.0482 74.6959 29.2706 74.0947 28.258C73.5005 27.2458 73.2031 26.078 73.2026 24.7547C73.2026 23.119 73.5622 21.6436 74.2814 20.3283C74.974 19.0405 76.0112 17.9707 77.2771 17.2387C78.5545 16.4938 80.0101 16.1216 81.6438 16.1221C83.0285 16.1221 84.2313 16.3885 85.2521 16.9214C86.2512 17.4333 87.0764 18.2294 87.6238 19.2094C88.1805 20.2023 88.4589 21.3516 88.4589 22.6572C88.4517 23.4173 88.3727 24.175 88.2228 24.9202ZM78.9829 20.1628C78.3078 20.7048 77.8285 21.4541 77.5451 22.4105H84.6547C84.6547 21.4546 84.3662 20.7053 83.7892 20.1628C83.2123 19.6203 82.4354 19.349 81.4586 19.349C80.4823 19.349 79.6571 19.6203 78.9829 20.1628Z" fill="white"/>
<path d="M107.022 16.3416L104.173 31.1806H100.232L100.498 29.7193C99.3079 30.8408 97.8435 31.4015 96.1045 31.4015C95.0223 31.4113 93.9568 31.1353 93.0154 30.6014C92.0651 30.0588 91.2856 29.261 90.7653 28.2983C90.2085 27.2963 89.9302 26.1148 89.9302 24.754C89.9302 23.1184 90.2809 21.6429 90.9824 20.3276C91.6839 19.0124 92.6381 17.9825 93.8452 17.2381C95.0441 16.4956 96.429 16.1084 97.8392 16.1214C100.04 16.1214 101.593 16.8661 102.499 18.3555L102.872 16.3416H107.022ZM99.5663 27.2226C100.215 26.7986 100.731 26.2013 101.057 25.4987C101.412 24.7639 101.589 23.9182 101.589 22.9617C101.589 21.9496 101.3 21.1498 100.723 20.5622C100.146 19.9747 99.3426 19.6804 98.3122 19.6794C97.5392 19.6667 96.7797 19.8825 96.1288 20.2995C95.4806 20.7238 94.9641 21.3209 94.6378 22.0235C94.2835 22.7593 94.1064 23.6052 94.1064 24.5612C94.1064 25.5733 94.3949 26.3732 94.9718 26.9607C95.5488 27.5483 96.3522 27.8426 97.3822 27.8436C98.1555 27.856 98.9152 27.64 99.5663 27.2226Z" fill="white"/>
<path d="M111.709 30.5741C110.608 30.022 109.76 29.2452 109.165 28.2436C108.571 27.2421 108.273 26.0781 108.273 24.7517C108.273 23.1161 108.646 21.6452 109.392 20.339C110.127 19.0436 111.203 17.9749 112.504 17.2495C113.836 16.4954 115.336 16.1186 117.005 16.1191C118.531 16.1191 119.849 16.4453 120.958 17.0976C122.057 17.7392 122.928 18.7086 123.448 19.8699L119.934 21.6918C119.312 20.3497 118.247 19.6786 116.738 19.6786C115.961 19.6673 115.198 19.8828 114.541 20.2988C113.885 20.7215 113.359 21.3184 113.023 22.0227C112.658 22.7586 112.476 23.5954 112.477 24.5331C112.477 25.5453 112.77 26.3497 113.355 26.9463C113.941 27.543 114.758 27.8418 115.805 27.8428C117.332 27.8428 118.503 27.1809 119.32 25.857L122.383 27.8428C121.696 28.9597 120.715 29.8662 119.547 30.4633C118.349 31.0883 117.022 31.4008 115.566 31.4008C114.094 31.4013 112.808 31.1257 111.709 30.5741Z" fill="white"/>
<path d="M129.602 25.9405C129.561 26.1402 129.544 26.344 129.549 26.5477C129.549 27.5042 130.055 27.9825 131.067 27.9825C131.618 27.9825 132.177 27.8076 132.745 27.4579L133.358 30.5194C132.434 31.1085 131.245 31.4028 129.79 31.4023C128.441 31.4023 127.358 31.0346 126.541 30.2993C125.724 29.5639 125.316 28.5518 125.317 27.2628C125.323 26.8276 125.368 26.3938 125.449 25.9663L126.594 19.9807H124.384L125.023 16.671H127.233L127.926 13.0576H132.08L131.388 16.671H134.956L134.316 19.9807H130.748L129.602 25.9405Z" fill="white"/>
<path d="M138.07 30.9056C136.721 30.5007 135.638 29.9858 134.821 29.3608L136.579 25.9129C137.448 26.5662 138.42 27.0696 139.454 27.4023C140.511 27.7508 141.617 27.9279 142.73 27.9268C143.919 27.9268 144.86 27.7244 145.552 27.3196C146.244 26.9147 146.59 26.3631 146.591 25.6647C146.591 25.0954 146.316 24.6589 145.765 24.3552C145.215 24.0516 144.336 23.7252 143.129 23.376C141.922 23.0081 140.937 22.6538 140.173 22.3132C139.401 21.9664 138.721 21.4417 138.19 20.7821C137.63 20.1019 137.352 19.2009 137.355 18.0789C137.355 16.7743 137.705 15.6252 138.406 14.6318C139.107 13.6384 140.101 12.8752 141.389 12.3423C142.673 11.8089 144.168 11.5422 145.872 11.5422C147.074 11.5354 148.273 11.6789 149.44 11.9696C150.558 12.255 151.517 12.6642 152.316 13.1971L150.695 16.6184C149.984 16.1131 149.191 15.735 148.351 15.501C147.468 15.251 146.553 15.1258 145.635 15.129C144.411 15.129 143.443 15.3497 142.733 15.791C142.022 16.2323 141.668 16.8021 141.67 17.5005C141.666 17.6998 141.704 17.8977 141.783 18.081C141.861 18.2643 141.978 18.4287 142.125 18.5632C142.457 18.8672 142.847 19.1018 143.271 19.2533C143.732 19.4279 144.38 19.6346 145.214 19.8735C146.404 20.2044 147.38 20.54 148.143 20.88C148.903 21.2178 149.573 21.7277 150.101 22.3694C150.643 23.0232 150.913 23.8836 150.913 24.9504C150.913 26.2743 150.558 27.4281 149.85 28.4119C149.141 29.3957 148.138 30.1589 146.841 30.7014C145.545 31.2434 144.036 31.5144 142.314 31.5144C140.877 31.5206 139.447 31.3155 138.07 30.9056Z" fill="white"/>
<path d="M158.174 25.941C158.133 26.1408 158.115 26.3445 158.12 26.5483C158.12 27.5048 158.627 27.983 159.639 27.983C160.188 27.983 160.747 27.8082 161.316 27.4585L161.931 30.5199C161.008 31.109 159.818 31.4033 158.363 31.4028C157.013 31.4028 155.931 31.0351 155.114 30.2998C154.298 29.5645 153.889 28.5523 153.889 27.2634C153.894 26.8277 153.938 26.3933 154.02 25.9653L155.165 19.9797H152.955L153.594 16.67H155.804L156.497 13.0566H160.65L159.958 16.67H163.526L162.887 19.9797H159.318L158.174 25.941Z" fill="white"/>
<path d="M167.347 30.5737C166.295 30.0589 165.415 29.2486 164.815 28.2417C164.22 27.2397 163.923 26.0757 163.923 24.7498C163.923 23.1142 164.296 21.6433 165.042 20.3371C165.772 19.0464 166.84 17.9784 168.131 17.2475C169.447 16.4935 170.929 16.1167 172.577 16.1172C174.033 16.1172 175.302 16.393 176.385 16.9446C177.431 17.4623 178.305 18.2717 178.902 19.2751C179.496 20.2771 179.793 21.4411 179.794 22.767C179.794 24.4046 179.425 25.8758 178.688 27.1805C177.963 28.4749 176.894 29.5438 175.599 30.2693C174.277 31.0238 172.79 31.4008 171.139 31.4003C169.703 31.4008 168.439 31.1253 167.347 30.5737ZM173.565 27.2222C174.213 26.7981 174.73 26.2009 175.056 25.4983C175.41 24.7634 175.587 23.9178 175.587 22.9613C175.587 21.9492 175.303 21.1493 174.735 20.5618C174.166 19.9742 173.368 19.6799 172.339 19.6789C171.566 19.6663 170.806 19.882 170.155 20.2991C169.507 20.7238 168.99 21.3208 168.664 22.0231C168.309 22.7589 168.132 23.6048 168.132 24.5608C168.132 25.5729 168.421 26.3728 168.998 26.9603C169.575 27.5479 170.378 27.8421 171.407 27.8432C172.172 27.8531 172.922 27.6371 173.565 27.2222Z" fill="white"/>
<path d="M189.768 16.5904C190.647 16.2782 191.681 16.1221 192.87 16.1221L192.124 20.0937C191.627 20.0573 191.308 20.0388 191.166 20.0383C189.905 20.0383 188.898 20.3602 188.144 21.0039C187.39 21.6476 186.88 22.6496 186.613 24.01L185.228 31.1813H181.074L183.923 16.3422H187.864L187.515 18.1079C188.124 17.418 188.899 16.8956 189.768 16.5904Z" fill="white"/>
<path d="M207.623 24.9198H196.652C196.794 26.9441 198.028 27.9563 200.353 27.9563C201.066 27.9591 201.773 27.8378 202.444 27.598C203.086 27.3731 203.679 27.0267 204.19 26.5777L205.921 29.4183C205.111 30.0863 204.18 30.592 203.178 30.9077C202.128 31.2418 201.032 31.4093 199.93 31.4041C198.456 31.4041 197.166 31.1329 196.058 30.5904C194.95 30.0479 194.098 29.271 193.501 28.2599C192.907 27.2478 192.609 26.08 192.609 24.7566C192.609 23.121 192.968 21.6455 193.688 20.3302C194.38 19.0424 195.417 17.9727 196.683 17.2407C197.961 16.4957 199.416 16.1235 201.05 16.124C202.435 16.124 203.638 16.3905 204.658 16.9234C205.655 17.4354 206.479 18.2306 207.025 19.209C207.582 20.202 207.861 21.3512 207.861 22.6569C207.853 23.417 207.773 24.1747 207.623 24.9198ZM198.383 20.1625C197.708 20.7045 197.228 21.4537 196.944 22.4102H204.055C204.055 21.4542 203.766 20.705 203.189 20.1625C202.612 19.62 201.836 19.3487 200.86 19.3487C199.882 19.3487 199.057 19.62 198.383 20.1625Z" fill="white"/>
<path d="M217.249 14.4268C216.885 14.7851 216.632 15.3507 216.489 16.1234L216.382 16.6746H220.031L219.392 19.9843H215.85L213.693 31.1826H209.539L211.696 19.9843H209.459L210.098 16.6746H212.34L212.499 15.8198C212.836 14.1649 213.533 12.8641 214.59 11.9172C215.647 10.9704 217.027 10.4967 218.73 10.4962C219.345 10.4934 219.957 10.5677 220.552 10.7171C221.073 10.8415 221.572 11.0464 222.03 11.3244L220.406 14.4139C219.962 14.0647 219.411 13.8899 218.755 13.8894C218.115 13.8879 217.612 14.067 217.249 14.4268Z" fill="white"/>
<path d="M228.644 16.5904C229.523 16.2782 230.558 16.1221 231.747 16.1221L231.001 20.0937C230.504 20.0573 230.185 20.0388 230.043 20.0383C228.782 20.0383 227.774 20.3602 227.02 21.0039C226.267 21.6476 225.756 22.6496 225.489 24.01L224.107 31.1813H219.953L222.802 16.3422H226.743L226.396 18.1079C227.004 17.4188 227.778 16.8964 228.644 16.5904Z" fill="white"/>
<path d="M234.876 30.5741C233.824 30.0594 232.945 29.2496 232.346 28.2436C231.751 27.2416 231.454 26.0776 231.454 24.7517C231.454 23.1161 231.827 21.6452 232.572 20.339C233.303 19.0483 234.371 17.9804 235.661 17.2495C236.977 16.4954 238.46 16.1186 240.109 16.1191C241.564 16.1191 242.833 16.395 243.916 16.9466C244.962 17.464 245.836 18.2735 246.432 19.277C247.027 20.2791 247.324 21.443 247.325 22.7689C247.325 24.4066 246.956 25.8777 246.219 27.1824C245.494 28.4766 244.425 29.5455 243.131 30.2712C241.807 31.0258 240.321 31.4028 238.671 31.4023C237.232 31.4018 235.967 31.1257 234.876 30.5741ZM241.093 27.2226C241.742 26.7986 242.259 26.2014 242.585 25.4987C242.939 24.7639 243.116 23.9182 243.116 22.9618C243.116 21.9496 242.833 21.1498 242.265 20.5622C241.697 19.9747 240.898 19.6804 239.868 19.6794C239.095 19.6667 238.335 19.8825 237.685 20.2996C237.036 20.7238 236.52 21.3209 236.194 22.0235C235.839 22.7593 235.662 23.6052 235.662 24.5612C235.662 25.5733 235.951 26.3732 236.528 26.9607C237.105 27.5483 237.908 27.8426 238.937 27.8436C239.701 27.8534 240.451 27.6374 241.093 27.2226Z" fill="white"/>
<path d="M263.594 17.4309C264.535 18.3044 265.005 19.5503 265.005 21.1687C265.006 21.7713 264.943 22.3722 264.819 22.9618L263.224 31.1806H259.07L260.615 23.2373C260.688 22.9022 260.724 22.56 260.721 22.2171C260.721 21.4443 260.517 20.8557 260.109 20.4514C259.7 20.047 259.088 19.8446 258.271 19.8441C257.209 19.8441 256.325 20.1611 255.622 20.7953C254.918 21.4294 254.444 22.381 254.197 23.6503L252.759 31.1799H248.605L251.455 16.3408H255.396L255.076 17.941C256.354 16.7264 257.925 16.1191 259.789 16.1191C261.385 16.1207 262.654 16.5579 263.594 17.4309Z" fill="white"/>
<path d="M272.647 25.9405C272.607 26.1402 272.589 26.344 272.594 26.5477C272.594 27.5042 273.1 27.9825 274.112 27.9825C274.662 27.9825 275.221 27.8076 275.789 27.4579L276.402 30.5194C275.479 31.1085 274.29 31.4028 272.834 31.4023C271.485 31.4023 270.402 31.0346 269.586 30.2993C268.769 29.5639 268.361 28.5518 268.36 27.2628C268.367 26.8276 268.411 26.3937 268.494 25.9663L269.639 19.9807H267.429L268.067 16.671H270.278L270.97 13.0576H275.123L274.431 16.671H277.999L277.359 19.9807H273.791L272.647 25.9405Z" fill="white"/>
<path d="M12.502 13.2427C14.4413 12.8088 16.407 12.503 18.3864 12.3272C19.5282 10.7012 20.7757 9.15209 22.1207 7.68978C21.5189 7.10375 20.9167 6.56579 20.3139 6.07591C17.3888 3.69914 14.8653 2.82465 13.391 3.67561C11.9167 4.52657 11.4119 7.15005 12.0078 10.8712C12.1301 11.6356 12.2986 12.4281 12.502 13.2427Z" fill="white"/>
<path d="M32.3665 23.1484C31.9687 23.9182 31.5481 24.6869 31.1048 25.4546C30.6614 26.2223 30.2059 26.9708 29.7383 27.7001C31.1519 27.5262 32.5092 27.2932 33.79 27.0047C33.4035 25.7514 32.9222 24.4594 32.3665 23.1484Z" fill="white"/>
<path d="M17.0524 14.3066C15.6389 14.4812 14.2815 14.7143 13 15.0027C13.391 16.256 13.8685 17.548 14.4242 18.859C14.822 18.0893 15.2423 17.3206 15.6852 16.5528C16.128 15.7851 16.5838 15.0364 17.0524 14.3066Z" fill="white"/>
<path d="M17.0522 27.7001C16.5845 26.9703 16.129 26.2218 15.6857 25.4546C15.2423 24.6874 14.8217 23.9187 14.4239 23.1484C13.8682 24.4594 13.3907 25.7514 13.0005 27.0047C14.2812 27.2932 15.6386 27.5262 17.0522 27.7001Z" fill="white"/>
<path d="M29.7373 14.3066C30.206 15.0364 30.6615 15.7851 31.1038 16.5528C31.5462 17.3206 31.9667 18.0893 32.3655 18.859C32.9213 17.548 33.3988 16.256 33.789 15.0027C32.509 14.7143 31.1516 14.4812 29.7373 14.3066Z" fill="white"/>
<path d="M39.1557 13.2035C38.7047 13.0312 38.2371 12.868 37.7565 12.7124C37.8623 12.2184 37.9536 11.7329 38.0306 11.2556C38.8656 6.05193 37.821 2.31863 35.0926 0.744241C34.2202 0.246847 33.2309 -0.00890413 32.2267 0.00335024C29.9317 0.00335024 27.3392 1.16479 24.5212 3.45578C24.1461 3.75942 23.7711 4.08356 23.3961 4.42137C23.021 4.08356 22.646 3.76018 22.271 3.45578C19.4514 1.16479 16.8589 0.00335024 14.5639 0.00335024C13.5595 -0.00878252 12.57 0.246956 11.6973 0.744241C8.96958 2.31863 7.92648 6.05193 8.76005 11.2556C8.83597 11.7323 8.92858 12.2182 9.03411 12.7124C8.55355 12.868 8.08591 13.0312 7.63496 13.2035C2.71175 15.0838 0 17.8538 0 21.0034C0 24.1529 2.71175 26.9244 7.63496 28.8032C8.08591 28.9748 8.55355 29.1387 9.03411 29.2943C8.92858 29.7878 8.83597 30.2744 8.76005 30.7511C7.92496 35.9548 8.96958 39.6881 11.6973 41.2625C12.57 41.7598 13.5595 42.0156 14.5639 42.0033C16.8589 42.0033 19.4514 40.8419 22.2702 38.5509C22.6452 38.2473 23.0203 37.9231 23.3953 37.5853C23.7703 37.9231 24.1454 38.2465 24.5204 38.5509C27.3392 40.8419 29.9317 42.0033 32.2267 42.0033C33.2309 42.0156 34.2202 41.7599 35.0926 41.2625C37.821 39.6881 38.8641 35.9548 38.0306 30.7511C37.9546 30.2744 37.862 29.7878 37.7565 29.2943C38.2371 29.1387 38.7047 28.9748 39.1557 28.8032C44.0789 26.9229 46.7906 24.1529 46.7906 21.0034C46.7906 17.8538 44.0789 15.0838 39.1557 13.2035ZM38.5157 27.5051C37.7428 27.8004 36.9214 28.0707 36.0582 28.3136C36.2784 29.183 36.4555 30.0271 36.5897 30.846C37.32 35.4234 36.516 38.642 34.3144 39.9128C33.6482 40.2899 32.8935 40.4827 32.128 40.4715C30.1997 40.4715 27.863 39.4087 25.3251 37.3477C24.6829 36.8262 24.0383 36.2493 23.3961 35.6246C22.7538 36.2493 22.1093 36.8262 21.467 37.3477C18.9291 39.411 16.5924 40.4715 14.6641 40.4715C13.8986 40.4831 13.1438 40.2902 12.4777 39.9128C10.2761 38.6428 9.47139 35.4234 10.2047 30.846C10.3353 30.0281 10.5125 29.184 10.7362 28.3136C9.87451 28.0707 9.05233 27.8004 8.27949 27.5051C3.95223 25.8518 1.56313 23.5426 1.56313 21.0034C1.56313 18.4641 3.94768 16.1549 8.27494 14.5023C9.04777 14.207 9.86919 13.9368 10.7316 13.6939C10.5115 12.8247 10.3346 11.9783 10.2002 11.1615C9.46684 6.58407 10.2761 3.36469 12.4731 2.0947C14.6702 0.824706 17.8632 1.73564 21.4625 4.65897C22.1085 5.18048 22.753 5.7574 23.3953 6.37987C24.0376 5.75512 24.6821 5.1782 25.3244 4.65593C28.9243 1.73488 32.1128 0.823947 34.3144 2.09394C36.516 3.36393 37.32 6.58331 36.5866 11.1623C36.456 11.9791 36.2784 12.8255 36.0552 13.6946C36.9176 13.9376 37.7398 14.2078 38.5126 14.5031C42.8437 16.1564 45.229 18.4656 45.229 21.0049C45.229 23.5441 42.8467 25.8518 38.5157 27.5051Z" fill="white"/>
<path d="M34.2885 28.7637C32.3492 29.1975 30.3836 29.5033 28.4042 29.6792C27.2633 31.3045 26.0168 32.8531 24.6729 34.315C25.2751 34.9011 25.8774 35.439 26.4797 35.9289C29.404 38.3057 31.9275 39.1802 33.4025 38.3292C34.8776 37.4782 35.3817 34.8548 34.7857 31.1336C34.6597 30.3677 34.4942 29.5782 34.2885 28.7637Z" fill="white"/>
<path d="M11.2272 15.4502C10.4187 15.6779 9.6497 15.9315 8.92621 16.2093C5.40518 17.5537 3.38428 19.3012 3.38428 21.0046C3.38428 22.708 5.40367 24.4555 8.92621 25.7999C9.6497 26.0762 10.4187 26.3313 11.2272 26.559C11.821 24.6629 12.539 22.8079 13.3765 21.0061C12.5389 19.2033 11.8209 17.3473 11.2272 15.4502Z" fill="white"/>
<path d="M37.8643 16.2083C37.1408 15.932 36.371 15.677 35.5633 15.4492C34.9695 17.3453 34.2515 19.2003 33.4141 21.0021C34.2515 22.8039 34.9695 24.6589 35.5633 26.555C36.371 26.3273 37.1408 26.0737 37.8643 25.7959C41.3853 24.4515 43.4062 22.7033 43.4062 21.0006C43.4062 19.2979 41.3853 17.5527 37.8643 16.2083Z" fill="white"/>
<path d="M33.4033 3.6762C33.0069 3.45722 32.5594 3.34746 32.1067 3.35813C30.6384 3.35813 28.6722 4.29563 26.4805 6.0765C25.8792 6.56537 25.2769 7.10332 24.6737 7.69037L23.4051 9.01274C23.4051 9.00894 23.4051 9.01274 23.4051 9.01274C22.5146 9.97756 21.6248 11.0251 20.767 12.1623C21.6324 12.1213 22.5131 12.1008 23.3952 12.1008C23.7513 12.1008 24.1058 12.1053 24.4581 12.1122L22.8684 13.9302C21.6901 13.9416 20.5286 13.9902 19.3944 14.0752C18.6588 15.1547 17.9467 16.2888 17.2687 17.4654C16.5908 18.642 15.963 19.8262 15.3959 21.0029C15.963 22.1795 16.5893 23.3629 17.2687 24.5403C17.5694 25.0611 17.8763 25.5732 18.1896 26.0768L16.71 29.4927C15.2448 29.3083 13.8342 29.0638 12.5027 28.761C12.2962 29.5755 12.1307 30.368 12.0084 31.1324C11.4125 34.8521 11.9166 37.4763 13.3916 38.328C14.8667 39.1797 17.3894 38.3045 20.3145 35.9277C20.9158 35.4388 21.518 34.9009 22.1213 34.3138L23.396 33.0029C24.2857 32.0373 25.1664 30.9783 26.0242 29.8412C25.1588 29.8814 24.2781 29.9027 23.396 29.9027C23.1128 29.9027 22.8312 29.9027 22.5495 29.8951L24.1521 28.0694C25.2514 28.0542 26.3355 28.0072 27.396 27.9282C28.1317 26.8488 28.8438 25.7147 29.5217 24.538C30.1996 23.3614 30.8275 22.1772 31.3946 21.0006C30.8275 19.824 30.2012 18.6405 29.5217 17.4631C29.218 16.9394 28.9096 16.4249 28.5963 15.9199L30.1541 12.5175C31.5965 12.7012 32.9782 12.9419 34.2878 13.2402C34.4935 12.4257 34.659 11.6332 34.782 10.8688C35.3772 7.15064 34.8746 4.52792 33.4033 3.6762ZM25.5186 19.1248L28.203 19.5803C28.3283 19.602 28.4456 19.6567 28.5428 19.7386C28.64 19.8206 28.7137 19.927 28.7562 20.0469C28.7987 20.1667 28.8085 20.2957 28.7847 20.4206C28.7609 20.5456 28.7042 20.6619 28.6206 20.7577L15.7306 35.4449L21.0167 23.2324L18.5115 22.8088C18.3858 22.7875 18.268 22.733 18.1703 22.6511C18.0727 22.5691 17.9986 22.4626 17.9558 22.3426C17.9129 22.2225 17.9029 22.0931 17.9266 21.9679C17.9504 21.8426 18.0071 21.726 18.0909 21.6299L31.3004 6.51906L25.5186 19.1248Z" fill="white"/>
</g>
<defs>
<clipPath id="clip0">
<rect y="0.00390625" width="278" height="42" fill="white"/>
</clipPath>
</defs>
</svg>
