<?xml version="1.0" encoding="utf-8"?>
<!-- Generator: Adobe Illustrator 24.1.2, SVG Export Plug-In . SVG Version: 6.00 Build 0)  -->
<svg version="1.1" id="Layer_1" xmlns="http://www.w3.org/2000/svg" xmlns:xlink="http://www.w3.org/1999/xlink" x="0px" y="0px"
	 viewBox="0 0 1440 600" style="enable-background:new 0 0 1440 600;" xml:space="preserve">
<style type="text/css">
	.st0{fill:#AEAEAE;}
	.st1{fill:url(#SVGID_1_);fill-opacity:0.5;}
	.st2{fill:none;stroke:#2C80FF;stroke-width:5;}
	.st3{fill:url(#SVGID_2_);}
	.st4{fill:none;stroke:#52BB6D;stroke-width:5;}
	.st5{fill:none;stroke:#AEAEAE;stroke-width:6;stroke-linecap:round;}
	.st6{fill:#2D81FF;}
	.st7{fill:#F2F3F8;}
	.st8{fill:#52BB6D;}
</style>
<g>
	<g>
		<path class="st0" d="M357,512.5c0,1.7,1.3,3,3,3s3-1.3,3-3H357z M357,504.5v8h6v-8H357z"/>
		<path class="st0" d="M599,512.5c0,1.7,1.3,3,3,3s3-1.3,3-3H599z M599,504.5v8h6v-8H599z"/>
		<path class="st0" d="M850,512.5c0,1.7,1.3,3,3,3s3-1.3,3-3H850z M850,504.5v8h6v-8H850z"/>
		<path class="st0" d="M1095,512.5c0,1.7,1.3,3,3,3s3-1.3,3-3H1095z M1095,504.5v8h6v-8H1095z"/>
		<path class="st0" d="M1341,512.5c0,1.7,1.3,3,3,3s3-1.3,3-3H1341z M1341,504.5v8h6v-8H1341z"/>
		
			<linearGradient id="SVGID_1_" gradientUnits="userSpaceOnUse" x1="760.514" y1="231.4015" x2="760.764" y2="105.9995" gradientTransform="matrix(1 0 0 -1 0 602)">
			<stop  offset="0" style="stop-color:#2D81FF"/>
			<stop  offset="1" style="stop-color:#2D81FF;stop-opacity:0"/>
		</linearGradient>
		<path class="st1" d="M263.5,454c-32,29.6-72.7,40.3-89,42v9.5l1172.5-1v-32c-68,1-522.5-7.5-694.5-36c-194-32.1-184.5-66-259-66
			C329.5,370.5,303.5,417,263.5,454z"/>
		<path class="st2" d="M174.5,496c16.3-1.7,57-12.4,89-42c40-37,66-83.5,130-83.5c74.5,0,65,33.9,259,66c172,28.5,626.5,37,694.5,36
			"/>
		
			<linearGradient id="SVGID_2_" gradientUnits="userSpaceOnUse" x1="731.5" y1="519.0912" x2="731.5" y2="100.5" gradientTransform="matrix(1 0 0 -1 0 602)">
			<stop  offset="0" style="stop-color:#4FBA6D"/>
			<stop  offset="1" style="stop-color:#4FBA6D;stop-opacity:0"/>
		</linearGradient>
		<path class="st3" d="M116,153c0,18.4-1,233.7-1,339l1233,9.5v-13c-295.5,0-847.5,5-958.5-29.5S252.5,341.5,219,240
			S166.2,86.9,145,83C131.5,80.5,116,130,116,153z"/>
		<path class="st4" d="M115,492c0-105.3,1-320.6,1-339c0-23,15.5-72.5,29-70c21.2,3.9,40.5,55.5,74,157s59.5,184.5,170.5,219
			s663,29.5,958.5,29.5"/>
		<path class="st5" d="M115,64.5V522"/>
		<path class="st0" d="M74.9,357.1c0,2.4,1.6,3.8,4.2,3.8c2.6,0,4.2-1.5,4.2-3.8c0-2.4-1.6-3.8-4.2-3.8
			C76.5,353.2,74.9,354.7,74.9,357.1z M75,347.9l14,10.1v-2.9l-14-10.1V347.9z M76.7,357.1c0-1.2,0.9-1.9,2.5-1.9
			c1.6,0,2.5,0.7,2.5,1.9c0,1.2-0.9,1.8-2.5,1.8C77.6,358.9,76.7,358.2,76.7,357.1z M80.6,345.9c0,2.4,1.6,3.8,4.2,3.8
			c2.6,0,4.2-1.5,4.2-3.8c0-2.4-1.6-3.8-4.2-3.8C82.2,342.1,80.6,343.6,80.6,345.9z M82.3,345.9c0-1.2,0.9-1.9,2.5-1.9
			c1.6,0,2.5,0.7,2.5,1.9c0,1.2-0.9,1.8-2.5,1.8C83.3,347.8,82.3,347.1,82.3,345.9z M78.1,330.3c0,3.5,2.2,5.8,5.5,5.8
			c3.3,0,5.5-2.3,5.5-5.8c0-3.4-2.2-5.8-5.5-5.8C80.3,324.5,78.1,326.8,78.1,330.3z M80.7,330.3c0-1.6,1.2-2.7,3-2.7
			c1.8,0,3,1.1,3,2.7c0,1.6-1.2,2.7-3,2.7C81.9,332.9,80.7,331.9,80.7,330.3z M76.6,317.7c0-0.4,0.2-0.9,0.5-1.3l-2.2-1.1
			c-0.5,0.8-0.8,1.8-0.8,2.8c0,2.2,1.3,4,3.7,4h1v1.4h2.1V322H89V319h-8.1v-2.5h-2.1v2.5h-0.9C77,319,76.6,318.4,76.6,317.7z
			 M78.1,303.8c0,1.5,0.6,2.6,1.7,3.4h-1.6v3.1h14.6v-3.1h-5.4c1.1-0.8,1.7-2,1.7-3.5c0-3-2.2-5-5.4-5
			C80.4,298.7,78.1,300.7,78.1,303.8z M86.6,304.5c0,1.6-1.2,2.7-3,2.7c-1.7,0-3-1.1-3-2.7c0-1.6,1.2-2.7,3-2.7
			C85.3,301.8,86.6,302.9,86.6,304.5z M89,287.4l-7,0c-2.4,0-3.9,1.7-3.9,4.6c0,1.9,0.4,3.3,1.2,4.9l2.1-1c-0.6-1.1-0.9-2.2-0.9-3.2
			c0-1.5,0.7-2.2,1.8-2.2h0.2v3c0,2.6,1.2,4.1,3.2,4.1c2,0,3.4-1.4,3.4-3.7c0-1.5-0.5-2.7-1.4-3.4H89V287.4z M86.9,293
			c0,1-0.5,1.7-1.4,1.7c-0.9,0-1.2-0.6-1.2-1.8v-2.4h1C86.2,290.6,86.9,291.6,86.9,293z M78.2,277.7h1.5c-1,0.7-1.6,1.9-1.6,3.3
			c0,2.7,2.1,4.6,5.1,4.6c3.1,0,5.2-1.9,5.2-4.7c0-1.4-0.6-2.5-1.6-3.2h1.2c1.5,0,2.4,1.1,2.4,2.9c0,1.2-0.4,2.4-1.1,3.3l2.2,1.1
			c0.8-1.2,1.4-2.9,1.4-4.7c0-3.4-1.9-5.7-5-5.7h-9.8V277.7z M86.1,280.3c0,1.5-1.1,2.5-2.8,2.5c-1.6,0-2.8-1-2.8-2.5
			s1.1-2.5,2.8-2.5C85,277.7,86.1,278.8,86.1,280.3z M78.1,267.2c0,3.3,2.2,5.5,5.5,5.5c3.3,0,5.5-2.2,5.5-5.6
			c0-1.9-0.7-3.5-1.9-4.6l-1.6,1.6c0.7,0.7,1.1,1.7,1.1,2.7c0,1.4-0.8,2.4-2.2,2.8V262C80.6,261.7,78.1,263.5,78.1,267.2z
			 M82.7,269.7c-1.4-0.2-2.3-1.2-2.3-2.5c0-1.4,0.9-2.3,2.3-2.4V269.7z M81.4,253.2l-2.1-1.1c-0.8,1.2-1.2,2.7-1.2,4.2
			c0,2.3,1.1,4.2,3.4,4.2c3.8,0,2.9-5.6,4.6-5.6c0.6,0,0.8,0.6,0.8,1.4c0,1.2-0.5,2.6-1.3,3.7l2.1,1c1-1.2,1.5-2.9,1.5-4.7
			c0-2.4-1.2-4.4-3.4-4.4c-3.8,0-3,5.7-4.6,5.7c-0.6,0-0.8-0.5-0.8-1.2C80.4,255.5,80.7,254.3,81.4,253.2z"/>
		<path class="st6" d="M573.1,336.6v25.2c0,2-1.6,3.6-3.6,3.6H468.6c-2,0-3.6-1.6-3.6-3.6v-25.2c0-2,1.6-3.6,3.6-3.6h100.9
			C571.5,333,573.1,334.6,573.1,336.6z"/>
		<path class="st6" d="M492.8,362.3l-8.9,8.9l-8.9-8.9l8.9-8.9L492.8,362.3z"/>
		<path class="st7" d="M494.1,342.2h-6.3v13.7h6.5c3.2,0,5.2-1.4,5.2-3.8c0-1.8-1.1-3.1-2.9-3.5c1.5-0.4,2.4-1.5,2.4-3
			C499,343.5,497.1,342.2,494.1,342.2z M493.9,347.7h-3v-3h3c1.2,0,1.9,0.5,1.9,1.5C495.8,347.2,495.1,347.7,493.9,347.7z
			 M493.9,353.4h-3v-3.3h3c1.5,0,2.4,0.6,2.4,1.6C496.3,352.8,495.4,353.4,493.9,353.4z M506.1,345.3c-3.2,0-5.4,2.2-5.4,5.4
			c0,3.2,2.1,5.3,5.5,5.3c1.9,0,3.4-0.7,4.5-1.9l-1.6-1.6c-0.7,0.7-1.7,1.1-2.7,1.1c-1.4,0-2.4-0.8-2.7-2.1h7.5
			C511.5,347.7,509.8,345.3,506.1,345.3z M503.6,349.8c0.2-1.4,1.1-2.3,2.5-2.3c1.4,0,2.3,0.9,2.3,2.3H503.6z M517.9,343.7
			c0.4,0,0.9,0.2,1.3,0.5l1.1-2.2c-0.7-0.5-1.8-0.7-2.8-0.7c-2.1,0-3.9,1.3-3.9,3.6v1h-1.4v2.1h1.4v8h3v-8h2.5v-2.1h-2.5V345
			C516.7,344.1,517.2,343.7,517.9,343.7z M525.2,345.3c-3.4,0-5.7,2.1-5.7,5.4c0,3.2,2.3,5.4,5.7,5.4c3.4,0,5.6-2.2,5.6-5.4
			C530.8,347.4,528.5,345.3,525.2,345.3z M525.2,347.8c1.5,0,2.6,1.2,2.6,2.9c0,1.7-1.1,2.9-2.6,2.9c-1.6,0-2.6-1.2-2.6-2.9
			C522.6,349,523.6,347.8,525.2,347.8z M535.7,347.3v-1.9h-3v10.5h3v-5.1c0-1.8,1.3-2.9,3.5-2.7v-2.8
			C537.7,345.3,536.5,346,535.7,347.3z M545.3,345.3c-3.2,0-5.4,2.2-5.4,5.4c0,3.2,2.1,5.3,5.5,5.3c1.9,0,3.4-0.7,4.5-1.9l-1.6-1.6
			c-0.7,0.7-1.7,1.1-2.7,1.1c-1.4,0-2.4-0.8-2.7-2.1h7.5C550.7,347.7,549,345.3,545.3,345.3z M542.9,349.8c0.2-1.4,1.1-2.3,2.5-2.3
			c1.4,0,2.3,0.9,2.3,2.3H542.9z"/>
		<path class="st8" d="M303.1,77.6v25.2c0,2-1.6,3.6-3.6,3.6H198.6c-2,0-3.6-1.6-3.6-3.6V77.6c0-2,1.6-3.6,3.6-3.6h100.9
			C301.5,74,303.1,75.6,303.1,77.6z"/>
		<path class="st8" d="M222.8,103.3l-8.9,8.9l-8.9-8.9l8.9-8.9L222.8,103.3z"/>
		<path class="st7" d="M235.7,96.9h3.3l-5.8-13.7h-3.2L224,96.9h3.2l1.1-2.7h6.3L235.7,96.9z M229.3,91.8l2.2-5.3l2.2,5.3H229.3z
			 M245,84.7c0.4,0,0.9,0.2,1.3,0.5l1.1-2.2c-0.7-0.5-1.8-0.7-2.8-0.7c-2.1,0-3.9,1.3-3.9,3.6v1h-1.4V89h1.4v8h3v-8h2.5v-2.1h-2.5
			V86C243.8,85.1,244.3,84.7,245,84.7z M253.4,94.1c-0.6,0.3-1,0.4-1.4,0.4c-0.6,0-1-0.3-1-1.2V89h2.9v-2.1H251V84h-3v2.9h-1.5v2.1
			h1.5v4.9c0,2.2,1.4,3.2,3.3,3.2c1,0,2-0.3,2.7-0.7L253.4,94.1z M260.3,86.3c-3.2,0-5.4,2.2-5.4,5.4c0,3.2,2.1,5.3,5.5,5.3
			c1.9,0,3.4-0.7,4.5-1.9l-1.6-1.6c-0.7,0.7-1.7,1.1-2.7,1.1c-1.4,0-2.4-0.8-2.7-2.1h7.5C265.7,88.7,264,86.3,260.3,86.3z
			 M257.9,90.8c0.2-1.4,1.1-2.3,2.5-2.3c1.4,0,2.3,0.9,2.3,2.3H257.9z M270.4,88.3v-1.9h-3v10.5h3v-5.1c0-1.8,1.3-2.9,3.5-2.7v-2.8
			C272.3,86.3,271.1,87,270.4,88.3z"/>
		<path class="st0" d="M109.7,536c-3.7,0-5.7,2.7-5.7,7.4c0,4.8,2,7.4,5.7,7.4c3.6,0,5.7-2.6,5.7-7.4
			C115.3,538.7,113.3,536,109.7,536z M109.7,538.5c1.7,0,2.5,1.5,2.5,5c0,3.5-0.8,5-2.5,5c-1.7,0-2.5-1.5-2.5-5
			C107.2,540,108,538.5,109.7,538.5z M124.7,542.9l1.1-2.2c-1.3-0.8-2.9-1.3-4.4-1.3c-2.5,0-4.4,1.2-4.4,3.5c0,4,5.9,3,5.9,4.8
			c0,0.6-0.6,0.9-1.4,0.9c-1.2,0-2.7-0.5-3.9-1.4l-1,2.2c1.3,1,3.1,1.6,4.9,1.6c2.6,0,4.6-1.2,4.6-3.5c0-4-5.9-3.1-5.9-4.8
			c0-0.6,0.5-0.8,1.3-0.8C122.2,541.8,123.5,542.2,124.7,542.9z"/>
		<path class="st0" d="M350,536.2v2.8h2.9v11.9h3.3v-14.7H350z M369.4,542.9l1.1-2.2c-1.3-0.8-2.9-1.3-4.4-1.3
			c-2.5,0-4.4,1.2-4.4,3.5c0,4,5.9,3,5.9,4.8c0,0.6-0.6,0.9-1.4,0.9c-1.2,0-2.7-0.5-3.9-1.4l-1,2.2c1.3,1,3.1,1.6,4.9,1.6
			c2.6,0,4.6-1.2,4.6-3.5c0-4-5.9-3.1-5.9-4.8c0-0.6,0.6-0.8,1.3-0.8C367,541.8,368.2,542.2,369.4,542.9z"/>
		<path class="st0" d="M596.8,543l-5.4,5.6v2.3h11v-2.8h-6.8l3.4-3.4c1.6-1.7,2.8-3.3,2.8-4.9c0-2.3-2.1-3.8-5-3.8
			c-2.1,0-4.1,0.8-5.9,2.2l1.3,2.5c1.3-1.1,2.8-1.8,4.1-1.8c1.3,0,2,0.5,2,1.5C598.4,541,597.7,542,596.8,543z M611.9,542.9l1.1-2.2
			c-1.3-0.8-2.9-1.3-4.4-1.3c-2.5,0-4.4,1.2-4.4,3.5c0,4,5.9,3,5.9,4.8c0,0.6-0.6,0.9-1.4,0.9c-1.2,0-2.7-0.5-3.9-1.4l-1,2.2
			c1.3,1,3.1,1.6,4.9,1.6c2.6,0,4.6-1.2,4.6-3.5c0-4-5.9-3.1-5.9-4.8c0-0.6,0.5-0.8,1.3-0.8C609.4,541.8,610.6,542.2,611.9,542.9z"
			/>
		<path class="st0" d="M849.3,542.3l-0.8-0.1l4.3-4v-2h-10v2.7h6l-3.8,3.6v1.8h2.3c1.9,0,2.9,0.7,2.9,2c0,1.3-1,2.1-2.9,2.1
			c-1.4,0-2.9-0.6-4-1.7l-1.3,2.6c1.4,1,3.5,1.7,5.6,1.7c3.6,0,5.9-2,5.9-4.7C853.5,544,851.8,542.5,849.3,542.3z M863.2,542.9
			l1.1-2.2c-1.3-0.8-2.9-1.3-4.4-1.3c-2.5,0-4.4,1.2-4.4,3.5c0,4,5.9,3,5.9,4.8c0,0.6-0.6,0.9-1.4,0.9c-1.2,0-2.7-0.5-3.9-1.4
			l-1,2.2c1.3,1,3.1,1.6,4.9,1.6c2.6,0,4.6-1.2,4.6-3.5c0-4-5.9-3.1-5.9-4.8c0-0.6,0.5-0.8,1.3-0.8
			C860.7,541.8,862,542.2,863.2,542.9z"/>
		<path class="st0" d="M1091.7,536.2l-4.7,9.1v2.3h6.8v3.3h3v-3.3h2v-2.7h-2l0-3.2h-3v3.2h-3.4l4.4-8.7H1091.7z M1107.9,542.9
			l1.1-2.2c-1.3-0.8-2.8-1.3-4.4-1.3c-2.5,0-4.4,1.2-4.4,3.5c0,4,5.9,3,5.9,4.8c0,0.6-0.6,0.9-1.4,0.9c-1.2,0-2.8-0.5-3.9-1.4
			l-1.1,2.2c1.3,1,3.1,1.6,4.9,1.6c2.6,0,4.6-1.2,4.6-3.5c0-4-5.9-3.1-5.9-4.8c0-0.6,0.6-0.8,1.3-0.8
			C1105.4,541.8,1106.6,542.2,1107.9,542.9z"/>
		<path class="st0" d="M1337.3,541.5v-2.6h6.6v-2.8h-9.6v8.2c1-0.1,3.2-0.1,4.1-0.1c1.7,0,2.7,0.7,2.7,2c0,1.4-1,2.2-2.7,2.2
			c-1.4,0-2.8-0.6-3.9-1.7l-1.3,2.6c1.6,1.1,3.8,1.8,5.7,1.8c3.6,0,5.9-2,5.9-5c0-2.6-2.2-4.4-5.6-4.4H1337.3z M1354,542.9l1.1-2.2
			c-1.3-0.8-2.9-1.3-4.4-1.3c-2.4,0-4.4,1.2-4.4,3.5c0,4,5.8,3,5.8,4.8c0,0.6-0.6,0.9-1.4,0.9c-1.2,0-2.8-0.5-3.9-1.4l-1.1,2.2
			c1.3,1,3.1,1.6,4.9,1.6c2.6,0,4.6-1.2,4.6-3.5c0-4-5.9-3.1-5.9-4.8c0-0.6,0.6-0.8,1.3-0.8C1351.5,541.8,1352.8,542.2,1354,542.9z"
			/>
	</g>
</g>
</svg>
