<?xml version="1.0"?>
<svg xmlns="http://www.w3.org/2000/svg" width="64" height="64" viewBox="0 0 64 64" fill="none">
<path d="M31.9001 62.3642C48.6891 62.3642 62.2993 48.7541 62.2993 31.9651C62.2993 15.1761 48.6891 1.56592 31.9001 1.56592C15.1111 1.56592 1.50098 15.1761 1.50098 31.9651C1.50098 48.7541 15.1111 62.3642 31.9001 62.3642Z" fill="white"/>
<path d="M32.0002 62.8351C14.9968 62.8351 1.16504 49.0017 1.16504 31.9999C1.16504 14.9982 14.9968 1.16479 32.0002 1.16479C49.0036 1.16479 62.8353 14.9965 62.8353 31.9999C62.8353 49.0034 49.002 62.8351 32.0002 62.8351ZM32.0002 2.16323C15.5476 2.16323 2.16348 15.5473 2.16348 31.9999C2.16348 48.4526 15.5476 61.8367 32.0002 61.8367C48.4528 61.8367 61.8369 48.4509 61.8369 31.9999C61.8369 15.549 48.4512 2.16323 32.0002 2.16323Z" fill="#A9A9AC"/>
<path d="M32.0002 6.41821C17.8939 6.41821 6.41846 17.9003 6.41846 31.9999C6.41846 46.0995 17.8939 57.5766 32.0002 57.5766C46.1064 57.5766 57.5769 46.1045 57.5769 31.9999C57.5769 17.8953 46.1048 6.41821 32.0002 6.41821Z" fill="#3BA1DA"/>
<path d="M26.4356 44.1296H23.3554C20.4437 44.126 17.6522 42.9678 15.5932 40.9089C13.5343 38.85 12.3761 36.0585 12.3726 33.1467V30.852C12.3761 27.9402 13.5343 25.1487 15.5932 23.0898C17.6522 21.0309 20.4437 19.8727 23.3554 19.8691H26.4356C26.7004 19.8691 26.9543 19.9743 27.1416 20.1616C27.3288 20.3488 27.434 20.6028 27.434 20.8676V43.1311C27.434 43.3959 27.3288 43.6499 27.1416 43.8371C26.9543 44.0244 26.7004 44.1296 26.4356 44.1296ZM23.3554 21.866C20.9731 21.8691 18.6893 22.8168 17.0048 24.5014C15.3202 26.1859 14.3725 28.4697 14.3694 30.852V33.1467C14.3721 35.5291 15.3197 37.8132 17.0043 39.4978C18.6889 41.1825 20.973 42.13 23.3554 42.1327H25.4371V21.866H23.3554Z" fill="white"/>
<path d="M40.7578 43.1326H37.6776V20.869H40.7578C43.4058 20.869 45.9454 21.9209 47.8178 23.7934C49.6903 25.6658 50.7422 28.2054 50.7422 30.8534V33.1482C50.7422 35.7962 49.6903 38.3358 47.8178 40.2082C45.9454 42.0806 43.4058 43.1326 40.7578 43.1326Z" fill="white"/>
<path d="M40.7564 44.1296H37.6762C37.4114 44.1296 37.1574 44.0244 36.9702 43.8371C36.7829 43.6499 36.6777 43.3959 36.6777 43.1311V20.8676C36.6777 20.6028 36.7829 20.3488 36.9702 20.1616C37.1574 19.9743 37.4114 19.8691 37.6762 19.8691H40.7564C43.6683 19.8722 46.46 21.0303 48.519 23.0893C50.578 25.1484 51.7361 27.9401 51.7392 30.852V33.1467C51.7361 36.0586 50.578 38.8503 48.519 40.9094C46.46 42.9684 43.6683 44.1265 40.7564 44.1296ZM38.6746 42.1327H40.7564C43.1388 42.13 45.4229 41.1825 47.1075 39.4978C48.7921 37.8132 49.7397 35.5291 49.7423 33.1467V30.852C49.7397 28.4696 48.7921 26.1855 47.1075 24.5009C45.4229 22.8162 43.1388 21.8687 40.7564 21.866H38.6746V42.1327Z" fill="white"/>
<path d="M31.4658 27.6385H26.685C26.4202 27.6385 26.1662 27.5333 25.979 27.346C25.7917 27.1588 25.6865 26.9048 25.6865 26.64C25.6865 26.3752 25.7917 26.1213 25.979 25.934C26.1662 25.7468 26.4202 25.6416 26.685 25.6416H31.4658C31.7306 25.6416 31.9846 25.7468 32.1718 25.934C32.3591 26.1213 32.4643 26.3752 32.4643 26.64C32.4643 26.9048 32.3591 27.1588 32.1718 27.346C31.9846 27.5333 31.7306 27.6385 31.4658 27.6385Z" fill="white"/>
<path d="M31.4658 38.5347H26.685C26.4202 38.5347 26.1662 38.4295 25.979 38.2423C25.7917 38.055 25.6865 37.8011 25.6865 37.5363C25.6865 37.2715 25.7917 37.0175 25.979 36.8303C26.1662 36.643 26.4202 36.5378 26.685 36.5378H31.4658C31.7306 36.5378 31.9846 36.643 32.1718 36.8303C32.3591 37.0175 32.4643 37.2715 32.4643 37.5363C32.4643 37.8011 32.3591 38.055 32.1718 38.2423C31.9846 38.4295 31.7306 38.5347 31.4658 38.5347Z" fill="white"/>
<path d="M58.6882 32.8138H50.7855C50.5207 32.8138 50.2668 32.7086 50.0795 32.5214C49.8923 32.3341 49.7871 32.0801 49.7871 31.8153C49.7871 31.5505 49.8923 31.2966 50.0795 31.1093C50.2668 30.9221 50.5207 30.8169 50.7855 30.8169H58.6882C58.953 30.8169 59.207 30.9221 59.3942 31.1093C59.5814 31.2966 59.6866 31.5505 59.6866 31.8153C59.6866 32.0801 59.5814 32.3341 59.3942 32.5214C59.207 32.7086 58.953 32.8138 58.6882 32.8138Z" fill="white"/>
<path d="M13.1843 32.8138H5.28164C5.01684 32.8138 4.76288 32.7086 4.57564 32.5214C4.3884 32.3341 4.2832 32.0801 4.2832 31.8153C4.2832 31.5505 4.3884 31.2966 4.57564 31.1093C4.76288 30.9221 5.01684 30.8169 5.28164 30.8169H13.1843C13.3154 30.8169 13.4452 30.8427 13.5664 30.8929C13.6875 30.9431 13.7976 31.0166 13.8903 31.1093C13.983 31.202 14.0566 31.3121 14.1067 31.4333C14.1569 31.5544 14.1827 31.6842 14.1827 31.8153C14.1827 31.9465 14.1569 32.0763 14.1067 32.1974C14.0566 32.3186 13.983 32.4286 13.8903 32.5214C13.7976 32.6141 13.6875 32.6876 13.5664 32.7378C13.4452 32.788 13.3154 32.8138 13.1843 32.8138Z" fill="white"/>
</svg>
