<?xml version="1.0"?>
<svg xmlns="http://www.w3.org/2000/svg" width="64" height="64" viewBox="0 0 64 64" fill="none">
<path d="M32.3845 62.4707C49.1735 62.4707 62.7837 48.8605 62.7837 32.0715C62.7837 15.2825 49.1735 1.67236 32.3845 1.67236C15.5955 1.67236 1.98535 15.2825 1.98535 32.0715C1.98535 48.8605 15.5955 62.4707 32.3845 62.4707Z" fill="white"/>
<path d="M32.0002 62.8351C14.9968 62.8351 1.16504 49.0017 1.16504 31.9999C1.16504 14.9982 14.9968 1.16479 32.0002 1.16479C49.0036 1.16479 62.8354 14.9965 62.8354 31.9999C62.8354 49.0034 49.002 62.8351 32.0002 62.8351ZM32.0002 2.16323C15.5476 2.16323 2.16348 15.5473 2.16348 31.9999C2.16348 48.4526 15.5476 61.8367 32.0002 61.8367C48.4528 61.8367 61.8369 48.4509 61.8369 31.9999C61.8369 15.549 48.4512 2.16323 32.0002 2.16323Z" fill="#A9A9AC"/>
<path d="M32.0002 6.41821C17.8939 6.41821 6.41846 17.9003 6.41846 31.9999C6.41846 46.0995 17.8939 57.5766 32.0002 57.5766C46.1064 57.5766 57.5769 46.1045 57.5769 31.9999C57.5769 17.8953 46.1048 6.41821 32.0002 6.41821Z" fill="#3BA1DA"/>
<path d="M28.5055 40.3204H24.1973C24.1838 40.2663 24.1589 40.2158 24.124 40.1723C23.4351 38.9875 22.7451 37.8032 22.0539 36.6195C22.031 36.5835 22.017 36.5424 22.0132 36.4998C22.0095 36.4573 22.016 36.4144 22.0323 36.3749C22.6868 34.3625 23.3397 32.3506 23.9909 30.3393C24.0508 30.1546 24.1124 29.9699 24.179 29.7669L26.5968 34.5561C26.6118 34.5095 26.6201 34.4862 26.6285 34.4629C27.7478 31.0238 28.8683 27.5847 29.9899 24.1457C30.0015 24.1124 30.0298 24.0808 30.0049 24.0425H33.3846C33.3833 24.0703 33.3878 24.0981 33.3979 24.124C33.6242 24.8629 33.8472 25.6017 34.0718 26.3422L36.2185 33.4195C36.33 33.7922 36.4465 34.1633 36.5513 34.5361C36.5812 34.5244 36.5829 34.5028 36.5912 34.4828C36.893 33.7739 37.1953 33.0656 37.4981 32.3578L40.5084 25.3088C40.6882 24.8878 40.8646 24.4635 41.0426 24.0425H45.3925C45.391 24.0772 45.3807 24.111 45.3625 24.1407C45.0663 24.8773 44.7696 25.6145 44.4723 26.3522L39.2304 39.3486C39.1006 39.6731 38.9742 39.9992 38.846 40.3237H34.5461C34.2754 39.4528 34.0036 38.582 33.7307 37.7111L32.0284 32.2663C31.8869 31.817 31.7438 31.3677 31.6007 30.9151C31.5737 30.9461 31.5564 30.9842 31.5508 31.0249C30.6422 33.7873 29.7347 36.5507 28.8284 39.3153C28.7169 39.6481 28.622 39.9842 28.5055 40.3204Z" fill="white"/>
<path d="M15.0115 40.3204C13.6603 40.3204 12.309 40.3204 10.9578 40.3204C10.8879 40.3204 10.8696 40.3104 10.8696 40.2355C10.8696 34.8628 10.8696 29.4901 10.8696 24.1174C10.8696 24.0392 10.8929 24.0342 10.9595 24.0342H18.3263C18.3429 24.0741 18.3812 24.0725 18.4162 24.0741C18.953 24.1132 19.4827 24.2212 19.992 24.3953C20.9898 24.7274 21.8471 25.3849 22.4266 26.2624C22.4469 26.2901 22.4597 26.3225 22.4638 26.3567C22.4678 26.3908 22.463 26.4253 22.4499 26.4571C22.355 26.7366 22.2668 27.0195 22.1753 27.3007C21.4131 29.646 20.6516 31.9912 19.8905 34.3364C19.8806 34.3751 19.8596 34.4101 19.83 34.437C19.8004 34.4639 19.7636 34.4816 19.7241 34.4878C19.145 34.6365 18.5498 34.7136 17.9519 34.7175C17.0267 34.7275 16.0998 34.7175 15.1746 34.7175C15.0082 34.7175 15.0082 34.7175 15.0082 34.8839V39.7712C15.0082 39.956 15.0098 40.139 15.0115 40.3204ZM15.0115 29.3808C15.0115 30.0681 15.0115 30.7537 15.0115 31.4409C15.0115 31.5458 15.0414 31.5807 15.1496 31.5791C15.6771 31.5791 16.2046 31.5791 16.7321 31.5791C17.088 31.5767 17.4421 31.528 17.7855 31.4343C18.0689 31.364 18.3294 31.2219 18.5419 31.0217C18.7544 30.8214 18.9117 30.5698 18.9986 30.2911C19.1753 29.7709 19.1962 29.2104 19.0585 28.6786C18.9912 28.3684 18.8412 28.0823 18.6244 27.8505C18.4076 27.6188 18.1321 27.4501 17.8271 27.3623C17.4199 27.2482 16.9986 27.1922 16.5757 27.1959C16.1048 27.1959 15.6338 27.1959 15.1613 27.1959C15.0148 27.1959 15.0132 27.1959 15.0132 27.3423L15.0115 29.3808Z" fill="white"/>
<path d="M49.5891 40.3204C49.5589 40.1548 49.5074 39.9937 49.4361 39.8412C49.1631 39.069 48.8803 38.2986 48.604 37.5264C48.5963 37.4875 48.5738 37.453 48.5412 37.4304C48.5086 37.4077 48.4685 37.3986 48.4293 37.405H42.8414C42.7149 37.405 42.7099 37.405 42.7565 37.2802C43.0305 36.5835 43.3079 35.8868 43.5885 35.1901C43.695 34.9189 43.8065 34.6476 43.908 34.3747C43.9185 34.3366 43.9421 34.3035 43.9747 34.2812C44.0073 34.259 44.0468 34.2491 44.0861 34.2532C45.181 34.2532 46.2743 34.2532 47.3693 34.2532C47.4009 34.2532 47.4325 34.2532 47.4641 34.2532C47.5424 34.2532 47.564 34.2283 47.5374 34.1517C47.4492 33.9104 47.3709 33.6675 47.2778 33.4262L46.0447 29.9782C45.9981 29.8451 45.9565 29.7103 45.9016 29.5805C45.8835 29.5388 45.8742 29.4937 45.8742 29.4482C45.8742 29.4027 45.8835 29.3577 45.9016 29.3159C46.1379 28.7246 46.3731 28.1328 46.6071 27.5404C47.0453 26.431 47.4836 25.3216 47.9218 24.2122C47.9348 24.1597 47.9605 24.1112 47.9966 24.0708C48.0765 24.2805 48.1547 24.4818 48.2313 24.6848C48.8137 26.2291 49.395 27.7728 49.9752 29.3159C50.521 30.7648 51.0663 32.2136 51.611 33.6625L53.2335 37.9691L54.0572 40.1507C54.0705 40.1889 54.0738 40.2355 54.1221 40.2522C54.142 40.3371 54.0805 40.3154 54.0372 40.3154L49.5891 40.3204Z" fill="white"/>
</svg>
