<?xml version="1.0"?>
<svg xmlns="http://www.w3.org/2000/svg" width="74" height="55" viewBox="0 0 74 55" fill="none">
<path d="M28.9184 44.3672H1V1H65.2608V10.609" stroke="#3BA1DA" stroke-width="2" stroke-miterlimit="10" stroke-linecap="round"/>
<path d="M6.68218 7.64805C7.55216 7.64805 8.25742 6.94279 8.25742 6.0728C8.25742 5.20282 7.55216 4.49756 6.68218 4.49756C5.81219 4.49756 5.10693 5.20282 5.10693 6.0728C5.10693 6.94279 5.81219 7.64805 6.68218 7.64805Z" fill="#3BA1DA"/>
<path d="M12.0152 7.64805C12.8852 7.64805 13.5904 6.94279 13.5904 6.0728C13.5904 5.20282 12.8852 4.49756 12.0152 4.49756C11.1452 4.49756 10.4399 5.20282 10.4399 6.0728C10.4399 6.94279 11.1452 7.64805 12.0152 7.64805Z" fill="#3BA1DA"/>
<path d="M17.3458 7.64805C18.2157 7.64805 18.921 6.94279 18.921 6.0728C18.921 5.20282 18.2157 4.49756 17.3458 4.49756C16.4758 4.49756 15.7705 5.20282 15.7705 6.0728C15.7705 6.94279 16.4758 7.64805 17.3458 7.64805Z" fill="#3BA1DA"/>
<path d="M52.54 53.8119C63.8397 53.8119 72.9999 44.6517 72.9999 33.352C72.9999 22.0523 63.8397 12.8921 52.54 12.8921C41.2403 12.8921 32.0801 22.0523 32.0801 33.352C32.0801 44.6517 41.2403 53.8119 52.54 53.8119Z" stroke="#56BB6D" stroke-width="2" stroke-miterlimit="10" stroke-linecap="round"/>
<path d="M37.4932 46.7662C39.4298 44.6647 41.7852 42.9922 44.4076 41.8564C47.0299 40.7206 49.8611 40.1467 52.7188 40.1717C55.5764 40.1966 58.3972 40.8199 60.9993 42.0013C63.6014 43.1827 65.9272 44.8961 67.8269 47.031" stroke="#56BB6D" stroke-width="2" stroke-miterlimit="10"/>
<path d="M37.4932 19.4328C39.4298 21.5343 41.7852 23.2068 44.4076 24.3426C47.0299 25.4784 49.8611 26.0523 52.7188 26.0273C55.5764 26.0024 58.3972 25.3791 60.9993 24.1977C63.6014 23.0163 65.9272 21.3029 67.8269 19.168" stroke="#56BB6D" stroke-width="2" stroke-miterlimit="10"/>
<path d="M56.478 49.9967C59.1184 48.1097 61.272 45.6217 62.7609 42.7381C64.2499 39.8545 65.0316 36.6581 65.0414 33.4128C65.0512 30.1675 64.2889 26.9664 62.8174 24.0738C61.3459 21.1813 59.2074 18.6803 56.5785 16.7773" stroke="#56BB6D" stroke-width="2" stroke-miterlimit="10" stroke-linecap="round"/>
<path d="M47.9101 16.8892C45.3113 18.805 43.2028 21.3086 41.757 24.1954C40.3112 27.0823 39.569 30.2702 39.5913 33.4988C39.6136 36.7274 40.3996 39.9048 41.8851 42.7714C43.3706 45.638 45.5134 48.1123 48.1384 49.9921" stroke="#56BB6D" stroke-width="2" stroke-miterlimit="10" stroke-linecap="round"/>
<path d="M52.54 13.5908V53.1979" stroke="#56BB6D" stroke-width="2" stroke-miterlimit="10" stroke-linecap="round"/>
<path d="M35.6211 32.564H68.3223" stroke="#56BB6D" stroke-width="2" stroke-miterlimit="10" stroke-linecap="round"/>
<path d="M1.7168 10.6616H39.9062" stroke="#3BA1DA" stroke-width="2" stroke-miterlimit="10" stroke-linecap="round"/>
</svg>
