<?xml version="1.0" encoding="utf-8"?>
<!-- Generator: Adobe Illustrator 24.1.2, SVG Export Plug-In . SVG Version: 6.00 Build 0)  -->
<svg version="1.1" id="Layer_1" xmlns="http://www.w3.org/2000/svg" xmlns:xlink="http://www.w3.org/1999/xlink" x="0px" y="0px"
	 viewBox="0 0 198 200" style="enable-background:new 0 0 198 200;" xml:space="preserve">
<style type="text/css">
	.st0{fill:none;stroke:#4012A3;stroke-width:3;stroke-linecap:round;stroke-miterlimit:10;}
	.st1{fill:none;stroke:#2C80FF;stroke-width:15;stroke-linecap:round;stroke-miterlimit:10;}
	.st2{fill:none;stroke:url(#SVGID_1_);stroke-width:15;stroke-linecap:round;stroke-miterlimit:10;}
	.st3{fill:#FFFFFF;}
	.st4{fill:#4FBA6D;}
</style>
<path class="st0" d="M25.4,159.9C12.8,143.7,6,123.7,6,103.2c0-50.8,40.8-92,91.2-92s91.2,41.2,91.2,92c0,20.6-6.8,40.6-19.5,56.8"
	/>
<path class="st1" d="M27.3,156.9c-12.6-16.2-19.5-36.2-19.4-56.8C7.9,49.2,48.7,8,99.1,8c50.4,0,91.2,41.2,91.2,92.1
	c0,17.4-4.5,34.4-13.7,49"/>
<linearGradient id="SVGID_1_" gradientUnits="userSpaceOnUse" x1="97.9701" y1="183.0954" x2="99.9581" y2="38.4232" gradientTransform="matrix(1 0 0 -1 0 202)">
	<stop  offset="0" style="stop-color:#5FB2FF"/>
	<stop  offset="1" style="stop-color:#4012A3"/>
</linearGradient>
<path class="st2" d="M27.3,156.9c-12.6-16.2-19.5-36.2-19.4-56.8C7.9,49.2,48.7,8,99.1,8c50.4,0,91.2,41.2,91.2,92.1
	c0,17.4-4.5,34.4-13.7,49"/>
<path class="st3" d="M77.7,115.2c10.2,0,16.8-7.5,16.8-19.1c0-11.2-5.9-18.1-15.7-18.1c-8.2,0-13.6,4.9-13.6,12.6
	c0,7.1,4.6,11.8,11.8,11.8c4.1,0,7-1.5,8.7-3.9c0.1,6-2.7,9.7-8.5,9.7c-2.8,0-5.6-0.8-7.6-2.3l-3.5,6.4
	C69,114.1,73.6,115.2,77.7,115.2z M79,95.6c-3.3,0-5.3-1.8-5.3-4.9c0-3.4,2.1-5.3,5.4-5.3c3.7,0,5.5,2.4,5.5,5.1
	C84.7,93.4,82.6,95.6,79,95.6z M113.2,78c-7.9,0-13,3.7-13,9.5c0,3.2,2,6.1,5,7.8c-4.2,1.7-6.9,5.2-6.9,9.4
	c0,6.4,5.8,10.6,14.9,10.6s14.9-4.2,14.9-10.7c0-4.1-2.5-7.5-6.5-9.2c2.9-1.6,4.6-4.4,4.6-7.5C126.2,81.8,121.2,78,113.2,78z
	 M113.2,84.1c3.4,0,5.3,1.5,5.3,4.2c0,2.6-1.9,4.1-5.3,4.1c-3.4,0-5.3-1.5-5.3-4.1C108,85.6,109.8,84.1,113.2,84.1z M113.2,99
	c4,0,6.2,1.7,6.2,4.7c0,3.1-2.2,4.8-6.2,4.8c-4,0-6.2-1.7-6.2-4.8C107,100.8,109.2,99,113.2,99z"/>
<path class="st4" d="M90.4,43.4c-2.4,0-3.9,1.6-3.9,4.2c0,2.6,1.5,4.2,3.9,4.2s3.9-1.6,3.9-4.2C94.3,45,92.8,43.4,90.4,43.4z
	 M89.4,57.4h3.2l10-14h-3.2L89.4,57.4z M90.4,45.2c1.1,0,1.7,0.9,1.7,2.4c0,1.5-0.6,2.4-1.7,2.4s-1.7-0.9-1.7-2.4
	C88.7,46.1,89.4,45.2,90.4,45.2z M101.8,49c-2.4,0-3.9,1.6-3.9,4.2c0,2.6,1.5,4.3,3.9,4.3c2.4,0,3.9-1.6,3.9-4.3
	C105.7,50.7,104.2,49,101.8,49z M101.8,50.9c1.1,0,1.7,0.9,1.7,2.4c0,1.5-0.6,2.4-1.7,2.4c-1.1,0-1.7-0.9-1.7-2.4
	C100.1,51.8,100.8,50.9,101.8,50.9z"/>
<path class="st3" d="M89.6,170.5c0.5,0.2,1,0.5,1.3,1c0.3,0.4,0.4,1,0.4,1.6c0,1.3-0.5,2.3-1.5,3c-1,0.7-2.4,1-4.1,1h-6.3l2.5-12.6
	h5.8c1.3,0,2.3,0.2,3,0.7c0.7,0.5,1.1,1.2,1.1,2.1c0,0.8-0.2,1.5-0.6,2C90.8,169.8,90.2,170.2,89.6,170.5z M83.8,166.2l-0.7,3.5h3.3
	c0.9,0,1.6-0.2,2.1-0.5c0.5-0.4,0.8-0.9,0.8-1.6c0-0.9-0.7-1.4-2.2-1.4H83.8z M85.8,175.1c1,0,1.7-0.2,2.3-0.5
	c0.5-0.4,0.8-0.9,0.8-1.6c0-0.5-0.2-0.9-0.6-1.2c-0.4-0.2-0.9-0.4-1.7-0.4h-3.9l-0.7,3.6H85.8z M102.9,171.5c0,0.5,0,0.9-0.1,1.4
	h-7.6c0,1.6,1,2.4,2.8,2.4c0.6,0,1.1-0.1,1.5-0.3c0.5-0.2,0.9-0.4,1.2-0.7l0.9,1.6c-0.5,0.4-1.1,0.8-1.8,1c-0.7,0.2-1.4,0.3-2.2,0.3
	c-1,0-1.8-0.2-2.5-0.5c-0.7-0.3-1.3-0.8-1.6-1.5c-0.4-0.6-0.6-1.4-0.6-2.2c0-1.1,0.2-2,0.7-2.9c0.5-0.9,1.1-1.5,2-2
	c0.9-0.5,1.8-0.7,2.9-0.7c1.3,0,2.4,0.4,3.2,1.1C102.5,169.1,102.9,170.2,102.9,171.5z M98.4,169.1c-0.8,0-1.4,0.2-1.9,0.6
	c-0.5,0.4-0.9,1-1.1,1.7h5.5c0-0.7-0.2-1.3-0.7-1.7C99.7,169.3,99.1,169.1,98.4,169.1z M107.3,177.1c-0.8,0-1.6-0.1-2.3-0.3
	c-0.7-0.2-1.3-0.5-1.7-0.8l0.9-1.7c0.4,0.3,0.9,0.5,1.5,0.7s1.2,0.3,1.9,0.3c0.7,0,1.3-0.1,1.6-0.3c0.4-0.2,0.6-0.5,0.6-0.9
	c0-0.3-0.2-0.5-0.5-0.6c-0.3-0.1-0.8-0.3-1.4-0.4c-0.7-0.1-1.2-0.3-1.7-0.4c-0.4-0.2-0.8-0.4-1.1-0.7c-0.3-0.3-0.5-0.8-0.5-1.4
	c0-1,0.4-1.8,1.2-2.4c0.8-0.6,2-0.9,3.3-0.9c0.7,0,1.3,0.1,1.9,0.2c0.6,0.1,1.1,0.3,1.5,0.6l-0.8,1.7c-0.4-0.3-0.8-0.4-1.3-0.6
	c-0.5-0.1-1-0.2-1.5-0.2c-0.7,0-1.2,0.1-1.6,0.3c-0.4,0.2-0.5,0.5-0.5,0.8c0,0.3,0.2,0.5,0.5,0.7c0.3,0.1,0.8,0.3,1.5,0.4
	c0.7,0.1,1.2,0.3,1.7,0.4c0.4,0.1,0.8,0.4,1.1,0.7c0.3,0.3,0.5,0.8,0.5,1.4c0,1-0.4,1.8-1.3,2.4
	C109.8,176.8,108.7,177.1,107.3,177.1z M116.4,173.8c0,0.2,0,0.3,0,0.4c0,0.7,0.4,1.1,1.1,1.1c0.5,0,0.9-0.1,1.3-0.4l0.4,1.7
	c-0.6,0.4-1.4,0.6-2.3,0.6c-0.8,0-1.5-0.2-2-0.7c-0.5-0.5-0.8-1.1-0.8-1.9c0-0.3,0-0.5,0.1-0.8l0.9-4.5h-1.6l0.4-1.8h1.6l0.4-2.2
	h2.3l-0.4,2.2h2.6l-0.4,1.8h-2.6L116.4,173.8z M64.3,186.4c1.5,0,2.7,0.3,3.5,1c0.8,0.7,1.3,1.6,1.3,2.8c0,1.1-0.2,2-0.7,2.8
	c-0.5,0.8-1.2,1.4-2.1,1.8c-0.9,0.4-2,0.6-3.2,0.6H60l-0.7,3.6h-2.3l2.5-12.6H64.3z M63.1,193.4c1.1,0,2-0.3,2.6-0.8
	c0.6-0.5,0.9-1.3,0.9-2.2c0-0.7-0.2-1.2-0.7-1.5c-0.5-0.3-1.1-0.5-2-0.5h-2.7l-1,5H63.1z M73.3,190.6c0.4-0.5,0.9-0.8,1.5-1
	c0.6-0.2,1.3-0.3,2.2-0.3l-0.4,2.1c-0.2,0-0.4-0.1-0.6-0.1c-1.8,0-2.9,1-3.3,2.9l-1,4.7h-2.3l1.9-9.6h2.1L73.3,190.6z M88.2,189.4
	l-1.9,9.6h-2.1l0.2-1c-0.8,0.7-1.9,1.1-3.1,1.1c-0.8,0-1.5-0.2-2.2-0.5c-0.6-0.3-1.1-0.8-1.5-1.5c-0.4-0.6-0.6-1.4-0.6-2.3
	c0-1.1,0.2-2,0.7-2.9c0.5-0.9,1.1-1.5,1.9-2c0.8-0.5,1.8-0.7,2.8-0.7c1.5,0,2.6,0.5,3.3,1.5l0.3-1.4H88.2z M81.8,197.2
	c0.6,0,1.2-0.2,1.7-0.4c0.5-0.3,0.9-0.7,1.2-1.3c0.3-0.6,0.4-1.2,0.4-1.9c0-0.8-0.2-1.3-0.7-1.8c-0.4-0.4-1.1-0.6-1.9-0.6
	c-0.6,0-1.2,0.2-1.7,0.5c-0.5,0.3-0.9,0.7-1.2,1.3c-0.3,0.5-0.4,1.2-0.4,1.9c0,0.8,0.2,1.4,0.7,1.8C80.3,197,81,197.2,81.8,197.2z
	 M94,199.1c-0.9,0-1.8-0.2-2.5-0.5c-0.7-0.4-1.3-0.9-1.6-1.5c-0.4-0.6-0.6-1.4-0.6-2.2c0-1.1,0.2-2,0.7-2.9c0.5-0.9,1.2-1.5,2-2
	c0.9-0.5,1.9-0.7,3-0.7c1,0,1.8,0.2,2.5,0.6c0.7,0.4,1.3,0.9,1.6,1.7l-1.9,1c-0.4-0.9-1.2-1.3-2.4-1.3c-0.6,0-1.2,0.2-1.7,0.5
	c-0.5,0.3-0.9,0.7-1.2,1.3c-0.3,0.5-0.4,1.2-0.4,1.9c0,0.8,0.2,1.4,0.7,1.8c0.4,0.4,1.1,0.6,1.9,0.6c0.6,0,1.1-0.1,1.5-0.3
	c0.4-0.2,0.8-0.6,1.1-1l1.7,1.1c-0.4,0.7-1.1,1.2-1.8,1.6C95.8,198.9,94.9,199.1,94,199.1z M103,195.8c0,0.2,0,0.3,0,0.4
	c0,0.7,0.4,1.1,1.1,1.1c0.5,0,0.9-0.1,1.3-0.4l0.4,1.7c-0.6,0.4-1.4,0.6-2.3,0.6c-0.8,0-1.5-0.2-2-0.7c-0.5-0.5-0.8-1.1-0.8-1.9
	c0-0.3,0-0.5,0.1-0.8l0.9-4.5h-1.6l0.4-1.8h1.6l0.4-2.2h2.3l-0.5,2.2h2.6l-0.4,1.8h-2.6L103,195.8z M109.3,189.4h2.3l-1.9,9.6h-2.3
	L109.3,189.4z M111,187.8c-0.4,0-0.7-0.1-1-0.4c-0.3-0.3-0.4-0.6-0.4-0.9c0-0.4,0.1-0.8,0.4-1c0.3-0.3,0.7-0.4,1.1-0.4
	c0.4,0,0.7,0.1,1,0.4c0.3,0.2,0.4,0.5,0.4,0.8c0,0.4-0.1,0.8-0.4,1.1C111.8,187.6,111.4,187.8,111,187.8z M117.4,199.1
	c-0.9,0-1.8-0.2-2.5-0.5c-0.7-0.4-1.3-0.9-1.6-1.5c-0.4-0.6-0.6-1.4-0.6-2.2c0-1.1,0.2-2,0.7-2.9c0.5-0.9,1.2-1.5,2-2
	c0.9-0.5,1.9-0.7,3-0.7c1,0,1.8,0.2,2.5,0.6c0.7,0.4,1.3,0.9,1.6,1.7l-1.9,1c-0.4-0.9-1.2-1.3-2.4-1.3c-0.6,0-1.2,0.2-1.7,0.5
	c-0.5,0.3-0.9,0.7-1.2,1.3c-0.3,0.5-0.4,1.2-0.4,1.9c0,0.8,0.2,1.4,0.7,1.8c0.4,0.4,1.1,0.6,1.9,0.6c0.6,0,1.1-0.1,1.5-0.3
	c0.4-0.2,0.8-0.6,1.1-1l1.7,1.1c-0.4,0.7-1.1,1.2-1.8,1.6C119.2,198.9,118.3,199.1,117.4,199.1z M133,193.5c0,0.5,0,0.9-0.1,1.4
	h-7.6c0,1.6,1,2.4,2.8,2.4c0.6,0,1.1-0.1,1.5-0.3c0.5-0.2,0.9-0.4,1.2-0.7l0.9,1.6c-0.5,0.4-1.1,0.8-1.8,1c-0.7,0.2-1.4,0.3-2.2,0.3
	c-1,0-1.8-0.2-2.5-0.5c-0.7-0.3-1.3-0.8-1.6-1.5c-0.4-0.6-0.6-1.4-0.6-2.2c0-1.1,0.2-2,0.7-2.9c0.5-0.9,1.1-1.5,2-2
	c0.9-0.5,1.8-0.7,2.9-0.7c1.3,0,2.4,0.4,3.2,1.1C132.6,191.1,133,192.2,133,193.5z M128.5,191.1c-0.8,0-1.4,0.2-1.9,0.6
	c-0.5,0.4-0.9,1-1.1,1.7h5.5c0-0.7-0.2-1.3-0.7-1.7C129.8,191.3,129.2,191.1,128.5,191.1z M137.4,199.1c-0.8,0-1.6-0.1-2.3-0.3
	c-0.7-0.2-1.3-0.5-1.7-0.8l0.9-1.7c0.4,0.3,0.9,0.5,1.5,0.7c0.6,0.2,1.2,0.3,1.9,0.3c0.7,0,1.3-0.1,1.6-0.3c0.4-0.2,0.6-0.5,0.6-0.9
	c0-0.3-0.2-0.5-0.5-0.6c-0.3-0.1-0.8-0.3-1.4-0.4c-0.7-0.1-1.2-0.3-1.7-0.4c-0.4-0.2-0.8-0.4-1.1-0.7c-0.3-0.3-0.5-0.8-0.5-1.4
	c0-1,0.4-1.8,1.2-2.4c0.8-0.6,1.9-0.9,3.3-0.9c0.7,0,1.3,0.1,1.9,0.2c0.6,0.1,1.1,0.3,1.5,0.6l-0.8,1.7c-0.4-0.3-0.8-0.4-1.4-0.6
	c-0.5-0.1-1-0.2-1.5-0.2c-0.7,0-1.2,0.1-1.6,0.3c-0.4,0.2-0.5,0.5-0.5,0.8c0,0.3,0.2,0.5,0.5,0.7c0.3,0.1,0.8,0.3,1.5,0.4
	c0.7,0.1,1.2,0.3,1.7,0.4c0.4,0.1,0.8,0.4,1.1,0.7s0.5,0.8,0.5,1.4c0,1-0.4,1.8-1.3,2.4C139.9,198.8,138.7,199.1,137.4,199.1z"/>
</svg>
