<?xml version="1.0" encoding="utf-8"?>
<!-- Generator: Adobe Illustrator 24.1.1, SVG Export Plug-In . SVG Version: 6.00 Build 0)  -->
<svg version="1.1" id="Layer_1" xmlns="http://www.w3.org/2000/svg" xmlns:xlink="http://www.w3.org/1999/xlink" x="0px" y="0px"
	 viewBox="0 0 1440 488" style="enable-background:new 0 0 1440 488;" xml:space="preserve">
<style type="text/css">
	.st0{clip-path:url(#SVGID_2_);fill:#C4C4C4;filter:url(#Adobe_OpacityMaskFilter);}
	.st1{clip-path:url(#SVGID_2_);mask:url(#mask0_1_);}
	.st2{fill:url(#SVGID_3_);fill-opacity:0.5;stroke:#2EA0DA;}
	.st3{fill:url(#SVGID_4_);stroke:#56BB6D;}
</style>
<g>
	<defs>
		<rect id="SVGID_1_" x="2" y="4" width="1437" height="481"/>
	</defs>
	<clipPath id="SVGID_2_">
		<use xlink:href="#SVGID_1_"  style="overflow:visible;"/>
	</clipPath>
	<defs>
		<filter id="Adobe_OpacityMaskFilter" filterUnits="userSpaceOnUse" x="-55.5" y="1.8" width="1641" height="561.2">
			<feColorMatrix  type="matrix" values="1 0 0 0 0  0 1 0 0 0  0 0 1 0 0  0 0 0 1 0"/>
		</filter>
	</defs>
	<mask maskUnits="userSpaceOnUse" x="-55.5" y="1.8" width="1641" height="561.2" id="mask0_1_">
		<rect x="-34" class="st0" width="1516" height="488"/>
	</mask>
	<g class="st1">
		
			<linearGradient id="SVGID_3_" gradientUnits="userSpaceOnUse" x1="765" y1="296" x2="765" y2="-72.5" gradientTransform="matrix(1 0 0 -1 0 490)">
			<stop  offset="0" style="stop-color:#3BA1DA"/>
			<stop  offset="1" style="stop-color:#FFFFFF;stop-opacity:0"/>
		</linearGradient>
		<path class="st2" d="M433.5,376C301.3,354.8-31,348.5-55,376l12,186.5h1628V194c-17.3,40.8-87.3,133-228.5,175
			c-176.5,52.5-399-31.5-480.5-40.5C741.1,313.6,595.5,402,433.5,376z"/>
		
			<linearGradient id="SVGID_4_" gradientUnits="userSpaceOnUse" x1="763.5" y1="488" x2="763.5" y2="-6" gradientTransform="matrix(1 0 0 -1 0 490)">
			<stop  offset="0" style="stop-color:#4FBA6D;stop-opacity:0.39"/>
			<stop  offset="1" style="stop-color:#FFFFFF;stop-opacity:0"/>
		</linearGradient>
		<path class="st3" d="M1182.5,171.5C1258,303,1456.5,172,1540,2l-64,494H-13V341.5c391.5,26,488-25.5,586-59.5s137.9,31.9,288,21
			C1011.1,292.1,1124.3,70.1,1182.5,171.5z"/>
	</g>
</g>
</svg>
