<?xml version="1.0" encoding="utf-8"?>
<!-- Generator: Adobe Illustrator 24.1.2, SVG Export Plug-In . SVG Version: 6.00 Build 0)  -->
<svg version="1.1" id="Layer_1" xmlns="http://www.w3.org/2000/svg" xmlns:xlink="http://www.w3.org/1999/xlink" x="0px" y="0px"
	 viewBox="0 0 198 176" style="enable-background:new 0 0 198 176;" xml:space="preserve">
<style type="text/css">
	.st0{fill:none;stroke:#2C80FF;stroke-width:3;stroke-linecap:round;stroke-miterlimit:10;}
	.st1{fill:none;stroke:url(#SVGID_1_);stroke-width:3;stroke-linecap:round;stroke-miterlimit:10;}
	.st2{fill:none;stroke:#2C80FF;stroke-width:15;stroke-linecap:round;stroke-miterlimit:10;}
	.st3{fill:none;stroke:url(#SVGID_2_);stroke-width:15;stroke-linecap:round;stroke-miterlimit:10;}
	.st4{fill:#FFFFFF;}
	.st5{fill:#4FBA6D;}
</style>
<path class="st0" d="M27.4,155.8C14.8,139.6,8,119.6,8,99C8,48.2,48.8,7,99.2,7s91.2,41.2,91.2,92c0,20.6-6.8,40.6-19.5,56.8"/>
<linearGradient id="SVGID_1_" gradientUnits="userSpaceOnUse" x1="190.441" y1="96.571" x2="6.4997" y2="96.571" gradientTransform="matrix(1 0 0 -1 0 178)">
	<stop  offset="0" style="stop-color:#56BB6D"/>
	<stop  offset="0.5131" style="stop-color:#5FB2FF"/>
	<stop  offset="0.9994" style="stop-color:#4012A3"/>
</linearGradient>
<path class="st1" d="M27.4,155.8C14.8,139.6,8,119.6,8,99C8,48.2,48.8,7,99.2,7s91.2,41.2,91.2,92c0,20.6-6.8,40.6-19.5,56.8"/>
<path class="st2" d="M27.4,156.7C14.8,140.5,8,120.5,8,99.9c0-50.8,40.8-92,91.1-92c50.3,0,91.1,41.2,91.1,92
	c0,20.6-6.8,40.6-19.4,56.8"/>
<linearGradient id="SVGID_2_" gradientUnits="userSpaceOnUse" x1="200.6442" y1="56.9317" x2="-8.2591" y2="118.8179" gradientTransform="matrix(1 0 0 -1 0 178)">
	<stop  offset="0" style="stop-color:#56BB6D"/>
	<stop  offset="0.5131" style="stop-color:#5FB2FF"/>
	<stop  offset="0.9994" style="stop-color:#4012A3"/>
</linearGradient>
<path class="st3" d="M27.4,156.7C14.8,140.5,8,120.5,8,99.9c0-50.8,40.8-92,91.1-92c50.3,0,91.1,41.2,91.1,92
	c0,20.6-6.8,40.6-19.4,56.8"/>
<path class="st4" d="M68.3,110.7V74.3h-16v7.4H59v29H68.3z M91.7,74c-10.4,0-16.2,6.6-16.2,18.5c0,11.9,5.8,18.5,16.2,18.5
	c10.3,0,16.1-6.6,16.1-18.5C107.7,80.6,102,74,91.7,74z M91.7,80.8c4.6,0,6.6,3.4,6.6,11.7c0,8.3-2,11.8-6.6,11.8
	c-4.7,0-6.7-3.4-6.7-11.8C85,84.2,87,80.8,91.7,80.8z M128.2,74c-10.4,0-16.2,6.6-16.2,18.5c0,11.9,5.8,18.5,16.2,18.5
	c10.3,0,16.1-6.6,16.1-18.5C144.3,80.6,138.5,74,128.2,74z M128.2,80.8c4.6,0,6.6,3.4,6.6,11.7c0,8.3-2,11.8-6.6,11.8
	c-4.7,0-6.7-3.4-6.7-11.8C121.6,84.2,123.6,80.8,128.2,80.8z"/>
<path class="st5" d="M92.4,39.3c-2.4,0-3.9,1.6-3.9,4.2c0,2.6,1.5,4.2,3.9,4.2s3.9-1.6,3.9-4.2C96.3,40.9,94.8,39.3,92.4,39.3z
	 M91.4,53.3h3.2l10-14h-3.2L91.4,53.3z M92.4,41.1c1.1,0,1.7,0.9,1.7,2.4c0,1.5-0.6,2.4-1.7,2.4s-1.7-0.9-1.7-2.4
	C90.7,42,91.4,41.1,92.4,41.1z M103.8,44.9c-2.4,0-3.9,1.6-3.9,4.2c0,2.6,1.5,4.3,3.9,4.3c2.4,0,3.9-1.6,3.9-4.3
	C107.7,46.5,106.2,44.9,103.8,44.9z M103.8,46.8c1.1,0,1.7,0.9,1.7,2.4c0,1.5-0.6,2.4-1.7,2.4c-1.1,0-1.7-0.9-1.7-2.4
	C102.1,47.7,102.8,46.8,103.8,46.8z"/>
<path class="st4" d="M47.8,160.4c1.5,0,2.7,0.3,3.5,1c0.8,0.7,1.3,1.6,1.3,2.8c0,1.1-0.2,2-0.7,2.8c-0.5,0.8-1.2,1.4-2.1,1.8
	c-0.9,0.4-2,0.6-3.2,0.6h-3.1l-0.7,3.6h-2.3l2.5-12.6H47.8z M46.7,167.4c1.1,0,2-0.3,2.6-0.8c0.6-0.5,0.9-1.3,0.9-2.2
	c0-0.7-0.2-1.2-0.7-1.5c-0.5-0.3-1.1-0.5-2-0.5h-2.7l-1,5H46.7z M63.1,167.5c0,0.5,0,0.9-0.1,1.4h-7.6c0,1.6,1,2.4,2.8,2.4
	c0.6,0,1.1-0.1,1.5-0.3c0.5-0.2,0.9-0.4,1.2-0.7l0.9,1.6c-0.5,0.4-1.1,0.8-1.8,1c-0.7,0.2-1.4,0.3-2.2,0.3c-1,0-1.8-0.2-2.5-0.5
	c-0.7-0.3-1.3-0.8-1.6-1.5c-0.4-0.6-0.6-1.4-0.6-2.2c0-1.1,0.2-2,0.7-2.9c0.5-0.9,1.1-1.5,2-2c0.9-0.5,1.8-0.7,2.9-0.7
	c1.3,0,2.4,0.4,3.2,1.1C62.7,165.2,63.1,166.2,63.1,167.5z M58.6,165.1c-0.8,0-1.4,0.2-1.9,0.6c-0.5,0.4-0.9,1-1.1,1.7H61
	c0-0.7-0.2-1.3-0.7-1.7C59.9,165.3,59.3,165.1,58.6,165.1z M68,164.6c0.4-0.5,0.9-0.8,1.5-1c0.6-0.2,1.3-0.3,2.2-0.3l-0.4,2.1
	c-0.2,0-0.4-0.1-0.6-0.1c-1.8,0-2.9,1-3.3,2.9l-1,4.7h-2.3l1.9-9.6h2.1L68,164.6z M78.2,161.3c-0.5,0-0.8,0.1-1.1,0.4
	c-0.3,0.3-0.5,0.7-0.6,1.2l-0.1,0.5H79l-0.4,1.8h-2.6l-1.5,7.7h-2.3l1.5-7.7h-1.6l0.4-1.8h1.6l0.1-0.7c0.2-1,0.6-1.8,1.3-2.4
	c0.7-0.6,1.5-0.9,2.6-0.9c0.4,0,0.8,0,1.2,0.1c0.4,0.1,0.7,0.2,0.9,0.4l-0.9,1.6C79.1,161.5,78.7,161.3,78.2,161.3z M83.3,173.1
	c-0.9,0-1.8-0.2-2.5-0.5c-0.7-0.4-1.2-0.9-1.6-1.5c-0.4-0.6-0.6-1.4-0.6-2.2c0-1.1,0.2-2,0.7-2.9c0.5-0.9,1.2-1.5,2-2
	c0.9-0.5,1.9-0.7,3-0.7c0.9,0,1.8,0.2,2.5,0.5c0.7,0.3,1.3,0.8,1.6,1.5c0.4,0.6,0.6,1.4,0.6,2.2c0,1.1-0.2,2-0.7,2.9
	c-0.5,0.9-1.2,1.5-2.1,2C85.3,172.9,84.4,173.1,83.3,173.1z M83.4,171.2c0.6,0,1.2-0.1,1.7-0.4c0.5-0.3,0.9-0.7,1.2-1.3
	c0.3-0.6,0.4-1.2,0.4-1.9c0-0.8-0.2-1.3-0.7-1.8c-0.4-0.4-1.1-0.6-1.9-0.6c-0.6,0-1.2,0.2-1.7,0.5c-0.5,0.3-0.9,0.7-1.2,1.3
	c-0.3,0.5-0.4,1.2-0.4,1.9c0,0.8,0.2,1.4,0.7,1.8C82,171,82.6,171.2,83.4,171.2z M93.9,164.6c0.4-0.5,0.9-0.8,1.5-1
	c0.6-0.2,1.3-0.3,2.2-0.3l-0.4,2.1c-0.2,0-0.4-0.1-0.6-0.1c-1.8,0-2.9,1-3.3,2.9l-1,4.7h-2.3l1.9-9.6h2.1L93.9,164.6z M111.4,163.3
	c1.1,0,1.9,0.3,2.5,0.8c0.6,0.6,0.9,1.3,0.9,2.4c0,0.4,0,0.8-0.1,1.2l-1.1,5.3h-2.3l1.1-5.3c0-0.2,0.1-0.5,0.1-0.8
	c0-1.2-0.6-1.7-1.8-1.7c-1.6,0-2.6,0.9-3,2.8l-1,5h-2.3l1.1-5.3c0-0.2,0.1-0.5,0.1-0.8c0-1.2-0.6-1.7-1.8-1.7c-1.6,0-2.6,0.9-3,2.8
	l-1,5h-2.3l1.9-9.6h2.1l-0.2,1c0.8-0.8,1.9-1.2,3.2-1.2c0.7,0,1.3,0.1,1.8,0.4c0.5,0.3,0.9,0.7,1.2,1.2
	C108.6,163.8,109.8,163.3,111.4,163.3z M127.9,163.4L126,173h-2.1l0.2-1c-0.8,0.7-1.9,1.1-3.1,1.1c-0.8,0-1.5-0.2-2.2-0.5
	c-0.6-0.3-1.1-0.8-1.5-1.5c-0.4-0.6-0.6-1.4-0.6-2.3c0-1.1,0.2-2,0.7-2.9c0.5-0.9,1.1-1.5,1.9-2c0.8-0.5,1.8-0.7,2.8-0.7
	c1.5,0,2.6,0.5,3.3,1.5l0.3-1.4H127.9z M121.5,171.2c0.6,0,1.2-0.1,1.7-0.4c0.5-0.3,0.9-0.7,1.2-1.3c0.3-0.6,0.4-1.2,0.4-1.9
	c0-0.8-0.2-1.3-0.7-1.8c-0.4-0.4-1.1-0.6-1.9-0.6c-0.6,0-1.2,0.2-1.7,0.5c-0.5,0.3-0.9,0.7-1.2,1.3c-0.3,0.5-0.4,1.2-0.4,1.9
	c0,0.8,0.2,1.4,0.7,1.8C120.1,171,120.7,171.2,121.5,171.2z M136.1,163.3c1.1,0,1.9,0.3,2.6,0.8c0.6,0.6,1,1.4,1,2.4
	c0,0.3,0,0.7-0.1,1.2l-1.1,5.3h-2.3l1-5.3c0-0.2,0.1-0.5,0.1-0.7c0-1.2-0.6-1.7-1.9-1.7c-0.8,0-1.5,0.2-2.1,0.7
	c-0.5,0.5-0.9,1.1-1.1,2.1l-1,5H129l1.9-9.6h2.1l-0.2,1.1C133.7,163.7,134.8,163.3,136.1,163.3z M146.2,173.1
	c-0.9,0-1.8-0.2-2.5-0.5c-0.7-0.4-1.3-0.9-1.6-1.5c-0.4-0.6-0.6-1.4-0.6-2.2c0-1.1,0.2-2,0.7-2.9c0.5-0.9,1.2-1.5,2-2
	c0.9-0.5,1.9-0.7,3-0.7c1,0,1.8,0.2,2.5,0.6c0.7,0.4,1.3,0.9,1.6,1.7l-1.9,1c-0.4-0.9-1.2-1.3-2.4-1.3c-0.6,0-1.2,0.2-1.7,0.5
	c-0.5,0.3-0.9,0.7-1.2,1.3c-0.3,0.5-0.4,1.2-0.4,1.9c0,0.8,0.2,1.4,0.7,1.8c0.4,0.4,1.1,0.6,1.9,0.6c0.6,0,1-0.1,1.5-0.3
	c0.4-0.2,0.8-0.6,1.1-1l1.7,1.1c-0.4,0.7-1.1,1.2-1.8,1.6C148,172.9,147.1,173.1,146.2,173.1z M161.8,167.5c0,0.5,0,0.9-0.1,1.4H154
	c0,1.6,1,2.4,2.8,2.4c0.6,0,1.1-0.1,1.5-0.3c0.5-0.2,0.9-0.4,1.2-0.7l0.9,1.6c-0.5,0.4-1.1,0.8-1.8,1c-0.7,0.2-1.4,0.3-2.2,0.3
	c-1,0-1.8-0.2-2.5-0.5c-0.7-0.3-1.3-0.8-1.6-1.5c-0.4-0.6-0.6-1.4-0.6-2.2c0-1.1,0.2-2,0.7-2.9c0.5-0.9,1.1-1.5,2-2
	c0.9-0.5,1.8-0.7,2.9-0.7c1.3,0,2.4,0.4,3.2,1.1C161.4,165.2,161.8,166.2,161.8,167.5z M157.2,165.1c-0.8,0-1.4,0.2-1.9,0.6
	c-0.5,0.4-0.9,1-1.1,1.7h5.5c0-0.7-0.2-1.3-0.7-1.7C158.6,165.3,158,165.1,157.2,165.1z"/>
</svg>
