<?xml version="1.0"?>
<svg xmlns="http://www.w3.org/2000/svg" width="136" height="79" viewBox="0 0 136 79" fill="none">
<path d="M8.3999 62.2651V77.0651" stroke="#F1F5FA" stroke-width="2" stroke-linecap="round" stroke-linejoin="round"/>
<path d="M15.8 69.665H1" stroke="#F1F5FA" stroke-width="2" stroke-linecap="round" stroke-linejoin="round"/>
<path d="M8.3999 32.665V47.465" stroke="#F1F5FA" stroke-width="2" stroke-linecap="round" stroke-linejoin="round"/>
<path d="M15.8 40.0649H1" stroke="#F1F5FA" stroke-width="2" stroke-linecap="round" stroke-linejoin="round"/>
<path d="M8.3999 3.06494V17.8649" stroke="#F1F5FA" stroke-width="2" stroke-linecap="round" stroke-linejoin="round"/>
<path d="M15.8 10.4648H1" stroke="#F1F5FA" stroke-width="2" stroke-linecap="round" stroke-linejoin="round"/>
<path d="M38 62.2651V77.0651" stroke="#F1F5FA" stroke-width="2" stroke-linecap="round" stroke-linejoin="round"/>
<path d="M45.4001 69.665H30.6001" stroke="#F1F5FA" stroke-width="2" stroke-linecap="round" stroke-linejoin="round"/>
<path d="M38 32.665V47.465" stroke="#F1F5FA" stroke-width="2" stroke-linecap="round" stroke-linejoin="round"/>
<path d="M45.4001 40.0649H30.6001" stroke="#F1F5FA" stroke-width="2" stroke-linecap="round" stroke-linejoin="round"/>
<path d="M43.2324 5.23242L32.7672 15.6976" stroke="#F1F5FA" stroke-width="2" stroke-linecap="round" stroke-linejoin="round"/>
<path d="M43.2328 15.6976L32.7676 5.23242" stroke="#F1F5FA" stroke-width="2" stroke-linecap="round" stroke-linejoin="round"/>
<path d="M67.6001 62.2651V77.0651" stroke="#F1F5FA" stroke-width="2" stroke-linecap="round" stroke-linejoin="round"/>
<path d="M75.0002 69.665H60.2002" stroke="#F1F5FA" stroke-width="2" stroke-linecap="round" stroke-linejoin="round"/>
<path d="M72.8325 34.8325L62.3673 45.2977" stroke="#F1F5FA" stroke-width="2" stroke-linecap="round" stroke-linejoin="round"/>
<path d="M72.8329 45.2977L62.3677 34.8325" stroke="#F1F5FA" stroke-width="2" stroke-linecap="round" stroke-linejoin="round"/>
<path d="M67.6001 3.06494V17.8649" stroke="#F1F5FA" stroke-width="2" stroke-linecap="round" stroke-linejoin="round"/>
<path d="M75.0002 10.4648H60.2002" stroke="#F1F5FA" stroke-width="2" stroke-linecap="round" stroke-linejoin="round"/>
<path d="M97.1997 62.2651V77.0651" stroke="#F1F5FA" stroke-width="2" stroke-linecap="round" stroke-linejoin="round"/>
<path d="M104.6 69.665H89.7998" stroke="#F1F5FA" stroke-width="2" stroke-linecap="round" stroke-linejoin="round"/>
<path d="M102.432 34.8325L91.9669 45.2977" stroke="#F1F5FA" stroke-width="2" stroke-linecap="round" stroke-linejoin="round"/>
<path d="M102.432 45.2977L91.9673 34.8325" stroke="#F1F5FA" stroke-width="2" stroke-linecap="round" stroke-linejoin="round"/>
<path d="M97.1997 3.06494V17.8649" stroke="#F1F5FA" stroke-width="2" stroke-linecap="round" stroke-linejoin="round"/>
<path d="M104.6 10.4648H89.7998" stroke="#F1F5FA" stroke-width="2" stroke-linecap="round" stroke-linejoin="round"/>
<path d="M126.8 62.2651V77.0651" stroke="#F1F5FA" stroke-width="2" stroke-linecap="round" stroke-linejoin="round"/>
<path d="M134.2 69.665H119.4" stroke="#F1F5FA" stroke-width="2" stroke-linecap="round" stroke-linejoin="round"/>
<path d="M126.8 32.665V47.465" stroke="#F1F5FA" stroke-width="2" stroke-linecap="round" stroke-linejoin="round"/>
<path d="M134.2 40.0649H119.4" stroke="#F1F5FA" stroke-width="2" stroke-linecap="round" stroke-linejoin="round"/>
<path d="M126.8 3.06494V17.8649" stroke="#F1F5FA" stroke-width="2" stroke-linecap="round" stroke-linejoin="round"/>
<path d="M134.2 10.4648H119.4" stroke="#F1F5FA" stroke-width="2" stroke-linecap="round" stroke-linejoin="round"/>
</svg>
