<?xml version="1.0"?>
<svg xmlns="http://www.w3.org/2000/svg" width="65" height="65" viewBox="0 0 65 65" fill="none">
<g clip-path="url(#clip0)">
<path d="M32.5 65C14.5755 65 0 50.4192 0 32.5C0 14.5808 14.5755 0 32.5 0C50.4245 0 65 14.5755 65 32.5C65.0169 39.3435 62.8573 46.0152 58.8332 51.5506C58.7663 51.6429 58.6819 51.7211 58.5848 51.7807C58.4877 51.8404 58.3798 51.8804 58.2672 51.8983C58.0399 51.9346 57.8075 51.8791 57.6211 51.7441C57.4347 51.609 57.3097 51.4054 57.2734 51.1781C57.2371 50.9508 57.2926 50.7184 57.4277 50.532C61.2365 45.2925 63.2807 38.9776 63.2648 32.5C63.2648 15.5368 49.4632 1.73518 32.5 1.73518C15.5368 1.73518 1.73518 15.5368 1.73518 32.5C1.73518 49.4632 15.5368 63.2648 32.5 63.2648C39.0845 63.283 45.4983 61.1708 50.7836 57.2437C50.9685 57.1273 51.1905 57.0849 51.4053 57.125C51.6201 57.1651 51.8118 57.2847 51.9422 57.4601C52.0726 57.6354 52.132 57.8534 52.1087 58.0707C52.0853 58.2879 51.9808 58.4883 51.8161 58.6319C46.233 62.7829 39.4571 65.0168 32.5 65Z" fill="#2EA0DA"/>
<path d="M34.6379 56.515H30.3433C29.7078 56.5163 29.0925 56.2921 28.607 55.8822C28.1214 55.4722 27.7972 54.9033 27.6919 54.2766L27.0846 50.6518C25.8633 50.2887 24.6824 49.8015 23.5605 49.1977L20.5378 51.3493C20.0223 51.7174 19.393 51.8908 18.7617 51.8387C18.1305 51.7866 17.5381 51.5124 17.09 51.0647L14.0707 48.0455C13.6217 47.5976 13.3463 47.0048 13.2936 46.3727C13.2408 45.7407 13.4141 45.1104 13.7827 44.5942L15.8962 41.6271C15.2636 40.4747 14.7519 39.2599 14.3692 38.0023L10.7045 37.3776C10.0775 37.2728 9.5081 36.9486 9.09782 36.4631C8.68755 35.9775 8.46306 35.362 8.46436 34.7263V30.4386C8.4634 29.803 8.68802 29.1877 9.09824 28.7022C9.50845 28.2166 10.0776 27.8924 10.7045 27.7872L14.2842 27.1834C14.6466 25.9199 15.1422 24.6984 15.7625 23.5395L13.6109 20.5168C13.2426 20.001 13.0692 19.3712 13.1217 18.7396C13.1741 18.1079 13.4489 17.5153 13.8972 17.0673L16.9147 14.055C17.3627 13.6079 17.9544 13.3338 18.5851 13.2811C19.2158 13.2284 19.8448 13.4005 20.3608 13.767L23.3106 15.9151C24.4613 15.2842 25.6743 14.7743 26.9302 14.3934L27.5549 10.7287C27.6597 10.1017 27.9838 9.53227 28.4694 9.12199C28.955 8.71172 29.5705 8.48723 30.2062 8.48853H34.5008C35.1359 8.4873 35.7508 8.71113 36.2365 9.12027C36.7222 9.52941 37.0472 10.0974 37.1539 10.7234L37.756 14.2979C39.0665 14.6641 40.3305 15.18 41.5231 15.8353L44.5198 13.708C45.0356 13.3405 45.6649 13.1676 46.2961 13.22C46.9272 13.2724 47.5194 13.5467 47.9676 13.9943L50.9868 17.0048C51.4343 17.4522 51.7088 18.0437 51.7616 18.6742C51.8143 19.3048 51.6419 19.9337 51.2748 20.4492L49.1423 23.4597C49.772 24.6178 50.2774 25.8392 50.6502 27.1036L54.2732 27.7092C54.8822 27.8208 55.4358 28.1342 55.845 28.5988C56.2542 29.0634 56.4951 29.6521 56.529 30.2703V34.6187C56.5303 35.2539 56.306 35.869 55.896 36.3543C55.4861 36.8395 54.9171 37.1635 54.2906 37.2683L50.664 37.8756C50.283 39.1803 49.7605 40.4394 49.1058 41.6306C49.0293 41.7687 48.9223 41.8877 48.793 41.9784C48.6636 42.0691 48.5153 42.1292 48.3593 42.1541C48.2034 42.179 48.0437 42.1681 47.8926 42.1222C47.7414 42.0763 47.6027 41.9966 47.4869 41.8891L42.8453 37.5789C42.6921 37.4368 42.5852 37.252 42.5385 37.0484C42.4917 36.8447 42.5074 36.6318 42.5833 36.4371C43.4847 34.1266 43.5637 31.5763 42.8072 29.2143C42.0506 26.8523 40.5045 24.8225 38.4285 23.4657C36.3524 22.1088 33.8727 21.5074 31.4057 21.7626C28.9387 22.0177 26.6346 23.1137 24.8801 24.8667C23.1256 26.6197 22.0276 28.9229 21.7704 31.3897C21.5132 33.8565 22.1125 36.3367 23.4676 38.4139C24.8227 40.4911 26.8512 42.0389 29.2125 42.7975C31.5738 43.556 34.1242 43.4791 36.4355 42.5797C36.6259 42.5056 36.8338 42.4891 37.0334 42.5323C37.233 42.5755 37.4155 42.6765 37.5582 42.8226L41.9916 47.3827C42.103 47.497 42.1866 47.6354 42.236 47.7872C42.2854 47.939 42.2993 48.1001 42.2764 48.2581C42.2536 48.4161 42.1948 48.5667 42.1045 48.6984C42.0142 48.83 41.8948 48.9391 41.7556 49.0172C40.5313 49.7041 39.234 50.2518 37.8879 50.65L37.2823 54.2731C37.178 54.8992 36.8551 55.4681 36.3709 55.8786C35.8867 56.2891 35.2726 56.5146 34.6379 56.515ZM23.4945 46.9263C23.6776 46.9267 23.8573 46.9758 24.0151 47.0686C25.3414 47.845 26.7692 48.4331 28.2576 48.8159C28.4532 48.8661 28.63 48.972 28.7665 49.1208C28.903 49.2696 28.9932 49.4548 29.0263 49.654L29.7412 53.9295C29.7641 54.0713 29.8371 54.2 29.947 54.2924C30.0569 54.3848 30.1963 54.4346 30.3398 54.4327H34.6344C34.7776 54.4313 34.9158 54.3799 35.0251 54.2874C35.1344 54.1949 35.208 54.0671 35.233 53.9261L35.9479 49.654C35.981 49.4556 36.0709 49.271 36.2067 49.1226C36.3425 48.9742 36.5184 48.8683 36.7132 48.8177C37.6753 48.5696 38.6137 48.2369 39.5172 47.8234L36.524 44.7556C33.7701 45.6596 30.7919 45.6091 28.0703 44.6122C25.3486 43.6153 23.0424 41.7303 21.5238 39.2615C20.0053 36.7927 19.3631 33.8841 19.7009 31.0054C20.0387 28.1267 21.3369 25.4458 23.3858 23.3957C25.4346 21.3455 28.1147 20.0457 30.9932 19.706C33.8717 19.3664 36.7806 20.0067 39.2504 21.5237C41.7202 23.0407 43.6067 25.3458 44.6052 28.0668C45.6038 30.7878 45.6562 33.766 44.754 36.5204L47.8773 39.4199C48.2722 38.541 48.5921 37.6303 48.8334 36.6974C48.884 36.5027 48.9899 36.3268 49.1383 36.191C49.2867 36.0552 49.4713 35.9653 49.6698 35.9322L53.9487 35.2242C54.0902 35.2014 54.2187 35.1286 54.311 35.0191C54.4034 34.9096 54.4534 34.7706 54.4519 34.6273V30.3553C54.4397 30.2122 54.3813 30.077 54.2855 29.97C54.1897 29.863 54.0618 29.7899 53.921 29.7619L49.6524 29.047C49.454 29.0139 49.2694 28.924 49.121 28.7882C48.9725 28.6524 48.8666 28.4765 48.8161 28.2818C48.4276 26.7536 47.8241 25.2884 47.0236 23.9299C46.9201 23.7565 46.8692 23.5568 46.8772 23.355C46.8853 23.1532 46.9518 22.958 47.0687 22.7934L49.5848 19.2536C49.6666 19.1385 49.7054 18.9982 49.6943 18.8574C49.6832 18.7165 49.6229 18.5841 49.524 18.4832L46.5031 15.4657C46.4021 15.3664 46.2693 15.3058 46.128 15.2947C45.9868 15.2836 45.8462 15.3226 45.7309 15.405L42.1929 17.9193C42.0279 18.0363 41.8323 18.1027 41.6302 18.1104C41.428 18.1181 41.228 18.0668 41.0546 17.9626C39.6734 17.1344 38.1736 16.5223 36.6073 16.1476C36.4088 16.1002 36.2287 15.9954 36.0892 15.8464C35.9498 15.6974 35.8572 15.5107 35.823 15.3095L35.1064 11.0722C35.0843 10.9302 35.0118 10.8008 34.9022 10.7078C34.7926 10.6147 34.6532 10.5643 34.5095 10.5655H30.208C30.0647 10.5666 29.9263 10.6179 29.8169 10.7105C29.7075 10.8031 29.6341 10.9311 29.6093 11.0722L28.8736 15.3876C28.8399 15.5854 28.7497 15.7693 28.614 15.917C28.4782 16.0648 28.3026 16.1702 28.1084 16.2205C26.585 16.6241 25.1255 17.2385 23.7722 18.0459C23.5974 18.1487 23.3964 18.1982 23.1939 18.1883C22.9913 18.1784 22.7961 18.1097 22.6321 17.9904L19.1496 15.457C19.0351 15.3775 18.8963 15.3407 18.7573 15.3531C18.6184 15.3654 18.4883 15.4262 18.3896 15.5247L15.3704 18.5439C15.2707 18.6448 15.21 18.7778 15.1992 18.9192C15.1884 19.0606 15.2282 19.2012 15.3114 19.3161L17.843 22.8715C17.9593 23.0346 18.026 23.2277 18.0352 23.4277C18.0445 23.6278 17.9958 23.8263 17.8951 23.9993C17.103 25.3583 16.5083 26.823 16.1287 28.3495C16.0802 28.5464 15.9751 28.7249 15.8266 28.863C15.678 29.0011 15.4923 29.0928 15.2923 29.1268L11.0533 29.8452C10.9109 29.8673 10.7813 29.94 10.6882 30.05C10.5952 30.1599 10.5449 30.2998 10.5466 30.4438V34.7384C10.5481 34.8818 10.5997 35.0202 10.6926 35.1296C10.7855 35.2389 10.9137 35.3123 11.055 35.337L15.3687 36.0728C15.5665 36.1065 15.7503 36.1966 15.8981 36.3324C16.0458 36.4682 16.1512 36.6437 16.2015 36.838C16.6052 38.3616 17.219 39.8216 18.0252 41.1759C18.1272 41.3491 18.1768 41.548 18.1682 41.7488C18.1596 41.9495 18.093 42.1435 17.9766 42.3073L15.4814 45.8089C15.3993 45.9237 15.3604 46.0639 15.3719 46.2047C15.3833 46.3454 15.4443 46.4775 15.5439 46.5776L18.5666 49.5916C18.6676 49.691 18.8006 49.7514 18.9419 49.7622C19.0832 49.773 19.2238 49.7335 19.3388 49.6506L22.8959 47.1189C23.0712 46.9953 23.28 46.9281 23.4945 46.9263Z" fill="#4FBA6D"/>
<path d="M54.9917 55.368C54.7655 55.368 54.5481 55.2796 54.3861 55.1216L29.4984 30.8863C29.3334 30.7253 29.2392 30.5052 29.2364 30.2747C29.2336 30.0441 29.3226 29.8219 29.4836 29.6569C29.6447 29.492 29.8647 29.3977 30.0953 29.395C30.3258 29.3922 30.548 29.4811 30.713 29.6422L55.5973 53.8775C55.7214 53.9979 55.8068 54.1525 55.8424 54.3217C55.878 54.4909 55.8623 54.6668 55.7972 54.827C55.7321 54.9872 55.6207 55.1243 55.4772 55.2207C55.3336 55.3171 55.1646 55.3684 54.9917 55.368Z" fill="#2EA0DA"/>
<path d="M30.1071 38.0821C29.8846 38.0824 29.6705 37.9972 29.509 37.8442C29.3475 37.6911 29.2511 37.4818 29.2395 37.2596L28.8664 30.0014C28.8602 29.8819 28.8787 29.7625 28.9208 29.6505C28.9629 29.5386 29.0277 29.4365 29.1111 29.3508C29.1946 29.2651 29.2948 29.1976 29.4056 29.1525C29.5164 29.1073 29.6353 29.0856 29.7548 29.0887L37.0166 29.2622C37.2467 29.2649 37.4663 29.359 37.627 29.5237C37.7878 29.6883 37.8765 29.9101 37.8738 30.1402C37.871 30.3703 37.7769 30.5899 37.6123 30.7506C37.4476 30.9114 37.2259 31.0001 36.9958 30.9974H36.9732L30.6467 30.8395L30.9729 37.1625C30.9788 37.2763 30.9621 37.3902 30.924 37.4976C30.8858 37.6049 30.8268 37.7038 30.7504 37.7884C30.6741 37.873 30.5818 37.9417 30.4788 37.9906C30.3759 38.0395 30.2643 38.0677 30.1505 38.0734L30.1071 38.0821Z" fill="#2EA0DA"/>
</g>
<defs>
<clipPath id="clip0">
<rect width="65" height="65" fill="white"/>
</clipPath>
</defs>
</svg>
