<?xml version="1.0" encoding="utf-8"?>
<!-- Generator: Adobe Illustrator 24.1.2, SVG Export Plug-In . SVG Version: 6.00 Build 0)  -->
<svg version="1.1" id="Layer_1" xmlns="http://www.w3.org/2000/svg" xmlns:xlink="http://www.w3.org/1999/xlink" x="0px" y="0px"
	 viewBox="0 0 379 518" style="enable-background:new 0 0 379 518;" xml:space="preserve">
<style type="text/css">
	.st0{fill:#FFFFFF;}
	.st1{fill:#FFFFFF;filter:url(#Adobe_OpacityMaskFilter);}
	.st2{fill:none;stroke:#000000;stroke-opacity:0.3;}
	.st3{mask:url(#mask0_1_);}
	.st4{fill:#F2F3F8;}
	.st5{fill:#CB2C2C;}
	.st6{fill:#F9AF20;}
	.st7{fill:#4FBA6D;}
</style>
<path class="st0" d="M6.5,0h365.7c3.3,0,6,2.7,6,6v506c0,3.3-2.7,6-6,6H6.5c-3.3,0-6-2.7-6-6V6C0.5,2.7,3.2,0,6.5,0z"/>
<defs>
	<filter id="Adobe_OpacityMaskFilter" filterUnits="userSpaceOnUse">
		<feColorMatrix  type="matrix" values="1 0 0 0 0  0 1 0 0 0  0 0 1 0 0  0 0 0 1 0"/>
	</filter>
</defs>
<mask maskUnits="userSpaceOnUse" id="mask0_1_">
	<rect x="0.5" y="36.5" class="st1" width="378.1" height="481.5"/>
	<rect x="1" y="37" class="st2" width="377.1" height="480.5"/>
</mask>
<g class="st3">
</g>
<path class="st2" d="M6.5,0.5h365.7c3,0,5.5,2.5,5.5,5.5v506c0,3-2.5,5.5-5.5,5.5H6.5c-3,0-5.5-2.5-5.5-5.5V6C1,3,3.4,0.5,6.5,0.5z"
	/>
<path class="st4" d="M13.2,10.8h352.2c1.7,0,3,1.3,3,3v15.7c0,1.7-1.3,3-3,3H13.2c-1.7,0-3-1.3-3-3V13.8
	C10.2,12.2,11.6,10.8,13.2,10.8z"/>
<path class="st0" d="M73,14.6h290.6c0.6,0,1,0.4,1,1v12.1c0,0.6-0.4,1-1,1H73c-0.6,0-1-0.4-1-1V15.6C72,15.1,72.4,14.6,73,14.6z"/>
<circle class="st5" cx="21.1" cy="21.7" r="3.3"/>
<circle class="st6" cx="31.9" cy="21.7" r="3.3"/>
<circle class="st7" cx="42.7" cy="21.7" r="3.3"/>
</svg>
