<?xml version="1.0"?>
<svg xmlns="http://www.w3.org/2000/svg" width="34" height="34" viewBox="0 0 34 34" fill="none">
<circle cx="18" cy="17.333" r="12" fill="white"/>
<path d="M17 0C7.61104 0 0 7.61104 0 17C0 26.389 7.61104 34 17 34C26.389 34 34 26.389 34 17C34 7.61104 26.389 0 17 0ZM23.9151 13.9258C23.9222 14.071 23.924 14.2163 23.924 14.3579C23.924 18.785 20.5576 23.8868 14.3986 23.8868C12.5787 23.8898 10.7967 23.3671 9.26677 22.3816C9.52708 22.4134 9.79448 22.4258 10.0654 22.4258C11.6344 22.4258 13.0776 21.8928 14.2233 20.9932C13.5251 20.9795 12.8486 20.7483 12.288 20.3319C11.7274 19.9154 11.3108 19.3344 11.096 18.6699C11.5975 18.7652 12.114 18.7453 12.6066 18.6115C11.8487 18.4582 11.1672 18.0476 10.6776 17.4492C10.188 16.8508 9.9204 16.1015 9.92021 15.3283V15.2876C10.3718 15.5373 10.8889 15.6896 11.4378 15.7073C10.7274 15.2344 10.2244 14.5079 10.0318 13.6764C9.83929 12.8449 9.97165 11.9713 10.4019 11.2342C11.2429 12.2683 12.2918 13.1143 13.4806 13.7174C14.6694 14.3205 15.9715 14.6672 17.3028 14.7351C17.1336 14.0167 17.2064 13.2625 17.51 12.5897C17.8136 11.917 18.331 11.3634 18.9817 11.015C19.6324 10.6667 20.3799 10.5431 21.1081 10.6634C21.8363 10.7837 22.5044 11.1412 23.0084 11.6804C23.7578 11.5322 24.4764 11.2573 25.1334 10.8676C24.8837 11.6435 24.3608 12.3023 23.6619 12.7217C24.3257 12.6417 24.9738 12.4633 25.585 12.1922C25.1361 12.8649 24.5706 13.452 23.9151 13.9258Z" fill="#2D81FF"/>
</svg>
