<?xml version="1.0"?>
<svg xmlns="http://www.w3.org/2000/svg" width="64" height="64" viewBox="0 0 64 64" fill="none">
<path d="M32.0281 62.2212C48.8171 62.2212 62.4272 48.611 62.4272 31.822C62.4272 15.033 48.8171 1.42285 32.0281 1.42285C15.2391 1.42285 1.62891 15.033 1.62891 31.822C1.62891 48.611 15.2391 62.2212 32.0281 62.2212Z" fill="white"/>
<path d="M32.0002 62.8351C14.9968 62.8351 1.16504 49.0017 1.16504 31.9999C1.16504 14.9982 14.9968 1.16479 32.0002 1.16479C49.0036 1.16479 62.8353 14.9965 62.8353 31.9999C62.8353 49.0034 49.002 62.8351 32.0002 62.8351ZM32.0002 2.16323C15.5476 2.16323 2.16348 15.5473 2.16348 31.9999C2.16348 48.4526 15.5476 61.8367 32.0002 61.8367C48.4528 61.8367 61.8369 48.4509 61.8369 31.9999C61.8369 15.549 48.4512 2.16323 32.0002 2.16323Z" fill="#A9A9AC"/>
<path d="M32.0002 6.41821C17.8939 6.41821 6.41846 17.9003 6.41846 31.9999C6.41846 46.0996 17.8939 57.5766 32.0002 57.5766C46.1064 57.5766 57.5769 46.1045 57.5769 31.9999C57.5769 17.8953 46.1048 6.41821 32.0002 6.41821Z" fill="#3BA1DA"/>
<path d="M18.6843 46.3144C18.5283 46.3146 18.3745 46.2782 18.235 46.2082C18.0956 46.1383 17.9746 46.0366 17.8815 45.9114C17.7885 45.7861 17.7261 45.6409 17.6994 45.4872C17.6726 45.3335 17.6822 45.1757 17.7275 45.0264L23.9078 24.575C23.9555 24.4179 24.0412 24.2749 24.1573 24.1588C24.2734 24.0427 24.4163 23.957 24.5734 23.9094L45.0248 17.729C45.1978 17.6767 45.3816 17.6723 45.5569 17.7163C45.7321 17.7603 45.8921 17.851 46.0199 17.9787C46.1476 18.1065 46.2383 18.2665 46.2823 18.4417C46.3262 18.6169 46.3218 18.8008 46.2695 18.9738L40.0925 39.4251C40.0449 39.5823 39.9592 39.7252 39.8431 39.8413C39.727 39.9574 39.584 40.0431 39.4269 40.0908L18.9705 46.2711C18.8779 46.3 18.7814 46.3146 18.6843 46.3144ZM25.6651 25.665L20.1737 43.8216L38.3303 38.3302L43.8217 20.1735L25.6651 25.665Z" fill="white"/>
<path d="M26.7549 26.7549L29.251 29.251C29.3085 29.1839 29.3696 29.1201 29.434 29.0596C29.6847 28.7874 30.0009 28.584 30.3526 28.4688C30.5761 28.3526 30.8183 28.2765 31.0681 28.2442L30.524 27.7L31.4076 28.5837H31.4159L32.1747 28.4822C32.5566 28.4646 32.9363 28.549 33.2747 28.7268C33.6196 28.8554 33.9328 29.0568 34.1929 29.3172C34.4531 29.5776 34.6541 29.891 34.7823 30.2361C34.9613 30.5741 35.0464 30.954 35.0286 31.336V31.4625C35.0285 31.6868 35.0017 31.9102 34.9487 32.1281L35.7808 32.9602C35.7495 33.23 35.6688 33.4917 35.5428 33.7323C35.4951 33.862 35.4396 33.9887 35.3764 34.1117C35.2214 34.3609 35.0377 34.591 34.8289 34.7973C34.8221 34.8019 34.8159 34.8075 34.8106 34.8139L37.2402 37.2435L41.7814 22.2136L26.7549 26.7549Z" fill="white"/>
<path d="M32.0001 36.2917C31.1513 36.2917 30.3216 36.04 29.6158 35.5685C28.9101 35.0969 28.36 34.4266 28.0352 33.6424C27.7104 32.8583 27.6254 31.9954 27.791 31.1629C27.9566 30.3304 28.3653 29.5657 28.9655 28.9655C29.5657 28.3653 30.3304 27.9566 31.1629 27.791C31.9954 27.6254 32.8583 27.7104 33.6425 28.0352C34.4267 28.36 35.0969 28.9101 35.5685 29.6158C36.0401 30.3216 36.2918 31.1513 36.2918 32.0001C36.2904 33.1379 35.8379 34.2287 35.0333 35.0333C34.2288 35.8378 33.1379 36.2904 32.0001 36.2917ZM32.0001 29.7054C31.5463 29.7054 31.1026 29.84 30.7252 30.0921C30.3479 30.3443 30.0537 30.7026 29.8801 31.122C29.7064 31.5413 29.6609 32.0027 29.7495 32.4478C29.838 32.8929 30.0566 33.3018 30.3775 33.6227C30.6984 33.9437 31.1073 34.1622 31.5524 34.2508C31.9976 34.3393 32.459 34.2939 32.8783 34.1202C33.2976 33.9465 33.656 33.6524 33.9081 33.275C34.1603 32.8976 34.2949 32.454 34.2949 32.0001C34.294 31.3918 34.0519 30.8086 33.6218 30.3785C33.1916 29.9483 32.6085 29.7063 32.0001 29.7054Z" fill="white"/>
</svg>
