<?xml version="1.0" encoding="utf-8"?>
<!-- Generator: Adobe Illustrator 24.1.1, SVG Export Plug-In . SVG Version: 6.00 Build 0)  -->
<svg version="1.1" id="Layer_1" xmlns="http://www.w3.org/2000/svg" xmlns:xlink="http://www.w3.org/1999/xlink" x="0px" y="0px"
	 viewBox="0 0 1142 870" style="enable-background:new 0 0 1142 870;" xml:space="preserve">
<style type="text/css">
	.st0{fill:none;stroke:#2C80FF;stroke-width:25;stroke-linecap:round;stroke-miterlimit:10;}
	.st1{fill:none;stroke:url(#SVGID_1_);stroke-width:25;stroke-linecap:round;stroke-miterlimit:10;}
	.st2{fill:#FFFFFF;}
	.st3{fill:#4FBA6D;}
	.st4{fill:none;stroke:#D1D3D4;stroke-width:3;stroke-linecap:round;stroke-miterlimit:10;}
	.st5{fill:none;stroke:#2C80FF;stroke-width:15;stroke-linecap:round;stroke-miterlimit:10;}
	.st6{fill:none;stroke:url(#SVGID_2_);stroke-width:15;stroke-linecap:round;stroke-miterlimit:10;}
	.st7{fill:none;stroke:#4012A3;stroke-width:3;stroke-linecap:round;stroke-miterlimit:10;}
	.st8{fill:none;stroke:url(#SVGID_3_);stroke-width:15;stroke-linecap:round;stroke-miterlimit:10;}
	.st9{fill:none;stroke:url(#SVGID_4_);stroke-width:15;stroke-linecap:round;stroke-miterlimit:10;}
</style>
<path class="st0" d="M428.4,345c25.4-51.3,67.3-92.7,119-117.6c127.6-61.6,280.5-9.2,341.5,117c61,126.3,7,278.6-120.6,340.2
	C716.6,709.8,658,716.9,602,704.9"/>
<linearGradient id="SVGID_1_" gradientUnits="userSpaceOnUse" x1="844.3359" y1="245.3864" x2="391.3219" y2="747.0814" gradientTransform="matrix(1 0 0 -1 0 872)">
	<stop  offset="0" style="stop-color:#56BB6D"/>
	<stop  offset="0.5131" style="stop-color:#5FB2FF"/>
	<stop  offset="1" style="stop-color:#4012A3"/>
</linearGradient>
<path class="st1" d="M428.4,345c25.4-51.3,67.3-92.7,119-117.6c127.6-61.6,280.5-9.2,341.5,117c61,126.3,7,278.6-120.6,340.2
	C716.6,709.8,658,716.9,602,704.9"/>
<path class="st2" d="M562.8,515.1l-0.6-112.2l-49.1,0.3l0.1,22.9l20.6-0.1l0.5,89.3L562.8,515.1z M634.2,401.8
	c-32,0.2-49.7,20.6-49.5,57.1c0.2,36.6,18.1,56.9,50.1,56.7c31.7-0.2,49.3-20.6,49.1-57.2C683.8,421.8,665.9,401.6,634.2,401.8z
	 M634.4,422.6c14.1-0.1,20.4,10.3,20.5,35.9s-6,36.2-20.1,36.3c-14.4,0.1-20.5-10.5-20.7-36.1C613.9,433.1,620,422.6,634.4,422.6z
	 M746.7,401.2c-32,0.2-49.7,20.6-49.5,57.1c0.2,36.6,18.1,56.9,50.1,56.7c31.7-0.2,49.3-20.6,49.1-57.2
	C796.3,421.2,778.4,401,746.7,401.2z M746.9,422c14.1-0.1,20.4,10.3,20.5,35.9c0.1,25.6-6,36.2-20.1,36.3
	c-14.4,0.1-20.5-10.5-20.7-36.1C726.4,432.5,732.5,422,746.9,422z"/>
<path class="st3" d="M644.4,322.7c-5.8,0-9.4,3.9-9.4,10.2c0,6.3,3.7,10.2,9.5,10.1c5.8,0,9.3-3.9,9.3-10.2
	C653.7,326.6,650.1,322.7,644.4,322.7z M642.2,356.5l7.8,0l23.8-33.8l-7.8,0L642.2,356.5z M644.4,327.1c2.5,0,4.1,2.1,4.1,5.7
	c0,3.6-1.5,5.7-4,5.7c-2.5,0-4.1-2.1-4.1-5.7C640.3,329.3,641.8,327.2,644.4,327.1z M671.8,336.2c-5.8,0-9.4,3.9-9.4,10.2
	c0,6.3,3.7,10.2,9.5,10.2c5.8,0,9.3-4,9.3-10.3C681.2,340,677.6,336.1,671.8,336.2z M671.8,340.6c2.5,0,4.1,2.1,4.1,5.7
	c0,3.6-1.5,5.8-4,5.8c-2.5,0-4.1-2.1-4.1-5.7C667.7,342.8,669.3,340.6,671.8,340.6z"/>
<path class="st2" d="M569.4,539.5c2.5,0,4.5,0.5,5.9,1.6c1.4,1.1,2.1,2.6,2.1,4.6c0,1.8-0.4,3.3-1.2,4.6c-0.8,1.3-1.9,2.3-3.5,3
	c-1.5,0.7-3.3,1-5.3,1l-5.1,0l-1.2,6.1l-3.9,0l4.1-21L569.4,539.5z M567.6,551.1c1.9,0,3.4-0.4,4.4-1.3c1-0.9,1.5-2.1,1.5-3.7
	c0-1.1-0.4-2-1.2-2.5c-0.8-0.6-1.9-0.9-3.3-0.9l-4.4,0l-1.6,8.3L567.6,551.1z M595,551.2c0,0.8-0.1,1.5-0.2,2.3l-12.7,0.1
	c0.1,2.6,1.6,3.9,4.6,3.9c0.9,0,1.8-0.1,2.6-0.4c0.8-0.3,1.5-0.7,2-1.2l1.6,2.6c-0.8,0.7-1.8,1.3-3,1.7c-1.1,0.4-2.3,0.6-3.6,0.6
	c-1.6,0-3-0.3-4.2-0.8c-1.2-0.6-2.1-1.4-2.7-2.4c-0.6-1.1-1-2.3-1-3.7c0-1.8,0.4-3.4,1.1-4.8c0.8-1.4,1.9-2.6,3.3-3.4
	c1.4-0.8,3-1.2,4.8-1.2c2.2,0,4,0.6,5.4,1.9C594.3,547.3,595,549,595,551.2z M587.5,547.2c-1.3,0-2.3,0.4-3.2,1
	c-0.9,0.7-1.5,1.6-1.8,2.8l9.2,0c0-1.2-0.4-2.1-1.1-2.8C589.7,547.5,588.7,547.2,587.5,547.2z M603.1,546.4c0.7-0.8,1.5-1.4,2.5-1.8
	c1-0.3,2.2-0.5,3.6-0.5l-0.7,3.6c-0.3-0.1-0.7-0.1-0.9-0.1c-3.1,0-4.9,1.6-5.5,4.9l-1.5,7.9l-3.8,0l3.1-16l3.6,0L603.1,546.4z
	 M620.2,540.8c-0.8,0-1.4,0.2-1.9,0.7c-0.5,0.4-0.8,1.1-1,2l-0.2,0.9l4.4,0l-0.6,3l-4.3,0l-2.5,12.9l-3.8,0l2.5-12.9l-2.6,0l0.6-3
	l2.6,0l0.2-1.1c0.4-1.7,1.1-3.1,2.1-4c1.1-1,2.5-1.5,4.3-1.5c0.7,0,1.3,0.1,2,0.2c0.6,0.2,1.1,0.4,1.6,0.7l-1.5,2.7
	C621.6,541,620.9,540.8,620.2,540.8z M628.7,560.4c-1.6,0-2.9-0.3-4.1-0.8c-1.2-0.6-2.1-1.4-2.7-2.5c-0.6-1.1-1-2.3-1-3.7
	c0-1.8,0.4-3.4,1.2-4.8c0.8-1.4,1.9-2.5,3.4-3.3c1.5-0.8,3.1-1.2,4.9-1.3c1.6,0,2.9,0.3,4.1,0.8c1.2,0.6,2.1,1.4,2.7,2.4
	c0.6,1.1,1,2.3,1,3.7c0,1.8-0.4,3.4-1.2,4.8c-0.8,1.4-1.9,2.5-3.4,3.4C632.1,560,630.5,560.4,628.7,560.4z M628.9,557.2
	c1.1,0,2-0.3,2.8-0.8c0.8-0.5,1.5-1.2,2-2.1c0.5-0.9,0.7-2,0.7-3.1c0-1.3-0.4-2.2-1.1-2.9c-0.7-0.7-1.8-1.1-3.1-1.1
	c-1.1,0-2,0.3-2.8,0.8c-0.8,0.5-1.5,1.2-1.9,2.1c-0.5,0.9-0.7,1.9-0.7,3.1c0,1.3,0.4,2.2,1.1,3C626.5,556.8,627.6,557.2,628.9,557.2
	z M646.4,546.1c0.7-0.8,1.5-1.4,2.5-1.8c1-0.3,2.2-0.5,3.6-0.5l-0.7,3.6c-0.3-0.1-0.6-0.1-0.9-0.1c-3.1,0-4.9,1.6-5.5,4.9l-1.5,7.9
	l-3.8,0l3.1-16l3.6,0L646.4,546.1z M675.4,543.7c1.8,0,3.2,0.4,4.2,1.4c1,0.9,1.6,2.2,1.6,4c0,0.6-0.1,1.3-0.2,2l-1.7,8.9l-3.8,0
	l1.7-8.8c0.1-0.4,0.1-0.8,0.1-1.3c0-1.9-1-2.9-3.1-2.9c-2.7,0-4.3,1.6-4.9,4.6l-1.6,8.3l-3.8,0l1.7-8.8c0.1-0.4,0.1-0.8,0.1-1.3
	c0-1.9-1-2.9-3.1-2.9c-2.7,0-4.3,1.6-4.9,4.6l-1.6,8.3l-3.8,0l3.1-16l3.6,0l-0.3,1.7c1.4-1.3,3.1-1.9,5.2-1.9c1.2,0,2.2,0.2,3,0.7
	c0.9,0.4,1.5,1.1,2,1.9C670.8,544.6,672.9,543.8,675.4,543.7z M703,543.8l-3.1,16l-3.6,0l0.3-1.7c-1.4,1.2-3.1,1.9-5.2,1.9
	c-1.3,0-2.5-0.3-3.6-0.8c-1.1-0.6-1.9-1.4-2.5-2.4c-0.6-1.1-0.9-2.3-1-3.8c0-1.8,0.4-3.4,1.1-4.8c0.8-1.4,1.9-2.6,3.2-3.4
	c1.4-0.8,2.9-1.2,4.6-1.2c2.6,0,4.4,0.8,5.5,2.5l0.4-2.4L703,543.8z M692.4,556.8c1.1,0,2-0.3,2.8-0.8c0.8-0.5,1.5-1.2,2-2.1
	c0.5-0.9,0.7-2,0.7-3.1c0-1.3-0.4-2.2-1.1-2.9c-0.7-0.7-1.8-1.1-3.1-1.1c-1.1,0-2,0.3-2.8,0.8c-0.8,0.5-1.5,1.2-1.9,2.1
	c-0.5,0.9-0.7,1.9-0.7,3.1c0,1.3,0.4,2.2,1.1,3C690,556.5,691.1,556.9,692.4,556.8z M716.7,543.5c1.8,0,3.2,0.5,4.3,1.4
	c1.1,0.9,1.6,2.3,1.6,4c0,0.5-0.1,1.1-0.2,1.9l-1.7,8.9l-3.8,0l1.7-8.8c0.1-0.4,0.1-0.8,0.1-1.2c0-1.9-1.1-2.9-3.2-2.9
	c-1.4,0-2.5,0.4-3.4,1.2c-0.9,0.8-1.5,1.9-1.8,3.5l-1.6,8.3l-3.8,0l3.1-16l3.6,0l-0.4,1.8C712.6,544.2,714.4,543.5,716.7,543.5z
	 M733.5,559.8c-1.6,0-3-0.3-4.2-0.8c-1.2-0.6-2.1-1.4-2.7-2.5c-0.6-1.1-1-2.3-1-3.7c0-1.8,0.4-3.4,1.2-4.8c0.8-1.4,1.9-2.5,3.4-3.3
	c1.5-0.8,3.1-1.2,5-1.3c1.6,0,3,0.3,4.2,0.9c1.2,0.6,2.1,1.5,2.7,2.8l-3.2,1.7c-0.7-1.5-2.1-2.2-4-2.2c-1.1,0-2,0.3-2.8,0.8
	c-0.8,0.5-1.5,1.2-1.9,2.1c-0.5,0.9-0.7,1.9-0.7,3.1c0,1.3,0.4,2.2,1.1,3c0.7,0.7,1.8,1,3.2,1c0.9,0,1.7-0.2,2.5-0.6
	c0.7-0.4,1.4-0.9,1.9-1.7l2.8,1.8c-0.7,1.1-1.7,2-3,2.7C736.5,559.5,735.1,559.8,733.5,559.8z M759.4,550.3c0,0.8-0.1,1.5-0.2,2.3
	l-12.7,0.1c0.1,2.6,1.6,3.9,4.6,3.9c0.9,0,1.8-0.1,2.6-0.4c0.8-0.3,1.5-0.7,2-1.2l1.6,2.6c-0.8,0.7-1.8,1.3-3,1.7
	c-1.1,0.4-2.3,0.6-3.6,0.6c-1.6,0-3-0.3-4.2-0.8c-1.2-0.6-2.1-1.4-2.7-2.4c-0.6-1.1-1-2.3-1-3.7c0-1.8,0.4-3.4,1.1-4.8
	c0.8-1.4,1.9-2.6,3.3-3.4c1.4-0.8,3-1.2,4.8-1.2c2.2,0,4,0.6,5.4,1.9C758.8,546.4,759.4,548.1,759.4,550.3z M751.9,546.3
	c-1.3,0-2.3,0.4-3.2,1c-0.9,0.7-1.5,1.6-1.8,2.8l9.2,0c0-1.2-0.4-2.1-1.1-2.8C754.1,546.7,753.1,546.3,751.9,546.3z"/>
<path class="st4" d="M27.4,715C14.8,698.8,8,678.8,8,658.2c0-50.8,40.8-92,91.2-92s91.2,41.2,91.2,92c0,20.6-6.8,40.6-19.5,56.8"/>
<path class="st5" d="M27.4,715.9C14.8,699.7,8,679.7,8,659.1c0-50.8,40.8-92,91.1-92c50.3,0,91.1,41.2,91.1,92
	c0,20.6-6.8,40.6-19.4,56.8"/>
<linearGradient id="SVGID_2_" gradientUnits="userSpaceOnUse" x1="97.9463" y1="294.0142" x2="99.9373" y2="149.3422" gradientTransform="matrix(1 0 0 -1 0 872)">
	<stop  offset="0" style="stop-color:#5FB2FF"/>
	<stop  offset="1" style="stop-color:#4012A3"/>
</linearGradient>
<path class="st6" d="M27.4,715.9C14.8,699.7,8,679.7,8,659.1c0-50.8,40.8-92,91.1-92c50.3,0,91.1,41.2,91.1,92
	c0,20.6-6.8,40.6-19.4,56.8"/>
<path class="st2" d="M68.3,669.9v-36.5h-16v7.4H59v29H68.3z M91.7,633.2c-10.4,0-16.2,6.6-16.2,18.5c0,11.9,5.8,18.5,16.2,18.5
	c10.3,0,16.1-6.6,16.1-18.5C107.7,639.8,102,633.2,91.7,633.2z M91.7,640c4.6,0,6.6,3.4,6.6,11.7s-2,11.8-6.6,11.8
	c-4.7,0-6.7-3.4-6.7-11.8S87,640,91.7,640z M128.2,633.2c-10.4,0-16.2,6.6-16.2,18.5c0,11.9,5.8,18.5,16.2,18.5
	c10.3,0,16.1-6.6,16.1-18.5C144.3,639.8,138.5,633.2,128.2,633.2z M128.2,640c4.6,0,6.6,3.4,6.6,11.7s-2,11.8-6.6,11.8
	c-4.7,0-6.7-3.4-6.7-11.8S123.6,640,128.2,640z"/>
<path class="st3" d="M92.4,598.4c-2.4,0-3.9,1.6-3.9,4.2c0,2.6,1.5,4.2,3.9,4.2s3.9-1.6,3.9-4.2C96.3,600.1,94.8,598.4,92.4,598.4z
	 M91.4,612.5h3.2l10-14h-3.2L91.4,612.5z M92.4,600.3c1.1,0,1.7,0.9,1.7,2.4s-0.6,2.4-1.7,2.4s-1.7-0.9-1.7-2.4
	S91.4,600.3,92.4,600.3z M103.8,604.1c-2.4,0-3.9,1.6-3.9,4.2c0,2.6,1.5,4.3,3.9,4.3c2.4,0,3.9-1.6,3.9-4.3
	C107.7,605.7,106.2,604.1,103.8,604.1z M103.8,605.9c1.1,0,1.7,0.9,1.7,2.4c0,1.5-0.6,2.4-1.7,2.4c-1.1,0-1.7-0.9-1.7-2.4
	C102.1,606.8,102.8,605.9,103.8,605.9z"/>
<path class="st2" d="M84.1,719.8c1.5,0,2.7,0.3,3.5,1c0.8,0.7,1.3,1.6,1.3,2.8c0,1.1-0.2,2-0.7,2.8c-0.5,0.8-1.2,1.4-2.1,1.8
	c-0.9,0.4-2,0.6-3.2,0.6h-3.1l-0.7,3.6h-2.3l2.5-12.6H84.1z M83,726.8c1.1,0,2-0.3,2.6-0.8c0.6-0.5,0.9-1.3,0.9-2.2
	c0-0.7-0.2-1.2-0.7-1.5c-0.5-0.3-1.1-0.5-2-0.5h-2.7l-1,5H83z M110.4,719.8l-6.7,12.6h-2.5l-1.3-9.2l-5,9.2h-2.5l-1.7-12.6h2.3
	l1.2,9.6l5.2-9.6h2.2l1.2,9.7l5.2-9.7H110.4z M118.3,729.5H112l-1.8,2.9h-2.5l8.2-12.6h2.3l3.1,12.6H119L118.3,729.5z M117.9,727.7
	l-1.3-5.5l-3.5,5.5H117.9z"/>
<path class="st7" d="M174.4,499.9c-12.6-16.2-19.5-36.2-19.4-56.8c0-50.8,40.8-92,91.2-92c50.4,0,91.2,41.2,91.2,92
	c0,20.6-6.8,40.6-19.5,56.8"/>
<path class="st5" d="M176.3,496.9c-12.6-16.2-19.5-36.2-19.4-56.8c0-50.9,40.8-92.1,91.2-92.1c50.4,0,91.2,41.2,91.2,92.1
	c0,17.4-4.5,34.4-13.7,49"/>
<linearGradient id="SVGID_3_" gradientUnits="userSpaceOnUse" x1="246.97" y1="513.0952" x2="248.958" y2="368.4232" gradientTransform="matrix(1 0 0 -1 0 872)">
	<stop  offset="0" style="stop-color:#5FB2FF"/>
	<stop  offset="1" style="stop-color:#4012A3"/>
</linearGradient>
<path class="st8" d="M176.3,496.9c-12.6-16.2-19.5-36.2-19.4-56.8c0-50.9,40.8-92.1,91.2-92.1c50.4,0,91.2,41.2,91.2,92.1
	c0,17.4-4.5,34.4-13.7,49"/>
<path class="st2" d="M226.7,455.2c10.2,0,16.8-7.5,16.8-19.1c0-11.2-5.9-18.1-15.7-18.1c-8.2,0-13.6,4.9-13.6,12.6
	c0,7.1,4.6,11.8,11.8,11.8c4.1,0,7-1.5,8.7-3.9c0.1,6-2.7,9.7-8.5,9.7c-2.8,0-5.6-0.8-7.6-2.3l-3.5,6.4
	C218,454.1,222.6,455.2,226.7,455.2z M228,435.6c-3.3,0-5.3-1.8-5.3-4.9c0-3.4,2.1-5.3,5.4-5.3c3.7,0,5.5,2.4,5.5,5.1
	C233.7,433.4,231.6,435.6,228,435.6z M262.2,418c-7.9,0-13,3.7-13,9.5c0,3.2,2,6.1,5,7.8c-4.2,1.7-6.9,5.2-6.9,9.4
	c0,6.4,5.8,10.6,14.9,10.6c9.1,0,14.9-4.2,14.9-10.7c0-4.1-2.5-7.5-6.5-9.2c2.9-1.6,4.6-4.4,4.6-7.5
	C275.2,421.8,270.2,418,262.2,418z M262.2,424.1c3.4,0,5.3,1.5,5.3,4.2c0,2.6-1.9,4.1-5.3,4.1c-3.4,0-5.3-1.5-5.3-4.1
	C257,425.6,258.8,424.1,262.2,424.1z M262.2,439c4,0,6.2,1.7,6.2,4.7c0,3.1-2.2,4.8-6.2,4.8c-4,0-6.2-1.7-6.2-4.8
	C256,440.8,258.2,439,262.2,439z"/>
<path class="st3" d="M239.4,383.4c-2.4,0-3.9,1.6-3.9,4.2c0,2.6,1.5,4.2,3.9,4.2c2.4,0,3.9-1.6,3.9-4.2
	C243.3,385,241.8,383.4,239.4,383.4z M238.4,397.4h3.2l10-14h-3.2L238.4,397.4z M239.4,385.2c1.1,0,1.7,0.9,1.7,2.4
	c0,1.5-0.6,2.4-1.7,2.4c-1.1,0-1.7-0.9-1.7-2.4C237.7,386.1,238.4,385.2,239.4,385.2z M250.8,389c-2.4,0-3.9,1.6-3.9,4.2
	c0,2.6,1.5,4.3,3.9,4.3c2.4,0,3.9-1.6,3.9-4.3C254.7,390.7,253.2,389,250.8,389z M250.8,390.9c1.1,0,1.7,0.9,1.7,2.4
	c0,1.5-0.6,2.4-1.7,2.4s-1.7-0.9-1.7-2.4C249.1,391.8,249.8,390.9,250.8,390.9z"/>
<path class="st2" d="M238.6,510.5c0.5,0.2,1,0.5,1.3,1c0.3,0.4,0.4,1,0.4,1.6c0,1.3-0.5,2.3-1.5,3c-1,0.7-2.4,1-4.1,1h-6.3l2.5-12.6
	h5.8c1.3,0,2.3,0.2,3,0.7c0.7,0.5,1.1,1.2,1.1,2.1c0,0.8-0.2,1.5-0.6,2C239.8,509.8,239.2,510.2,238.6,510.5z M232.8,506.2l-0.7,3.5
	h3.3c0.9,0,1.6-0.2,2.1-0.5c0.5-0.4,0.8-0.9,0.8-1.6c0-0.9-0.7-1.4-2.2-1.4H232.8z M234.8,515.1c1,0,1.7-0.2,2.3-0.5
	c0.5-0.4,0.8-0.9,0.8-1.6c0-0.5-0.2-0.9-0.6-1.2c-0.4-0.2-0.9-0.4-1.7-0.4h-3.9l-0.7,3.6H234.8z M251.9,511.5c0,0.5,0,0.9-0.1,1.4
	h-7.6c0,1.6,1,2.4,2.8,2.4c0.6,0,1.1-0.1,1.5-0.3c0.5-0.2,0.9-0.4,1.2-0.7l0.9,1.6c-0.5,0.4-1.1,0.8-1.8,1c-0.7,0.2-1.4,0.3-2.2,0.3
	c-1,0-1.8-0.2-2.5-0.5c-0.7-0.3-1.3-0.8-1.6-1.5c-0.4-0.6-0.6-1.4-0.6-2.2c0-1.1,0.2-2,0.7-2.9c0.5-0.9,1.1-1.5,2-2
	c0.9-0.5,1.8-0.7,2.9-0.7c1.3,0,2.4,0.4,3.2,1.1C251.5,509.1,251.9,510.2,251.9,511.5z M247.4,509.1c-0.8,0-1.4,0.2-1.9,0.6
	c-0.5,0.4-0.9,1-1.1,1.7h5.5c0-0.7-0.2-1.3-0.7-1.7C248.7,509.3,248.1,509.1,247.4,509.1z M256.3,517.1c-0.8,0-1.6-0.1-2.3-0.3
	c-0.7-0.2-1.3-0.5-1.7-0.8l0.9-1.7c0.4,0.3,0.9,0.5,1.5,0.7c0.6,0.2,1.2,0.3,1.9,0.3c0.7,0,1.3-0.1,1.6-0.3c0.4-0.2,0.6-0.5,0.6-0.9
	c0-0.3-0.2-0.5-0.5-0.6c-0.3-0.1-0.8-0.3-1.4-0.4c-0.7-0.1-1.2-0.3-1.7-0.4c-0.4-0.2-0.8-0.4-1.1-0.7c-0.3-0.3-0.5-0.8-0.5-1.4
	c0-1,0.4-1.8,1.2-2.4c0.8-0.6,1.9-0.9,3.3-0.9c0.7,0,1.3,0.1,1.9,0.2c0.6,0.1,1.1,0.3,1.5,0.6l-0.8,1.7c-0.4-0.3-0.8-0.4-1.3-0.6
	c-0.5-0.1-1-0.2-1.5-0.2c-0.7,0-1.2,0.1-1.6,0.3c-0.4,0.2-0.5,0.5-0.5,0.8c0,0.3,0.2,0.5,0.5,0.7c0.3,0.1,0.8,0.3,1.5,0.4
	c0.7,0.1,1.2,0.3,1.7,0.4c0.4,0.1,0.8,0.4,1.1,0.7s0.5,0.8,0.5,1.4c0,1-0.4,1.8-1.3,2.4C258.8,516.8,257.7,517.1,256.3,517.1z
	 M265.4,513.8c0,0.2,0,0.3,0,0.4c0,0.7,0.4,1.1,1.1,1.1c0.5,0,0.9-0.1,1.3-0.4l0.4,1.7c-0.6,0.4-1.4,0.6-2.3,0.6
	c-0.8,0-1.5-0.2-2-0.7s-0.8-1.1-0.8-1.9c0-0.3,0-0.5,0.1-0.8l0.9-4.5h-1.6l0.4-1.8h1.6l0.4-2.2h2.3l-0.5,2.2h2.6l-0.4,1.8h-2.6
	L265.4,513.8z M213.3,526.4c1.5,0,2.7,0.3,3.5,1c0.8,0.7,1.3,1.6,1.3,2.8c0,1.1-0.2,2-0.7,2.8c-0.5,0.8-1.2,1.4-2.1,1.8
	c-0.9,0.4-2,0.6-3.2,0.6H209l-0.7,3.6h-2.3l2.5-12.6H213.3z M212.1,533.4c1.1,0,2-0.3,2.6-0.8c0.6-0.5,0.9-1.3,0.9-2.2
	c0-0.7-0.2-1.2-0.7-1.5c-0.5-0.3-1.1-0.5-2-0.5h-2.7l-1,5H212.1z M222.3,530.6c0.4-0.5,0.9-0.8,1.5-1c0.6-0.2,1.3-0.3,2.2-0.3
	l-0.4,2.1c-0.2,0-0.4-0.1-0.6-0.1c-1.8,0-2.9,1-3.3,2.9l-1,4.7h-2.3l1.9-9.6h2.1L222.3,530.6z M237.2,529.4l-1.9,9.6h-2.1l0.2-1
	c-0.8,0.7-1.9,1.1-3.1,1.1c-0.8,0-1.5-0.2-2.2-0.5c-0.6-0.3-1.1-0.8-1.5-1.5c-0.4-0.6-0.6-1.4-0.6-2.3c0-1.1,0.2-2,0.7-2.9
	c0.5-0.9,1.1-1.5,1.9-2c0.8-0.5,1.8-0.7,2.8-0.7c1.5,0,2.6,0.5,3.3,1.5l0.3-1.4H237.2z M230.8,537.2c0.6,0,1.2-0.2,1.7-0.5
	c0.5-0.3,0.9-0.7,1.2-1.3c0.3-0.6,0.4-1.2,0.4-1.9c0-0.8-0.2-1.3-0.7-1.8c-0.4-0.4-1.1-0.6-1.9-0.6c-0.6,0-1.2,0.2-1.7,0.5
	c-0.5,0.3-0.9,0.7-1.2,1.3c-0.3,0.5-0.4,1.2-0.4,1.9c0,0.8,0.2,1.3,0.7,1.8C229.3,537,230,537.2,230.8,537.2z M243,539.1
	c-0.9,0-1.8-0.2-2.5-0.5c-0.7-0.4-1.3-0.9-1.6-1.5c-0.4-0.6-0.6-1.4-0.6-2.2c0-1.1,0.2-2,0.7-2.9s1.2-1.5,2-2c0.9-0.5,1.9-0.7,3-0.7
	c1,0,1.8,0.2,2.5,0.6c0.7,0.4,1.3,0.9,1.6,1.7l-1.9,1c-0.4-0.9-1.2-1.3-2.4-1.3c-0.6,0-1.2,0.2-1.7,0.5c-0.5,0.3-0.9,0.7-1.2,1.3
	c-0.3,0.5-0.4,1.2-0.4,1.9c0,0.8,0.2,1.3,0.7,1.8c0.4,0.4,1.1,0.6,1.9,0.6c0.6,0,1.1-0.1,1.5-0.3c0.4-0.2,0.8-0.6,1.1-1l1.7,1.1
	c-0.4,0.7-1.1,1.2-1.8,1.6C244.8,538.9,243.9,539.1,243,539.1z M252,535.8c0,0.2,0,0.3,0,0.4c0,0.7,0.4,1.1,1.1,1.1
	c0.5,0,0.9-0.1,1.3-0.4l0.4,1.7c-0.6,0.4-1.4,0.6-2.3,0.6c-0.8,0-1.5-0.2-2-0.7s-0.8-1.1-0.8-1.9c0-0.3,0-0.5,0.1-0.8l0.9-4.5h-1.6
	l0.4-1.8h1.6l0.4-2.2h2.3l-0.4,2.2h2.6l-0.4,1.8h-2.6L252,535.8z M258.3,529.4h2.3l-1.9,9.6h-2.3L258.3,529.4z M260,527.8
	c-0.4,0-0.7-0.1-1-0.4c-0.3-0.3-0.4-0.6-0.4-0.9c0-0.4,0.1-0.8,0.4-1c0.3-0.3,0.7-0.4,1.1-0.4c0.4,0,0.7,0.1,1,0.4
	c0.3,0.2,0.4,0.5,0.4,0.8c0,0.4-0.1,0.8-0.4,1.1C260.8,527.6,260.4,527.8,260,527.8z M266.4,539.1c-0.9,0-1.8-0.2-2.5-0.5
	c-0.7-0.4-1.3-0.9-1.6-1.5c-0.4-0.6-0.6-1.4-0.6-2.2c0-1.1,0.2-2,0.7-2.9s1.2-1.5,2-2c0.9-0.5,1.9-0.7,3-0.7c1,0,1.8,0.2,2.5,0.6
	c0.7,0.4,1.3,0.9,1.6,1.7l-1.9,1c-0.4-0.9-1.2-1.3-2.4-1.3c-0.6,0-1.2,0.2-1.7,0.5c-0.5,0.3-0.9,0.7-1.2,1.3
	c-0.3,0.5-0.4,1.2-0.4,1.9c0,0.8,0.2,1.3,0.7,1.8c0.4,0.4,1.1,0.6,1.9,0.6c0.6,0,1-0.1,1.5-0.3c0.4-0.2,0.8-0.6,1.1-1l1.7,1.1
	c-0.4,0.7-1.1,1.2-1.8,1.6C268.2,538.9,267.3,539.1,266.4,539.1z M282,533.5c0,0.5,0,0.9-0.1,1.4h-7.6c0,1.6,1,2.4,2.8,2.4
	c0.6,0,1.1-0.1,1.5-0.3c0.5-0.2,0.9-0.4,1.2-0.7l0.9,1.6c-0.5,0.4-1.1,0.8-1.8,1c-0.7,0.2-1.4,0.3-2.2,0.3c-1,0-1.8-0.2-2.5-0.5
	c-0.7-0.3-1.3-0.8-1.6-1.5c-0.4-0.6-0.6-1.4-0.6-2.2c0-1.1,0.2-2,0.7-2.9c0.5-0.9,1.1-1.5,2-2c0.9-0.5,1.8-0.7,2.9-0.7
	c1.3,0,2.4,0.4,3.2,1.1C281.6,531.1,282,532.2,282,533.5z M277.5,531.1c-0.8,0-1.4,0.2-1.9,0.6c-0.5,0.4-0.9,1-1.1,1.7h5.5
	c0-0.7-0.2-1.3-0.7-1.7C278.8,531.3,278.2,531.1,277.5,531.1z M286.4,539.1c-0.8,0-1.6-0.1-2.3-0.3c-0.7-0.2-1.3-0.5-1.7-0.8
	l0.9-1.7c0.4,0.3,0.9,0.5,1.5,0.7c0.6,0.2,1.2,0.3,1.9,0.3c0.7,0,1.3-0.1,1.6-0.3c0.4-0.2,0.6-0.5,0.6-0.9c0-0.3-0.2-0.5-0.5-0.6
	c-0.3-0.1-0.8-0.3-1.4-0.4c-0.7-0.1-1.2-0.3-1.7-0.4c-0.4-0.2-0.8-0.4-1.1-0.7c-0.3-0.3-0.5-0.8-0.5-1.4c0-1,0.4-1.8,1.2-2.4
	c0.8-0.6,1.9-0.9,3.3-0.9c0.7,0,1.3,0.1,1.9,0.2c0.6,0.1,1.1,0.3,1.5,0.6l-0.8,1.7c-0.4-0.3-0.8-0.4-1.4-0.6c-0.5-0.1-1-0.2-1.5-0.2
	c-0.7,0-1.2,0.1-1.6,0.3c-0.4,0.2-0.5,0.5-0.5,0.8c0,0.3,0.2,0.5,0.5,0.7c0.3,0.1,0.8,0.3,1.5,0.4c0.7,0.1,1.2,0.3,1.7,0.4
	c0.4,0.1,0.8,0.4,1.1,0.7c0.3,0.3,0.5,0.8,0.5,1.4c0,1-0.4,1.8-1.3,2.4C288.9,538.8,287.7,539.1,286.4,539.1z"/>
<path class="st7" d="M326,715.4c-12.6-16.2-19.5-36.2-19.4-56.8c0-50.8,40.8-92,91.2-92c50.4,0,91.2,41.2,91.2,92
	c0,20.6-6.8,40.6-19.5,56.8"/>
<path class="st5" d="M326,715.5c-12.6-16.2-19.5-36.2-19.4-56.8c0-50.9,40.8-92.1,91.2-92.1c50.4,0,91.2,41.2,91.2,92.1
	c0,17.4-4.8,34.4-14,49"/>
<linearGradient id="SVGID_4_" gradientUnits="userSpaceOnUse" x1="396.6635" y1="294.4812" x2="398.6515" y2="149.8092" gradientTransform="matrix(1 0 0 -1 0 872)">
	<stop  offset="0" style="stop-color:#5FB2FF"/>
	<stop  offset="1" style="stop-color:#4012A3"/>
</linearGradient>
<path class="st9" d="M326,715.5c-12.6-16.2-19.5-36.2-19.4-56.8c0-50.9,40.8-92.1,91.2-92.1c50.4,0,91.2,41.2,91.2,92.1
	c0,17.4-4.8,34.4-14,49"/>
<path class="st2" d="M379,670.7c10.2,0,16.8-7.5,16.8-19.1c0-11.2-5.9-18.1-15.7-18.1c-8.2,0-13.6,4.9-13.6,12.6
	c0,7.1,4.6,11.8,11.8,11.8c4.1,0,7-1.5,8.7-3.9c0.1,6-2.7,9.7-8.5,9.7c-2.8,0-5.6-0.8-7.6-2.3l-3.5,6.4
	C370.3,669.6,374.9,670.7,379,670.7z M380.3,651.1c-3.3,0-5.3-1.8-5.3-4.9c0-3.4,2.1-5.3,5.4-5.3c3.7,0,5.5,2.4,5.5,5.1
	C385.9,648.9,383.9,651.1,380.3,651.1z M411.8,670.7c10.2,0,16.8-7.5,16.8-19.1c0-11.2-5.9-18.1-15.7-18.1
	c-8.2,0-13.6,4.9-13.6,12.6c0,7.1,4.6,11.8,11.8,11.8c4.1,0,7-1.5,8.7-3.9c0.1,6-2.7,9.7-8.5,9.7c-2.8,0-5.6-0.8-7.6-2.3l-3.5,6.4
	C403.1,669.6,407.8,670.7,411.8,670.7z M413.2,651.1c-3.3,0-5.3-1.8-5.3-4.9c0-3.4,2.1-5.3,5.4-5.3c3.7,0,5.5,2.4,5.5,5.1
	C418.8,648.9,416.8,651.1,413.2,651.1z"/>
<path class="st3" d="M391,598.9c-2.4,0-3.9,1.6-3.9,4.2c0,2.6,1.5,4.2,3.9,4.2s3.9-1.6,3.9-4.2C394.9,600.5,393.4,598.9,391,598.9z
	 M390,612.9h3.2l10-14H400L390,612.9z M391,600.7c1.1,0,1.7,0.9,1.7,2.4s-0.6,2.4-1.7,2.4s-1.7-0.9-1.7-2.4S389.9,600.7,391,600.7z
	 M402.4,604.5c-2.4,0-3.9,1.6-3.9,4.2c0,2.6,1.5,4.3,3.9,4.3s3.9-1.6,3.9-4.3C406.3,606.2,404.8,604.5,402.4,604.5z M402.4,606.4
	c1.1,0,1.7,0.9,1.7,2.4c0,1.5-0.6,2.4-1.7,2.4s-1.7-0.9-1.7-2.4C400.7,607.3,401.3,606.4,402.4,606.4z"/>
<path class="st2" d="M383.3,732.9c-1,0-1.9-0.1-2.8-0.4s-1.6-0.6-2.1-1.1l1-1.8c0.5,0.4,1.2,0.8,1.9,1c0.7,0.2,1.5,0.4,2.2,0.4
	c0.9,0,1.7-0.2,2.2-0.5c0.6-0.3,0.8-0.8,0.8-1.3c0-0.3-0.1-0.6-0.3-0.8c-0.2-0.2-0.5-0.4-0.8-0.5c-0.3-0.1-0.8-0.3-1.4-0.5
	c-0.8-0.2-1.5-0.5-2-0.7c-0.5-0.2-0.9-0.6-1.3-1c-0.4-0.4-0.5-1-0.5-1.7c0-0.8,0.2-1.5,0.7-2.1c0.5-0.6,1.1-1.1,1.9-1.4
	c0.8-0.3,1.8-0.5,2.9-0.5c0.8,0,1.6,0.1,2.3,0.3c0.7,0.2,1.4,0.4,1.9,0.8l-0.9,1.9c-0.5-0.3-1-0.6-1.6-0.7c-0.6-0.2-1.2-0.3-1.8-0.3
	c-0.9,0-1.7,0.2-2.2,0.5c-0.5,0.3-0.8,0.8-0.8,1.3c0,0.3,0.1,0.6,0.3,0.8s0.5,0.4,0.8,0.5c0.3,0.1,0.8,0.3,1.4,0.5
	c0.8,0.2,1.4,0.5,1.9,0.7s0.9,0.5,1.3,1c0.4,0.4,0.5,1,0.5,1.6c0,0.8-0.2,1.5-0.7,2.2c-0.5,0.6-1.1,1.1-2,1.4
	C385.3,732.7,384.4,732.9,383.3,732.9z M394.9,722l-0.6,3.3h6.1l-0.4,1.9h-6.1l-0.7,3.5h7.1l-0.4,2h-9.4l2.5-12.6h9.2l-0.4,2H394.9z
	 M408.8,732.9c-1.2,0-2.3-0.2-3.2-0.7c-0.9-0.5-1.6-1.1-2.1-1.9c-0.5-0.8-0.7-1.8-0.7-2.8c0-1.4,0.3-2.7,1-3.9
	c0.6-1.2,1.6-2.1,2.7-2.7c1.2-0.7,2.5-1,4-1c1.2,0,2.3,0.2,3.2,0.7c0.9,0.4,1.6,1.1,2.1,1.9c0.5,0.8,0.7,1.7,0.7,2.8
	c0,1.4-0.3,2.7-1,3.9c-0.6,1.2-1.5,2.1-2.7,2.7C411.6,732.5,410.3,732.9,408.8,732.9z M409,730.8c1,0,1.9-0.2,2.7-0.7
	c0.8-0.5,1.4-1.1,1.8-2c0.4-0.8,0.6-1.7,0.6-2.7c0-1.1-0.3-1.9-1-2.5c-0.7-0.6-1.6-1-2.9-1c-1,0-1.9,0.2-2.7,0.7
	c-0.8,0.5-1.4,1.1-1.8,2c-0.4,0.8-0.6,1.7-0.6,2.7c0,1.1,0.3,1.9,1,2.5C406.8,730.5,407.7,730.8,409,730.8z"/>
</svg>
