<?xml version="1.0" encoding="utf-8"?>
<!-- Generator: Adobe Illustrator 24.1.2, SVG Export Plug-In . SVG Version: 6.00 Build 0)  -->
<svg version="1.1" id="Layer_1" xmlns="http://www.w3.org/2000/svg" xmlns:xlink="http://www.w3.org/1999/xlink" x="0px" y="0px"
	 viewBox="0 0 198 177" style="enable-background:new 0 0 198 177;" xml:space="preserve">
<style type="text/css">
	.st0{fill:none;stroke:#4012A3;stroke-width:3;stroke-linecap:round;stroke-miterlimit:10;}
	.st1{fill:none;stroke:#2C80FF;stroke-width:15;stroke-linecap:round;stroke-miterlimit:10;}
	.st2{fill:none;stroke:url(#SVGID_1_);stroke-width:15;stroke-linecap:round;stroke-miterlimit:10;}
	.st3{fill:#FFFFFF;}
	.st4{fill:#4FBA6D;}
</style>
<path class="st0" d="M27,156.4C14.4,140.2,7.5,120.2,7.6,99.6c0-50.8,40.8-92,91.2-92c50.4,0,91.2,41.2,91.2,92
	c0,20.6-6.8,40.6-19.5,56.8"/>
<path class="st1" d="M27,156.5C14.4,140.3,7.5,120.3,7.6,99.7c0-50.9,40.8-92.1,91.2-92.1c50.4,0,91.2,41.2,91.2,92.1
	c0,17.4-4.8,34.4-14,49"/>
<linearGradient id="SVGID_1_" gradientUnits="userSpaceOnUse" x1="97.6633" y1="159.4816" x2="99.6513" y2="14.8093" gradientTransform="matrix(1 0 0 -1 0 178)">
	<stop  offset="0" style="stop-color:#5FB2FF"/>
	<stop  offset="1" style="stop-color:#4012A3"/>
</linearGradient>
<path class="st2" d="M27,156.5C14.4,140.3,7.5,120.3,7.6,99.7c0-50.9,40.8-92.1,91.2-92.1c50.4,0,91.2,41.2,91.2,92.1
	c0,17.4-4.8,34.4-14,49"/>
<path class="st3" d="M80,111.7c10.2,0,16.8-7.5,16.8-19.1c0-11.2-5.9-18.1-15.7-18.1c-8.2,0-13.6,4.9-13.6,12.6
	c0,7.1,4.6,11.8,11.8,11.8c4.1,0,7-1.5,8.7-3.9c0.1,6-2.7,9.7-8.5,9.7c-2.8,0-5.6-0.8-7.6-2.3l-3.5,6.4
	C71.3,110.6,75.9,111.7,80,111.7z M81.3,92.1c-3.3,0-5.3-1.8-5.3-4.9c0-3.4,2.1-5.3,5.4-5.3c3.7,0,5.5,2.4,5.5,5.1
	C86.9,89.9,84.9,92.1,81.3,92.1z M112.8,111.7c10.2,0,16.8-7.5,16.8-19.1c0-11.2-5.9-18.1-15.7-18.1c-8.2,0-13.6,4.9-13.6,12.6
	c0,7.1,4.6,11.8,11.8,11.8c4.1,0,7-1.5,8.7-3.9c0.1,6-2.7,9.7-8.5,9.7c-2.8,0-5.6-0.8-7.6-2.3l-3.5,6.4
	C104.1,110.6,108.8,111.7,112.8,111.7z M114.2,92.1c-3.3,0-5.3-1.8-5.3-4.9c0-3.4,2.1-5.3,5.4-5.3c3.7,0,5.5,2.4,5.5,5.1
	C119.8,89.9,117.8,92.1,114.2,92.1z"/>
<path class="st4" d="M92,39.9c-2.4,0-3.9,1.6-3.9,4.2c0,2.6,1.5,4.2,3.9,4.2c2.4,0,3.9-1.6,3.9-4.2C95.9,41.5,94.4,39.9,92,39.9z
	 M91,53.9h3.2l10-14H101L91,53.9z M92,41.7c1.1,0,1.7,0.9,1.7,2.4S93,46.5,92,46.5c-1.1,0-1.7-0.9-1.7-2.4S90.9,41.7,92,41.7z
	 M103.4,45.5c-2.4,0-3.9,1.6-3.9,4.2c0,2.6,1.5,4.3,3.9,4.3s3.9-1.6,3.9-4.3C107.3,47.2,105.8,45.5,103.4,45.5z M103.4,47.4
	c1.1,0,1.7,0.9,1.7,2.4c0,1.5-0.6,2.4-1.7,2.4s-1.7-0.9-1.7-2.4C101.7,48.3,102.3,47.4,103.4,47.4z"/>
<path class="st3" d="M84.3,173.9c-1,0-1.9-0.1-2.8-0.4c-0.9-0.3-1.6-0.6-2.1-1.1l1-1.8c0.5,0.4,1.2,0.8,1.9,1
	c0.7,0.2,1.5,0.4,2.2,0.4c0.9,0,1.7-0.2,2.2-0.5c0.6-0.3,0.8-0.8,0.8-1.3c0-0.3-0.1-0.6-0.3-0.8c-0.2-0.2-0.5-0.4-0.8-0.5
	c-0.3-0.1-0.8-0.3-1.4-0.4c-0.8-0.2-1.5-0.5-2-0.7c-0.5-0.2-0.9-0.6-1.3-1s-0.5-1-0.5-1.7c0-0.8,0.2-1.5,0.7-2.1
	c0.5-0.6,1.1-1.1,1.9-1.4c0.8-0.3,1.8-0.5,2.9-0.5c0.8,0,1.6,0.1,2.3,0.3c0.7,0.2,1.4,0.4,1.9,0.8l-0.9,1.9c-0.5-0.3-1-0.6-1.6-0.7
	c-0.6-0.2-1.2-0.3-1.8-0.3c-0.9,0-1.7,0.2-2.2,0.5c-0.5,0.3-0.8,0.8-0.8,1.4c0,0.3,0.1,0.6,0.3,0.8s0.5,0.4,0.8,0.5
	c0.3,0.1,0.8,0.3,1.4,0.5c0.8,0.2,1.4,0.4,1.9,0.7s0.9,0.5,1.3,1c0.4,0.4,0.5,1,0.5,1.6c0,0.8-0.2,1.5-0.7,2.2
	c-0.5,0.6-1.1,1.1-2,1.4C86.3,173.7,85.4,173.9,84.3,173.9z M95.9,163l-0.6,3.3h6.1l-0.4,1.9h-6.1l-0.7,3.5h7.1l-0.4,2h-9.4
	l2.5-12.6h9.2l-0.4,2H95.9z M109.8,173.9c-1.2,0-2.3-0.2-3.2-0.7c-0.9-0.5-1.6-1.1-2.1-1.9c-0.5-0.8-0.7-1.8-0.7-2.8
	c0-1.4,0.3-2.7,1-3.9c0.6-1.2,1.6-2.1,2.7-2.7c1.2-0.7,2.5-1,4-1c1.2,0,2.3,0.2,3.2,0.7c0.9,0.4,1.6,1.1,2.1,1.9
	c0.5,0.8,0.7,1.7,0.7,2.8c0,1.4-0.3,2.7-1,3.9c-0.6,1.2-1.5,2.1-2.7,2.7C112.6,173.5,111.3,173.9,109.8,173.9z M110,171.8
	c1,0,1.9-0.2,2.7-0.7c0.8-0.5,1.4-1.1,1.8-2c0.4-0.8,0.6-1.7,0.6-2.7c0-1.1-0.3-1.9-1-2.5c-0.7-0.6-1.6-1-2.9-1
	c-1,0-1.9,0.2-2.7,0.7c-0.8,0.5-1.4,1.1-1.8,2c-0.4,0.8-0.6,1.7-0.6,2.7c0,1.1,0.3,1.9,1,2.5C107.8,171.5,108.7,171.8,110,171.8z"/>
</svg>
