<?xml version="1.0" encoding="utf-8"?>
<!-- Generator: Adobe Illustrator 24.1.2, SVG Export Plug-In . SVG Version: 6.00 Build 0)  -->
<svg version="1.1" id="Layer_1" xmlns="http://www.w3.org/2000/svg" xmlns:xlink="http://www.w3.org/1999/xlink" x="0px" y="0px"
	 viewBox="0 0 198 177" style="enable-background:new 0 0 198 177;" xml:space="preserve">
<style type="text/css">
	.st0{fill:none;stroke:#D1D3D4;stroke-width:3;stroke-linecap:round;stroke-miterlimit:10;}
	.st1{fill:none;stroke:#2C80FF;stroke-width:15;stroke-linecap:round;stroke-miterlimit:10;}
	.st2{fill:none;stroke:url(#SVGID_1_);stroke-width:15;stroke-linecap:round;stroke-miterlimit:10;}
	.st3{fill:#FFFFFF;}
	.st4{fill:#4FBA6D;}
</style>
<path class="st0" d="M27.4,156C14.8,139.8,8,119.8,8,99.2c0-50.8,40.8-92,91.2-92s91.2,41.2,91.2,92c0,20.6-6.8,40.6-19.5,56.8"/>
<path class="st1" d="M27.4,156.9C14.8,140.7,8,120.7,8,100.1c0-50.8,40.8-92,91.1-92c50.3,0,91.1,41.2,91.1,92
	c0,20.6-6.8,40.6-19.4,56.8"/>
<linearGradient id="SVGID_1_" gradientUnits="userSpaceOnUse" x1="97.9463" y1="159.0138" x2="99.9373" y2="14.3422" gradientTransform="matrix(1 0 0 -1 0 178)">
	<stop  offset="0" style="stop-color:#5FB2FF"/>
	<stop  offset="1" style="stop-color:#4012A3"/>
</linearGradient>
<path class="st2" d="M27.4,156.9C14.8,140.7,8,120.7,8,100.1c0-50.8,40.8-92,91.1-92c50.3,0,91.1,41.2,91.1,92
	c0,20.6-6.8,40.6-19.4,56.8"/>
<path class="st3" d="M68.3,110.9V74.5h-16v7.4H59v29H68.3z M91.7,74.2c-10.4,0-16.2,6.6-16.2,18.5c0,11.9,5.8,18.5,16.2,18.5
	c10.3,0,16.1-6.6,16.1-18.5C107.7,80.8,102,74.2,91.7,74.2z M91.7,81c4.6,0,6.6,3.4,6.6,11.7c0,8.3-2,11.8-6.6,11.8
	c-4.7,0-6.7-3.4-6.7-11.8C85,84.3,87,81,91.7,81z M128.2,74.2c-10.4,0-16.2,6.6-16.2,18.5c0,11.9,5.8,18.5,16.2,18.5
	c10.3,0,16.1-6.6,16.1-18.5C144.3,80.8,138.5,74.2,128.2,74.2z M128.2,81c4.6,0,6.6,3.4,6.6,11.7c0,8.3-2,11.8-6.6,11.8
	c-4.7,0-6.7-3.4-6.7-11.8C121.6,84.3,123.6,81,128.2,81z"/>
<path class="st4" d="M92.4,39.4c-2.4,0-3.9,1.6-3.9,4.2c0,2.6,1.5,4.2,3.9,4.2s3.9-1.6,3.9-4.2C96.3,41.1,94.8,39.4,92.4,39.4z
	 M91.4,53.5h3.2l10-14h-3.2L91.4,53.5z M92.4,41.3c1.1,0,1.7,0.9,1.7,2.4S93.5,46,92.4,46s-1.7-0.9-1.7-2.4S91.4,41.3,92.4,41.3z
	 M103.8,45.1c-2.4,0-3.9,1.6-3.9,4.2c0,2.6,1.5,4.3,3.9,4.3c2.4,0,3.9-1.6,3.9-4.3C107.7,46.7,106.2,45.1,103.8,45.1z M103.8,46.9
	c1.1,0,1.7,0.9,1.7,2.4c0,1.5-0.6,2.4-1.7,2.4c-1.1,0-1.7-0.9-1.7-2.4C102.1,47.8,102.8,46.9,103.8,46.9z"/>
<path class="st3" d="M84.1,160.8c1.5,0,2.7,0.3,3.5,1c0.8,0.7,1.3,1.6,1.3,2.8c0,1.1-0.2,2-0.7,2.8c-0.5,0.8-1.2,1.4-2.1,1.8
	c-0.9,0.4-2,0.6-3.2,0.6h-3.1l-0.7,3.6h-2.3l2.5-12.6H84.1z M83,167.8c1.1,0,2-0.3,2.6-0.8c0.6-0.5,0.9-1.3,0.9-2.2
	c0-0.7-0.2-1.2-0.7-1.5c-0.5-0.3-1.1-0.5-2-0.5h-2.7l-1,5H83z M110.4,160.8l-6.7,12.6h-2.5l-1.3-9.2l-5,9.2h-2.5l-1.7-12.6h2.3
	l1.2,9.6l5.2-9.6h2.2l1.2,9.7l5.2-9.7H110.4z M118.3,170.5H112l-1.8,2.9h-2.5l8.2-12.6h2.3l3.1,12.6H119L118.3,170.5z M117.9,168.7
	l-1.3-5.5l-3.5,5.5H117.9z"/>
</svg>
